SplineFontDB: 3.0
FontName: Swords
FullName: Swords
FamilyName: Swords
Weight: Regular
Copyright: Copyright (c) 2018, thane
UComments: "Created for the webcomic Swords (https://swordscomic.com)"
Version: 001.000
ItalicAngle: 0
UnderlinePosition: -102
UnderlineWidth: 51
Ascent: 819
Descent: 205
InvalidEm: 0
LayerCount: 2
Layer: 0 0 "Back" 1
Layer: 1 0 "Fore" 0
XUID: [1021 216 -965207696 24601]
StyleMap: 0x0000
FSType: 0
OS2Version: 0
OS2_WeightWidthSlopeOnly: 0
OS2_UseTypoMetrics: 1
CreationTime: 1534776967
ModificationTime: 1535035663
PfmFamily: 17
TTFWeight: 400
TTFWidth: 5
LineGap: 92
VLineGap: 92
OS2TypoAscent: 0
OS2TypoAOffset: 1
OS2TypoDescent: 0
OS2TypoDOffset: 1
OS2TypoLinegap: 92
OS2WinAscent: 0
OS2WinAOffset: 1
OS2WinDescent: 0
OS2WinDOffset: 1
HheadAscent: 0
HheadAOffset: 1
HheadDescent: 0
HheadDOffset: 1
OS2Vendor: 'PfEd'
Lookup: 1 0 0 "ConvertI" { "ConvertI-1"  } ['cv00' ('DFLT' <'dflt' > 'latn' <'dflt' > ) ]
MarkAttachClasses: 1
DEI: 91125
LangName: 1033
Encoding: iso8859-15
UnicodeInterp: none
NameList: AGL For New Fonts
DisplaySize: -48
AntiAlias: 1
FitToEm: 0
WinInfo: 0 29 13
BeginPrivate: 0
EndPrivate
TeXData: 1 0 0 346030 173015 115343 778036 1048576 115343 783286 444596 497025 792723 393216 433062 380633 303038 157286 324010 404750 52429 2506097 1059062 262144
BeginChars: 269 113

StartChar: A
Encoding: 65 65 0
Width: 491
VWidth: 0
Flags: HW
LayerCount: 2
Fore
SplineSet
199.709960938 661.439453125 m 0
 204.190429688 661.439453125 209.310546875 660.799804688 213.791015625 658.879882812 c 0
 253.470703125 644.799804688 294.430664062 568.639648438 382.75 344 c 0
 474.270507812 111.6796875 480.030273438 87.359375 455.0703125 57.2802734375 c 0
 426.270507812 22.7197265625 395.549804688 46.3994140625 352.030273438 133.439453125 c 2
 315.549804688 207.0390625 l 1
 229.150390625 203.83984375 l 2
 181.791015625 201.919921875 139.549804688 199.359375 136.350585938 197.439453125 c 0
 133.150390625 195.51953125 124.831054688 165.439453125 118.430664062 131.51953125 c 0
 101.150390625 44.48046875 83.8701171875 6.080078125 60.8310546875 6.080078125 c 0
 50.5908203125 6.080078125 36.5107421875 12.48046875 29.470703125 20.7998046875 c 0
 13.470703125 40.6396484375 26.91015625 127.6796875 83.8701171875 361.280273438 c 0
 107.549804688 457.919921875 129.310546875 556.48046875 133.150390625 580.16015625 c 0
 140.831054688 631.359375 167.709960938 663.359375 199.709960938 661.439453125 c 0
206.75 477.759765625 m 0
 202.91015625 477.759765625 192.030273438 443.19921875 182.430664062 401.599609375 c 0
 172.831054688 360 163.23046875 319.6796875 160.030273438 312.639648438 c 0
 155.549804688 302.399414062 166.430664062 300.48046875 212.510742188 306.239257812 c 0
 243.870117188 310.080078125 271.390625 314.559570312 272.670898438 315.19921875 c 0
 277.150390625 319.0390625 213.150390625 477.759765625 206.75 477.759765625 c 0
EndSplineSet
Validated: 33
EndChar

StartChar: B
Encoding: 66 66 1
Width: 478
VWidth: 0
Flags: HW
LayerCount: 2
Fore
SplineSet
145.328125 657.959960938 m 4
 228.528320312 663.079101562 320.047851562 605.479492188 320.047851562 526.759765625 c 4
 320.047851562 495.399414062 291.887695312 429.479492188 273.328125 417.959960938 c 4
 267.567382812 414.759765625 297.0078125 395.559570312 337.328125 375.71875 c 4
 428.208007812 331.559570312 457.6484375 291.87890625 457.6484375 210.599609375 c 4
 457.6484375 149.799804688 427.567382812 102.439453125 361.6484375 57 c 4
 287.407226562 5.7998046875 224.688476562 -7.640625 145.967773438 10.9189453125 c 4
 81.9677734375 26.279296875 66.607421875 74.279296875 34.607421875 369.959960938 c 4
 11.5673828125 582.439453125 12.2080078125 587.559570312 68.5283203125 630.439453125 c 4
 90.927734375 647.71875 117.807617188 656.0390625 145.328125 657.959960938 c 4
147.248046875 563.87890625 m 4
 126.767578125 564.51953125 108.208007812 562.599609375 106.288085938 560.0390625 c 4
 104.368164062 557.479492188 106.927734375 526.759765625 112.047851562 490.279296875 c 6
 121.6484375 424.359375 l 5
 161.328125 457 l 6
 183.087890625 474.918945312 206.127929688 498.599609375 211.248046875 508.19921875 c 4
 225.967773438 535.079101562 193.967773438 562.599609375 147.248046875 563.87890625 c 4
140.848632812 317.479492188 m 5
 142.127929688 266.918945312 l 6
 142.767578125 239.399414062 145.967773438 188.19921875 149.807617188 153.639648438 c 6
 156.848632812 90.9189453125 l 5
 199.087890625 97.3193359375 l 6
 222.767578125 100.51953125 252.848632812 110.119140625 266.927734375 117.16015625 c 4
 281.0078125 124.19921875 306.607421875 142.759765625 324.528320312 158.119140625 c 4
 361.0078125 190.119140625 368.047851562 235.559570312 340.528320312 259.87890625 c 4
 304.688476562 291.239257812 241.328125 316.19921875 191.407226562 316.83984375 c 6
 140.848632812 317.479492188 l 5
EndSplineSet
Validated: 33
EndChar

StartChar: C
Encoding: 67 67 2
Width: 536
VWidth: 0
Flags: HW
LayerCount: 2
Fore
SplineSet
241.419921875 8.240234375 m 4
 152.459960938 26.16015625 75.66015625 88.8798828125 55.8203125 161.200195312 c 4
 41.740234375 211.759765625 43.0205078125 237.360351562 60.9404296875 323.759765625 c 4
 82.7001953125 426.799804688 127.500976562 510.639648438 203.66015625 590.639648438 c 4
 257.419921875 646.959960938 276.620117188 659.759765625 302.219726562 659.759765625 c 4
 323.98046875 659.759765625 337.419921875 653.360351562 345.100585938 639.279296875 c 4
 358.540039062 613.6796875 354.700195312 606.639648438 291.340820312 540.720703125 c 4
 201.100585938 446.639648438 163.340820312 372.400390625 152.459960938 268.080078125 c 4
 144.780273438 195.120117188 155.66015625 170.799804688 212.620117188 142 c 4
 267.020507812 114.479492188 327.180664062 119.599609375 382.219726562 157.360351562 c 4
 445.580078125 200.240234375 489.740234375 189.360351562 489.740234375 131.759765625 c 4
 489.740234375 58.7998046875 346.379882812 -12.8798828125 241.419921875 8.240234375 c 4
EndSplineSet
Validated: 33
EndChar

StartChar: D
Encoding: 68 68 3
Width: 608
VWidth: 0
Flags: HW
LayerCount: 2
Fore
SplineSet
144.21875 655.360351562 m 4
 154.458984375 655.360351562 166.619140625 654.080078125 182.619140625 652.799804688 c 4
 220.37890625 649.599609375 282.458984375 637.439453125 320.21875 625.919921875 c 4
 379.73828125 608 397.659179688 597.119140625 450.138671875 544 c 4
 540.37890625 452.479492188 571.73828125 348.799804688 541.659179688 240.639648438 c 4
 521.819335938 168.959960938 397.659179688 53.759765625 305.499023438 21.119140625 c 4
 244.05859375 -0.6396484375 155.73828125 -7.0400390625 135.8984375 8.3193359375 c 4
 114.779296875 24.3193359375 96.859375 140.799804688 72.5390625 415.360351562 c 6
 55.2587890625 611.200195312 l 5
 84.05859375 634.879882812 l 6
 103.8984375 650.879882812 114.138671875 656 144.21875 655.360351562 c 4
169.819335938 538.240234375 m 4
 162.138671875 537.599609375 158.298828125 535.6796875 160.21875 533.119140625 c 4
 169.819335938 517.759765625 198.619140625 193.919921875 195.418945312 143.360351562 c 4
 193.499023438 117.119140625 192.859375 95.3603515625 194.779296875 95.3603515625 c 4
 196.05859375 95.3603515625 218.458984375 106.240234375 244.05859375 119.6796875 c 4
 309.338867188 153.599609375 354.779296875 188.799804688 393.1796875 236.799804688 c 4
 423.258789062 275.200195312 425.819335938 282.879882812 421.979492188 333.439453125 c 4
 414.298828125 439.040039062 322.138671875 525.439453125 203.098632812 537.599609375 c 4
 189.01953125 538.879882812 177.499023438 538.879882812 169.819335938 538.240234375 c 4
EndSplineSet
Validated: 33
EndChar

StartChar: E
Encoding: 69 69 4
Width: 504
VWidth: 0
Flags: HW
LayerCount: 2
Fore
SplineSet
58.41796875 27.1591796875 m 0
 36.658203125 55.3193359375 30.8974609375 111 20.658203125 420.119140625 c 0
 13.6181640625 639.639648438 15.5380859375 642.19921875 203.057617188 655 c 0
 324.017578125 663.319335938 367.538085938 655 377.778320312 623 c 0
 396.337890625 564.119140625 348.978515625 539.799804688 213.938476562 539.799804688 c 2
 116.658203125 539.799804688 l 1
 121.778320312 512.918945312 l 2
 124.337890625 498.19921875 130.09765625 455.958984375 133.297851562 418.83984375 c 2
 139.697265625 351.639648438 l 1
 181.938476562 359.958984375 l 2
 262.578125 375.319335938 329.778320312 370.83984375 352.177734375 348.439453125 c 0
 368.177734375 332.439453125 370.73828125 324.119140625 362.41796875 308.119140625 c 0
 346.41796875 278.0390625 319.538085938 267.159179688 224.818359375 255 c 2
 137.778320312 244.119140625 l 1
 137.778320312 178.83984375 l 2
 137.778320312 143 139.057617188 114.19921875 140.337890625 114.19921875 c 0
 141.618164062 114.19921875 177.458007812 123.799804688 219.697265625 134.6796875 c 0
 324.017578125 162.19921875 436.658203125 162.19921875 464.177734375 134.6796875 c 0
 512.818359375 86.0390625 475.697265625 48.279296875 371.377929688 39.3193359375 c 0
 329.778320312 35.4794921875 261.938476562 25.87890625 220.978515625 17.55859375 c 0
 114.09765625 -4.8408203125 82.09765625 -3.560546875 58.41796875 27.1591796875 c 0
EndSplineSet
Validated: 33
EndChar

StartChar: F
Encoding: 70 70 5
Width: 473
VWidth: 0
Flags: HW
LayerCount: 2
Fore
SplineSet
108.841796875 24.2001953125 m 0
 88.361328125 55.5595703125 77.4814453125 119.559570312 53.80078125 352.520507812 c 0
 34.6015625 541.3203125 39.08203125 595.079101562 74.28125 618.120117188 c 0
 126.76171875 652.040039062 365.481445312 669.959960938 403.2421875 642.439453125 c 0
 416.041992188 632.83984375 421.80078125 617.479492188 419.2421875 595.719726562 c 0
 414.76171875 554.759765625 369.9609375 538.120117188 267.561523438 536.83984375 c 0
 156.201171875 535.559570312 144.041992188 529.799804688 151.08203125 482.439453125 c 0
 154.28125 460.6796875 160.041992188 420.360351562 163.881835938 393.479492188 c 2
 170.28125 344.200195312 l 1
 278.44140625 347.399414062 l 2
 375.721679688 350.599609375 388.521484375 348.6796875 409.000976562 328.200195312 c 0
 437.161132812 300.040039062 437.80078125 278.919921875 409.641601562 250.759765625 c 0
 391.08203125 232.200195312 373.161132812 229 284.841796875 229 c 2
 181.80078125 229 l 1
 186.921875 143.879882812 l 2
 192.041992188 53.6396484375 178.6015625 7.5595703125 144.681640625 1.16015625 c 0
 134.44140625 -0.7607421875 118.44140625 9.4794921875 108.841796875 24.2001953125 c 0
EndSplineSet
Validated: 33
EndChar

StartChar: G
Encoding: 71 71 6
Width: 585
VWidth: 0
Flags: HW
LayerCount: 2
Fore
SplineSet
157.6328125 27.0791015625 m 0
 59.712890625 72.51953125 18.75390625 157.639648438 25.79296875 297.16015625 c 0
 29.6328125 365.639648438 36.033203125 391.239257812 63.5537109375 447.559570312 c 0
 101.3125 523.71875 178.11328125 606.918945312 240.833007812 638.918945312 c 0
 318.913085938 678.599609375 415.553710938 660.6796875 446.2734375 600.51953125 c 0
 466.75390625 560.83984375 465.47265625 533.319335938 442.43359375 521.16015625 c 0
 416.193359375 507.079101562 416.833007812 507.079101562 382.2734375 541 c 0
 332.353515625 589.639648438 289.47265625 577.479492188 209.47265625 491.71875 c 0
 143.553710938 421.319335938 119.233398438 363.71875 118.59375 277.319335938 c 0
 117.953125 192.83984375 135.233398438 149.959960938 178.11328125 123.079101562 c 0
 232.512695312 89.7998046875 272.833007812 96.19921875 330.43359375 148.0390625 c 0
 381.6328125 194.119140625 455.233398438 299.71875 428.993164062 289.479492188 c 0
 421.3125 286.279296875 389.953125 281.16015625 359.873046875 277.319335938 c 0
 295.233398438 269 262.59375 281.799804688 262.59375 315.71875 c 0
 262.59375 360.51953125 315.712890625 384.19921875 441.79296875 397 c 0
 499.393554688 402.759765625 508.993164062 400.83984375 534.59375 381 c 0
 559.553710938 361.16015625 562.75390625 354.119140625 558.2734375 320.19921875 c 0
 547.393554688 238.279296875 417.47265625 68.6796875 330.43359375 21.9599609375 c 0
 284.353515625 -2.3603515625 217.153320312 -0.4404296875 157.6328125 27.0791015625 c 0
EndSplineSet
Validated: 33
EndChar

StartChar: H
Encoding: 72 72 7
Width: 749
VWidth: 0
Flags: HW
LayerCount: 2
Fore
SplineSet
577.66015625 33.359375 m 4
 567.419921875 49.359375 553.33984375 98.6396484375 546.30078125 144.080078125 c 6
 533.5 226 l 5
 485.5 220.879882812 l 6
 459.260742188 218.319335938 391.419921875 212.559570312 335.100585938 208.719726562 c 6
 232.700195312 201.6796875 l 5
 232.700195312 146 l 6
 232.700195312 16.080078125 179.580078125 -27.4404296875 137.98046875 67.2802734375 c 4
 114.940429688 119.759765625 68.2197265625 437.200195312 68.2197265625 542.799804688 c 4
 68.2197265625 607.440429688 88.060546875 632.400390625 130.940429688 621.51953125 c 4
 166.780273438 612.559570312 181.5 576.080078125 201.33984375 438.479492188 c 4
 213.5 354 220.540039062 327.759765625 233.33984375 330.959960938 c 4
 242.30078125 332.879882812 310.140625 338 383.100585938 341.83984375 c 6
 516.219726562 348.240234375 l 5
 511.100585938 378.959960938 l 6
 508.540039062 395.600585938 496.379882812 455.120117188 484.219726562 512.080078125 c 4
 459.900390625 624.719726562 465.66015625 652.240234375 513.66015625 659.280273438 c 4
 555.260742188 665.6796875 591.100585938 620.879882812 617.98046875 528.719726562 c 4
 671.100585938 346.959960938 699.260742188 60.8798828125 667.260742188 22.4794921875 c 4
 644.219726562 -5.0400390625 599.419921875 0.7197265625 577.66015625 33.359375 c 4
EndSplineSet
Validated: 33
EndChar

StartChar: I
Encoding: 73 73 8
Width: 566
VWidth: 0
Flags: HW
LayerCount: 2
Fore
SplineSet
118.555664062 3.4404296875 m 0
 105.115234375 6 94.2353515625 17.51953125 90.3955078125 32.8798828125 c 0
 82.7158203125 64.240234375 111.515625 90.48046875 163.35546875 98.80078125 c 0
 245.275390625 111.600585938 240.794921875 109.040039062 231.8359375 149.360351562 c 0
 227.35546875 169.200195312 218.395507812 267.760742188 211.995117188 367.600585938 c 2
 199.8359375 550 l 1
 159.515625 550 l 2
 83.9951171875 550 40.4755859375 576.240234375 54.5556640625 613.360351562 c 0
 66.0751953125 643.440429688 102.555664062 649.83984375 259.35546875 654.3203125 c 0
 394.395507812 658.16015625 419.995117188 656.240234375 441.115234375 642.80078125 c 0
 471.8359375 622.9609375 475.036132812 574.9609375 446.875976562 559.600585938 c 0
 436.635742188 553.83984375 395.036132812 550 355.35546875 550 c 2
 283.036132812 550 l 1
 286.875976562 513.51953125 l 2
 293.275390625 452.719726562 311.1953125 258.16015625 316.955078125 183.280273438 c 2
 322.715820312 112.879882812 l 1
 398.875976562 112.879882812 l 2
 462.235351562 112.879882812 478.875976562 109.6796875 494.875976562 93.6796875 c 0
 505.754882812 82.80078125 514.075195312 68.080078125 514.075195312 59.7607421875 c 0
 514.075195312 52.080078125 505.754882812 36.7197265625 494.875976562 25.83984375 c 0
 478.235351562 9.2001953125 462.235351562 6.640625 380.955078125 6 c 0
 329.115234375 6 253.594726562 4.080078125 213.275390625 2.16015625 c 0
 172.955078125 0.240234375 130.715820312 0.8798828125 118.555664062 3.4404296875 c 0
EndSplineSet
Validated: 33
Substitution2: "ConvertI-1" Imacron
EndChar

StartChar: J
Encoding: 74 74 9
Width: 545
VWidth: 0
Flags: HW
LayerCount: 2
Fore
SplineSet
198.823242188 12.400390625 m 0
 142.502929688 29.6796875 82.34375 98.7998046875 61.22265625 170.479492188 c 0
 47.1435546875 219.120117188 46.5029296875 235.760742188 57.3828125 249.200195312 c 0
 84.2626953125 281.200195312 112.422851562 267.760742188 154.0234375 203.120117188 c 0
 186.663085938 152.560546875 202.0234375 138.479492188 234.0234375 132.719726562 c 0
 343.462890625 112.240234375 374.823242188 210.799804688 356.90234375 528.240234375 c 0
 351.143554688 634.479492188 366.502929688 669.040039062 413.86328125 653.6796875 c 0
 468.90234375 636.400390625 502.18359375 498.799804688 493.86328125 324.080078125 c 0
 489.3828125 224.240234375 482.983398438 198.639648438 450.983398438 134 c 0
 396.583007812 23.2802734375 305.703125 -20.2392578125 198.823242188 12.400390625 c 0
EndSplineSet
Validated: 33
EndChar

StartChar: K
Encoding: 75 75 10
Width: 692
VWidth: 0
Flags: HW
LayerCount: 2
Fore
SplineSet
381.83984375 108.400390625 m 0
 298.639648438 173.040039062 226.3203125 226.16015625 221.83984375 226.16015625 c 0
 217.360351562 226.16015625 213.520507812 185.83984375 213.520507812 136.560546875 c 0
 213.520507812 61.6796875 210.3203125 43.119140625 191.120117188 23.919921875 c 0
 173.200195312 6 164.240234375 4.080078125 145.6796875 13.6796875 c 0
 108.560546875 33.51953125 100.240234375 73.2001953125 81.6796875 347.759765625 c 2
 63.759765625 610.16015625 l 1
 90 631.279296875 l 2
 113.040039062 649.83984375 118.799804688 650.479492188 139.279296875 637.040039062 c 0
 170.639648438 616.560546875 187.919921875 564.080078125 197.520507812 457.83984375 c 2
 205.200195312 370.16015625 l 1
 330 493.040039062 l 2
 454.799804688 615.919921875 500.240234375 644.719726562 537.360351562 621.6796875 c 0
 581.520507812 594.16015625 565.520507812 563.439453125 442 438 c 0
 375.439453125 370.799804688 323.599609375 313.83984375 326.16015625 311.919921875 c 0
 328.720703125 310 369.040039062 282.479492188 415.759765625 251.119140625 c 0
 542.479492188 166 628.240234375 84.7197265625 628.240234375 47.599609375 c 0
 628.240234375 7.919921875 609.040039062 -9.3603515625 566.799804688 -9.3603515625 c 0
 540.560546875 -9.3603515625 497.6796875 18.16015625 381.83984375 108.400390625 c 0
EndSplineSet
Validated: 33
EndChar

StartChar: L
Encoding: 76 76 11
Width: 551
VWidth: 0
Flags: HW
LayerCount: 2
Fore
SplineSet
65.822265625 4.080078125 m 0
 43.421875 47.6005859375 44.0625 593.51953125 66.462890625 615.919921875 c 0
 74.7822265625 624.240234375 90.142578125 631.280273438 99.7421875 631.280273438 c 0
 140.702148438 631.280273438 143.90234375 611.440429688 147.102539062 345.83984375 c 2
 150.302734375 91.759765625 l 1
 186.142578125 98.1591796875 l 2
 205.982421875 101.359375 257.181640625 110.319335938 299.421875 118 c 0
 408.862304688 137.83984375 458.142578125 135.919921875 481.822265625 112.240234375 c 0
 492.702148438 101.359375 501.662109375 84.080078125 501.662109375 73.83984375 c 0
 501.662109375 48.240234375 456.221679688 14.3193359375 422.942382812 14.3193359375 c 0
 408.221679688 14.3193359375 337.822265625 5.359375 266.782226562 -5.5205078125 c 0
 92.0625 -31.759765625 84.3818359375 -31.1201171875 65.822265625 4.080078125 c 0
EndSplineSet
Validated: 33
EndChar

StartChar: M
Encoding: 77 77 12
Width: 812
VWidth: 0
Flags: HW
LayerCount: 2
Fore
SplineSet
89.798828125 29.6796875 m 0
 75.7177734375 43.759765625 73.798828125 464.239257812 87.8779296875 500.71875 c 0
 101.318359375 536.559570312 130.758789062 549.359375 166.598632812 534.639648438 c 0
 194.118164062 523.119140625 297.158203125 408.559570312 361.158203125 317.6796875 c 0
 377.158203125 295.279296875 392.517578125 276.71875 395.078125 276.71875 c 0
 397.638671875 276.71875 412.358398438 301.6796875 427.078125 331.759765625 c 0
 478.91796875 438 560.198242188 566 582.598632812 576.239257812 c 0
 613.958984375 590.959960938 651.078125 571.759765625 667.078125 532.71875 c 0
 674.118164062 515.439453125 693.958984375 405.359375 710.598632812 287.599609375 c 0
 743.23828125 59.759765625 742.598632812 36.0791015625 700.998046875 22.6396484375 c 0
 651.078125 6.6396484375 622.91796875 72.5595703125 595.3984375 271.599609375 c 0
 588.998046875 318.959960938 580.038085938 361.19921875 576.198242188 365.6796875 c 0
 572.358398438 370.16015625 547.3984375 330.479492188 520.517578125 278 c 0
 433.478515625 109.0390625 384.198242188 102 283.078125 241.51953125 c 0
 263.23828125 269.0390625 228.677734375 313.19921875 206.91796875 340.71875 c 2
 167.23828125 390.639648438 l 1
 160.198242188 221.0390625 l 2
 156.358398438 127.599609375 149.318359375 43.759765625 144.198242188 34.7998046875 c 0
 133.958984375 15.599609375 106.438476562 13.0390625 89.798828125 29.6796875 c 0
EndSplineSet
Validated: 33
EndChar

StartChar: question
Encoding: 63 63 13
Width: 539
VWidth: 0
Flags: HW
LayerCount: 2
Fore
SplineSet
277.3203125 867 m 4
 412.840820312 867.880859375 488.520507812 808.040039062 499.9609375 689.240234375 c 4
 511.400390625 573.081054688 411.9609375 441.9609375 287 405 c 4
 231.560546875 389.16015625 229.799804688 386.520507812 221 328.440429688 c 4
 212.200195312 268.599609375 182.280273438 220.200195312 154.120117188 220.200195312 c 4
 146.200195312 220.200195312 127.720703125 228.120117188 114.520507812 237.799804688 c 4
 93.400390625 253.640625 90.7607421875 269.48046875 93.400390625 347.799804688 c 4
 96.919921875 455.16015625 110.120117188 476.28125 196.360351562 505.3203125 c 4
 263.240234375 528.200195312 282.600585938 541.400390625 322.200195312 593.3203125 c 4
 353 633.799804688 358.280273438 689.240234375 334.520507812 713 c 4
 313.400390625 734.120117188 228.919921875 731.48046875 178.760742188 707.720703125 c 4
 155 696.28125 130.360351562 671.640625 121.560546875 650.520507812 c 4
 93.400390625 582.760742188 32.6796875 610.040039062 32.6796875 691 c 4
 32.6796875 786.919921875 142.6796875 866.120117188 277.3203125 867 c 4
155 118.120117188 m 4
 180.520507812 118.120117188 222.760742188 71.48046875 222.760742188 42.4404296875 c 4
 222.760742188 9.880859375 179.640625 -34.119140625 147.080078125 -34.119140625 c 4
 133 -34.119140625 110.120117188 -22.6796875 96.0400390625 -8.599609375 c 4
 81.9609375 5.48046875 70.5205078125 28.3603515625 70.5205078125 41.560546875 c 4
 70.5205078125 67.9609375 125.9609375 118.120117188 155 118.120117188 c 4
EndSplineSet
Validated: 33
EndChar

StartChar: N
Encoding: 78 78 14
Width: 803
VWidth: 0
Flags: HW
LayerCount: 2
Fore
SplineSet
601.303710938 21.5205078125 m 0
 581.463867188 33.6796875 502.103515625 103.439453125 425.303710938 176.399414062 c 0
 348.50390625 249.360351562 262.103515625 329.360351562 234.583984375 352.399414062 c 2
 184.0234375 394.639648438 l 1
 189.14453125 226.3203125 l 2
 194.903320312 42.6396484375 187.86328125 10 142.423828125 10 c 0
 107.86328125 10 92.50390625 55.439453125 92.50390625 158.479492188 c 0
 92.50390625 202 87.3837890625 301.83984375 80.984375 379.919921875 c 0
 74.583984375 458 72.0234375 532.239257812 75.2236328125 545.040039062 c 0
 78.423828125 557.83984375 95.0634765625 575.120117188 112.984375 582.16015625 c 0
 150.103515625 597.520507812 196.82421875 579.599609375 232.0234375 536.079101562 c 0
 242.903320312 522.639648438 294.744140625 474 345.944335938 429.200195312 c 0
 397.14453125 384.399414062 473.303710938 314.639648438 514.903320312 274.959960938 c 2
 590.423828125 202.639648438 l 1
 584.0234375 246.799804688 l 2
 560.34375 417.040039062 552.6640625 561.040039062 565.463867188 592.399414062 c 0
 585.303710938 639.759765625 618.583984375 648.079101562 649.944335938 611.599609375 c 0
 678.103515625 578.959960938 678.744140625 573.200195312 703.703125 346 c 0
 736.984375 36.8798828125 737.624023438 59.279296875 705.624023438 27.279296875 c 0
 671.703125 -6.6396484375 649.303710938 -7.9208984375 601.303710938 21.5205078125 c 0
EndSplineSet
Validated: 33
EndChar

StartChar: O
Encoding: 79 79 15
Width: 764
VWidth: 0
Flags: HW
LayerCount: 2
Fore
SplineSet
351.658203125 658.479492188 m 0
 460.458007812 658.479492188 560.938476562 596.399414062 642.21875 478 c 0
 677.418945312 426.799804688 687.018554688 399.279296875 692.137695312 344.239257812 c 0
 699.818359375 257.19921875 664.618164062 156.079101562 607.018554688 98.4794921875 c 0
 535.337890625 26.7998046875 366.377929688 -16.0810546875 265.8984375 12.0791015625 c 0
 197.418945312 31.279296875 112.297851562 120.87890625 89.2587890625 198.958984375 c 0
 48.2978515625 337.83984375 75.818359375 462.639648438 169.258789062 561.83984375 c 0
 237.098632812 634.159179688 283.818359375 658.479492188 351.658203125 658.479492188 c 0
352.938476562 527.918945312 m 0
 300.458007812 531.119140625 250.538085938 515.119140625 222.377929688 483.119140625 c 0
 160.938476562 414.639648438 146.858398438 293.0390625 192.297851562 218.159179688 c 0
 243.498046875 133.0390625 318.377929688 108.71875 427.177734375 141.359375 c 0
 521.258789062 169.51953125 579.498046875 264.87890625 555.177734375 350 c 0
 538.538085938 406.958984375 454.698242188 501.6796875 405.418945312 517.6796875 c 0
 388.137695312 523.439453125 370.21875 526.639648438 352.938476562 527.918945312 c 0
EndSplineSet
Validated: 33
EndChar

StartChar: P
Encoding: 80 80 16
Width: 542
VWidth: 0
Flags: HW
LayerCount: 2
Fore
SplineSet
226.060546875 661.83984375 m 0
 363.661132812 669.51953125 501.900390625 562.639648438 491.020507812 428.879882812 c 0
 481.419921875 311.760742188 344.4609375 204.879882812 224.780273438 220.879882812 c 0
 190.861328125 225.360351562 188.30078125 224.080078125 192.140625 204.879882812 c 0
 219.020507812 70.4794921875 197.900390625 -17.2001953125 145.419921875 12.240234375 c 0
 120.4609375 26.3193359375 91.6611328125 133.83984375 69.2607421875 298.959960938 c 0
 34.701171875 549.200195312 43.0205078125 592.080078125 132.620117188 636.879882812 c 0
 162.701171875 651.600585938 194.060546875 659.919921875 226.060546875 661.83984375 c 0
199.8203125 551.760742188 m 0
 189.580078125 551.120117188 179.340820312 549.200195312 169.100585938 546.639648438 c 0
 148.620117188 540.879882812 146.701171875 536.400390625 151.180664062 505.040039062 c 0
 154.380859375 485.200195312 162.060546875 432.719726562 168.4609375 387.919921875 c 0
 181.260742188 296.400390625 175.500976562 298.959960938 267.661132812 338 c 0
 316.30078125 358.479492188 359.180664062 397.51953125 368.780273438 430.16015625 c 0
 377.740234375 460.879882812 340.620117188 512.719726562 293.260742188 533.83984375 c 0
 261.260742188 548.560546875 230.541015625 554.319335938 199.8203125 551.760742188 c 0
EndSplineSet
Validated: 33
EndChar

StartChar: Q
Encoding: 81 81 17
Width: 611
VWidth: 0
Flags: HW
LayerCount: 2
Fore
SplineSet
249.930664062 611.600585938 m 2
 249.930664062 611.600585938 l 2
 294.73046875 613.520507812 353.611328125 602 380.491210938 582.80078125 c 0
 425.930664062 550.16015625 494.411132812 450.9609375 511.69140625 394 c 0
 535.37109375 314 525.771484375 203.920898438 489.291015625 135.440429688 c 0
 480.331054688 118.16015625 482.250976562 111.12109375 503.37109375 91.2802734375 c 0
 554.571289062 43.2802734375 571.2109375 -16.87890625 537.291015625 -34.7998046875 c 0
 514.890625 -46.9599609375 516.811523438 -46.9599609375 492.491210938 -33.51953125 c 0
 481.611328125 -27.759765625 458.571289062 -9.83984375 441.930664062 6.16015625 c 0
 411.8515625 34.3203125 410.571289062 34.9609375 381.130859375 19.6005859375 c 0
 335.69140625 -4.0791015625 246.090820312 -0.2392578125 192.971679688 26.640625 c 0
 144.331054688 50.9609375 82.2509765625 130.9609375 65.611328125 189.83984375 c 0
 50.2509765625 244.879882812 53.451171875 340.879882812 73.9306640625 405.520507812 c 0
 95.69140625 476.560546875 174.411132812 590.48046875 210.890625 604.560546875 c 0
 221.130859375 608.400390625 235.2109375 610.9609375 249.930664062 611.600585938 c 2
278.090820312 514.9609375 m 0
 226.250976562 514.9609375 205.771484375 498.3203125 171.8515625 429.83984375 c 0
 144.331054688 373.520507812 139.2109375 352.400390625 139.2109375 294.16015625 c 0
 139.2109375 235.280273438 143.05078125 218.640625 166.090820312 182.80078125 c 0
 181.451171875 159.760742188 208.331054688 132.879882812 225.611328125 122 c 0
 257.611328125 102.16015625 324.811523438 95.7607421875 334.411132812 111.12109375 c 0
 337.611328125 115.600585938 331.8515625 130.9609375 320.971679688 144.400390625 c 0
 288.331054688 186 280.651367188 214.80078125 297.291015625 238.48046875 c 0
 316.491210938 266 332.491210938 265.360351562 369.611328125 234 c 0
 386.250976562 219.920898438 402.890625 210.9609375 406.73046875 214.80078125 c 0
 410.571289062 218.640625 415.05078125 249.360351562 416.971679688 283.920898438 c 0
 420.171875 333.83984375 416.331054688 355.600585938 400.331054688 388.879882812 c 0
 370.250976562 450.9609375 308.171875 514.9609375 278.090820312 514.9609375 c 0
EndSplineSet
Validated: 33
EndChar

StartChar: R
Encoding: 82 82 18
Width: 644
VWidth: 0
Flags: HW
LayerCount: 2
Fore
SplineSet
236.928710938 658 m 4
 377.088867188 658 480.12890625 577.359375 480.76953125 468.559570312 c 4
 480.76953125 414.16015625 467.969726562 391.120117188 400.76953125 322 c 4
 370.048828125 290.639648438 347.649414062 263.120117188 350.208984375 260.559570312 c 4
 352.76953125 258 391.809570312 234.3203125 437.249023438 208.079101562 c 4
 545.409179688 144.719726562 562.689453125 131.919921875 578.689453125 101.83984375 c 4
 589.569335938 80.7197265625 588.928710938 71.759765625 573.569335938 48.7197265625 c 4
 547.969726562 9.6796875 503.169921875 19.279296875 389.888671875 87.1201171875 c 4
 279.169921875 153.0390625 264.44921875 160.719726562 226.689453125 169.6796875 c 6
 196.609375 176.719726562 l 5
 196.609375 113.359375 l 6
 196.609375 73.6796875 190.208984375 41.0390625 179.329101562 25.6796875 c 4
 158.849609375 -3.7607421875 150.529296875 -4.400390625 127.489257812 21.19921875 c 4
 105.728515625 45.51953125 91.009765625 114.639648438 76.9287109375 264.399414062 c 4
 58.369140625 463.439453125 53.2490234375 575.439453125 62.208984375 586.959960938 c 4
 66.689453125 592.719726562 90.369140625 611.279296875 114.689453125 627.919921875 c 4
 152.44921875 653.51953125 170.369140625 658 236.928710938 658 c 4
160.76953125 551.759765625 m 5
 168.44921875 471.120117188 l 6
 178.048828125 365.51953125 185.728515625 307.919921875 192.12890625 307.919921875 c 4
 194.689453125 307.919921875 210.689453125 314.959960938 227.329101562 323.279296875 c 4
 280.44921875 350.799804688 351.489257812 436.559570312 347.649414062 468.559570312 c 4
 342.529296875 510.16015625 298.369140625 537.6796875 224.76953125 545.359375 c 6
 160.76953125 551.759765625 l 5
EndSplineSet
Validated: 33
EndChar

StartChar: S
Encoding: 83 83 19
Width: 620
VWidth: 0
Flags: HW
LayerCount: 2
Fore
SplineSet
214.923828125 21.5205078125 m 2
 118.923828125 65.0400390625 67.083984375 125.200195312 67.083984375 191.120117188 c 0
 67.083984375 241.040039062 98.4443359375 260.239257812 127.884765625 228.239257812 c 0
 192.524414062 158.479492188 208.524414062 145.040039062 249.484375 129.6796875 c 0
 291.724609375 113.6796875 297.484375 113.6796875 340.364257812 129.6796875 c 0
 414.604492188 157.83984375 438.923828125 182.16015625 438.923828125 228.879882812 c 0
 438.923828125 258.959960938 431.244140625 278.16015625 407.564453125 305.040039062 c 0
 373.004882812 344.719726562 349.32421875 354.3203125 227.083984375 379.279296875 c 0
 140.684570312 396.559570312 84.3642578125 423.439453125 67.083984375 456.079101562 c 0
 61.32421875 466.3203125 56.8447265625 495.759765625 56.8447265625 520.719726562 c 0
 56.8447265625 568.079101562 82.4443359375 602.639648438 137.484375 630.799804688 c 0
 181.64453125 653.200195312 282.763671875 664.079101562 341.004882812 651.919921875 c 0
 419.724609375 635.279296875 462.604492188 582.16015625 431.884765625 538.639648438 c 0
 418.444335938 519.439453125 409.484375 517.520507812 378.124023438 522.639648438 c 0
 291.083984375 537.360351562 215.564453125 539.919921875 186.763671875 529.040039062 c 0
 141.963867188 511.759765625 163.724609375 500.239257812 266.124023438 488.079101562 c 0
 413.32421875 470.16015625 488.844726562 427.279296875 538.124023438 330 c 0
 588.684570312 231.439453125 560.524414062 118.799804688 472.844726562 63.1201171875 c 0
 417.8046875 27.919921875 337.8046875 1.0400390625 289.8046875 1.6796875 c 0
 272.524414062 1.6796875 238.604492188 10.6396484375 214.923828125 21.5205078125 c 2
 214.923828125 21.5205078125 l 2
EndSplineSet
Validated: 33
EndChar

StartChar: T
Encoding: 84 84 20
Width: 701
VWidth: 0
Flags: HW
LayerCount: 2
Fore
SplineSet
331.396484375 29.359375 m 2
 321.157226562 54.9599609375 298.1171875 353.19921875 298.1171875 464.559570312 c 2
 298.1171875 527.919921875 l 1
 195.076171875 520.239257812 l 2
 122.756835938 515.120117188 82.4365234375 516.399414062 60.0361328125 525.359375 c 0
 6.9169921875 547.120117188 4.9970703125 588.719726562 55.556640625 611.759765625 c 0
 90.7568359375 627.759765625 343.556640625 655.919921875 482.436523438 659.120117188 c 0
 574.596679688 661.6796875 592.516601562 659.120117188 612.356445312 641.19921875 c 0
 641.157226562 614.959960938 641.157226562 578.48046875 613.63671875 553.51953125 c 0
 593.157226562 534.959960938 556.036132812 529.19921875 444.676757812 526.639648438 c 2
 401.157226562 526 l 1
 414.596679688 300.719726562 l 2
 429.95703125 39.599609375 424.836914062 4.3994140625 372.997070312 4.3994140625 c 0
 349.95703125 4.3994140625 338.436523438 11.439453125 331.396484375 28.7197265625 c 2
 331.396484375 29.359375 l 2
EndSplineSet
Validated: 33
EndChar

StartChar: U
Encoding: 85 85 21
Width: 665
VWidth: 0
Flags: HW
LayerCount: 2
Fore
SplineSet
308.02734375 17.0400390625 m 0
 199.8671875 46.48046875 124.34765625 141.83984375 83.3876953125 301.200195312 c 0
 46.9072265625 443.280273438 56.5068359375 613.51953125 101.948242188 630.80078125 c 0
 139.70703125 645.51953125 153.788085938 609.6796875 162.107421875 475.919921875 c 0
 171.067382812 326.80078125 206.907226562 228.879882812 272.1875 171.280273438 c 0
 348.34765625 104.719726562 404.666992188 114.3203125 447.547851562 202 c 0
 472.506835938 253.200195312 474.427734375 269.83984375 474.427734375 442 c 0
 474.427734375 612.240234375 476.34765625 628.879882812 496.827148438 643.600585938 c 0
 525.627929688 664.719726562 532.666992188 664.080078125 558.907226562 637.83984375 c 0
 595.387695312 601.359375 607.547851562 530.3203125 603.067382812 370.959960938 c 0
 599.8671875 246.80078125 594.748046875 213.51953125 572.987304688 166.16015625 c 0
 540.34765625 93.83984375 475.067382812 26.640625 423.8671875 12.5595703125 c 0
 375.227539062 -0.8798828125 374.587890625 -0.8798828125 308.02734375 17.0400390625 c 0
EndSplineSet
Validated: 33
EndChar

StartChar: V
Encoding: 86 86 22
Width: 747
VWidth: 0
Flags: HW
LayerCount: 2
Fore
SplineSet
350.766601562 22.16015625 m 0
 297.645507812 55.4404296875 273.965820312 84.240234375 144.685546875 279.440429688 c 0
 23.0859375 463.120117188 -1.8740234375 522.639648438 30.7666015625 555.280273438 c 0
 71.7255859375 596.240234375 83.24609375 585.360351562 325.805664062 238.479492188 c 2
 384.045898438 155.280273438 l 1
 462.766601562 366.479492188 l 2
 506.286132812 482.319335938 553.005859375 592.400390625 565.805664062 610.959960938 c 0
 606.125976562 667.919921875 673.325195312 650 673.325195312 582.16015625 c 0
 673.325195312 547.600585938 515.24609375 115.600585938 481.325195312 58 c 0
 464.685546875 29.2001953125 419.885742188 -0.8798828125 395.56640625 -0.8798828125 c 0
 391.0859375 -0.8798828125 370.606445312 10 350.766601562 22.16015625 c 0
EndSplineSet
Validated: 33
EndChar

StartChar: W
Encoding: 87 87 23
Width: 779
VWidth: 0
Flags: HW
LayerCount: 2
Fore
SplineSet
177.514648438 12.6396484375 m 4
 155.754882812 21.599609375 139.754882812 65.759765625 77.6748046875 295.520507812 c 4
 13.6748046875 531.040039062 12.39453125 550.879882812 55.275390625 557.280273438 c 4
 65.5146484375 559.200195312 83.435546875 550.239257812 94.955078125 538.080078125 c 4
 116.71484375 514.399414062 160.235351562 390.879882812 196.71484375 248.16015625 c 6
 218.474609375 162.399414062 l 5
 253.03515625 222.559570312 l 6
 315.754882812 332 369.514648438 331.360351562 462.314453125 220 c 4
 493.03515625 182.879882812 523.115234375 150.879882812 529.514648438 148.3203125 c 4
 542.955078125 143.200195312 548.71484375 170.080078125 563.435546875 335.83984375 c 4
 576.875 483.680664062 580.71484375 505.439453125 603.115234375 529.120117188 c 4
 624.875 552.16015625 626.154296875 553.439453125 650.474609375 540 c 4
 682.474609375 522.719726562 687.594726562 475.360351562 674.154296875 323.680664062 c 4
 653.674804688 99.0400390625 638.955078125 44.6396484375 590.314453125 19.6806640625 c 4
 541.674804688 -5.2802734375 509.03515625 10.080078125 420.71484375 99.6806640625 c 6
 341.354492188 180.959960938 l 5
 305.514648438 112.48046875 l 6
 258.154296875 22.2392578125 222.314453125 -5.2802734375 177.514648438 12.6396484375 c 4
EndSplineSet
Validated: 33
EndChar

StartChar: X
Encoding: 88 88 24
Width: 719
VWidth: 0
Flags: HW
LayerCount: 2
Fore
SplineSet
451.185546875 103.119140625 m 6
 343.665039062 206.799804688 l 5
 295.025390625 147.919921875 l 6
 213.10546875 48.7197265625 170.225585938 12.240234375 135.665039062 12.240234375 c 4
 99.185546875 12.240234375 75.5048828125 31.439453125 75.5048828125 60.8798828125 c 4
 75.5048828125 71.759765625 110.705078125 124.879882812 153.5859375 179.279296875 c 4
 196.46484375 233.6796875 236.78515625 283.599609375 242.544921875 290.639648438 c 4
 248.9453125 299.599609375 222.065429688 337.360351562 165.10546875 399.439453125 c 4
 66.544921875 506.959960938 48.625 548.560546875 86.3857421875 579.279296875 c 4
 122.225585938 608.080078125 148.46484375 595.919921875 245.10546875 505.6796875 c 4
 293.10546875 460.879882812 334.705078125 424.400390625 337.905273438 424.400390625 c 4
 341.10546875 424.400390625 381.42578125 471.759765625 427.504882812 530 c 4
 473.5859375 588.240234375 522.225585938 642 535.665039062 649.040039062 c 4
 570.865234375 668.240234375 615.665039062 653.51953125 623.985351562 620.240234375 c 4
 632.9453125 584.400390625 619.504882812 560.080078125 520.3046875 434 c 6
 439.025390625 330.319335938 l 5
 530.544921875 229.83984375 l 6
 634.865234375 115.919921875 655.344726562 83.279296875 650.225585938 38.4794921875 c 4
 647.025390625 10.9599609375 640.625 5.83984375 602.865234375 2.6396484375 c 4
 561.905273438 -0.560546875 551.665039062 6.4794921875 451.185546875 103.119140625 c 6
EndSplineSet
Validated: 33
EndChar

StartChar: Y
Encoding: 89 89 25
Width: 732
VWidth: 0
Flags: HW
LayerCount: 2
Fore
SplineSet
354.107421875 14.48046875 m 0
 334.267578125 30.48046875 330.427734375 47.759765625 325.947265625 141.200195312 c 0
 321.467773438 242.959960938 318.907226562 250.640625 290.107421875 276.240234375 c 0
 273.467773438 290.959960938 208.1875 364.559570312 144.828125 438.80078125 c 0
 25.787109375 577.6796875 9.1474609375 612.879882812 50.7470703125 635.280273438 c 0
 85.3076171875 653.83984375 124.34765625 625.6796875 248.5078125 494.48046875 c 2
 361.787109375 374.80078125 l 1
 456.5078125 503.440429688 l 2
 554.427734375 635.919921875 583.227539062 661.51953125 628.02734375 655.120117188 c 0
 648.5078125 651.919921875 654.907226562 643.600585938 657.467773438 615.440429688 c 0
 660.66796875 584.719726562 645.307617188 557.83984375 554.427734375 431.120117188 c 2
 447.546875 282 l 1
 446.907226562 168.080078125 l 2
 446.267578125 49.0400390625 435.38671875 11.2802734375 396.34765625 1.0400390625 c 0
 385.467773438 -1.51953125 366.907226562 4.240234375 354.107421875 14.48046875 c 0
EndSplineSet
Validated: 33
EndChar

StartChar: Z
Encoding: 90 90 26
Width: 768
VWidth: 0
Flags: HW
LayerCount: 2
Fore
SplineSet
164.923828125 10.9599609375 m 0
 156.603515625 15.4404296875 149.563476562 35.2802734375 149.563476562 53.83984375 c 0
 149.563476562 79.4404296875 161.723632812 99.2802734375 197.563476562 136.399414062 c 0
 279.483398438 220.240234375 494.5234375 516.559570312 479.803710938 526.16015625 c 0
 472.763671875 530.640625 393.404296875 534.48046875 303.803710938 534.48046875 c 0
 132.283203125 534.48046875 93.8837890625 541.51953125 75.3232421875 576.080078125 c 0
 66.36328125 592.080078125 68.283203125 602.3203125 83.6435546875 620.879882812 c 0
 100.923828125 642 118.204101562 646.48046875 230.84375 655.440429688 c 0
 301.244140625 661.19921875 413.883789062 662.48046875 481.723632812 658 c 0
 592.443359375 650.959960938 607.163085938 647.759765625 630.84375 624.080078125 c 0
 651.323242188 603.599609375 656.443359375 590.16015625 651.962890625 563.280273438 c 0
 641.723632812 499.280273438 565.563476562 387.919921875 397.244140625 190.16015625 c 2
 349.244140625 133.83984375 l 1
 446.5234375 141.51953125 l 2
 618.68359375 154.959960938 698.043945312 131.280273438 698.043945312 67.2802734375 c 0
 698.043945312 16.080078125 669.883789062 9.6796875 415.163085938 5.83984375 c 0
 285.883789062 3.919921875 173.244140625 6.48046875 164.923828125 10.9599609375 c 0
EndSplineSet
Validated: 33
EndChar

StartChar: period
Encoding: 46 46 27
Width: 281
VWidth: 0
Flags: HW
LayerCount: 2
Fore
SplineSet
71 29 m 0
 7 93 55 184 147 175 c 0
 260 164 248 1 134 0 c 0
 116 0 87 13 71 29 c 0
EndSplineSet
Validated: 33
EndChar

StartChar: dollar
Encoding: 36 36 28
Width: 648
VWidth: 0
Flags: HW
LayerCount: 2
Fore
SplineSet
273.681640625 900.063476562 m 2
 273.68359375 899.958984375 l 2
 296.395507812 899.931640625 319.106445312 894.331054688 333.889648438 883.384765625 c 0
 353.565429688 868.78515625 354.702148438 862.677734375 342.033203125 841.938476562 c 0
 333.841796875 828.5234375 327.200195312 798.646484375 327.200195312 775.626953125 c 0
 327.200195312 735.151367188 328.705078125 733.787109375 371.844726562 733.745117188 c 0
 427.353515625 733.685546875 497.21484375 693.540039062 491.52734375 664.959960938 c 0
 487.223632812 643.34765625 460.962890625 641.602539062 371.844726562 657.108398438 c 0
 335.8984375 663.383789062 327.200195312 661.245117188 327.200195312 646.217773438 c 0
 327.200195312 634.69921875 345.749023438 621.979492188 375.48046875 613.059570312 c 0
 442.813476562 592.887695312 494 531.95703125 494 472 c 0
 494 412.60546875 476.21484375 401.506835938 452.990234375 446.419921875 c 0
 432.716796875 485.625976562 380.26953125 531.346679688 355.412109375 531.346679688 c 0
 343.336914062 531.346679688 339.125 511.327148438 339.125 453.837890625 c 2
 339.125 376.47265625 l 1
 382.024414062 376.47265625 l 2
 440.495117188 376.47265625 494.716796875 348.263671875 526.57421875 301.434570312 c 0
 566.96484375 242.059570312 571.625 197.208984375 543.880859375 134.48828125 c 0
 519.47265625 79.3095703125 472.24609375 44.8447265625 395.6953125 26.4404296875 c 0
 377.67578125 22.107421875 362.975585938 11.30078125 362.975585938 2.4365234375 c 0
 362.975585938 -14.265625 317.154296875 -123.936523438 310.186523438 -123.936523438 c 0
 308.01953125 -123.936523438 300.219726562 -116.506835938 292.736328125 -107.501953125 c 0
 285.255859375 -98.48828125 272.513671875 -63.6220703125 264.524414062 -29.9931640625 c 0
 254.284179688 13.126953125 243.026367188 33.4453125 226.133789062 38.7919921875 c 0
 183.423828125 52.28515625 127.334960938 102.567382812 106.741210938 145.969726562 c 0
 85.103515625 191.56640625 91.12890625 298.280273438 114.884765625 290.372070312 c 0
 121.66015625 288.115234375 140.404296875 254.275390625 156.62109375 215.190429688 c 0
 183.991210938 149.234375 210.799804688 114.412109375 234.130859375 114.412109375 c 0
 239.43359375 114.412109375 243.73046875 151.274414062 243.73046875 196.428710938 c 0
 243.73046875 276.096679688 242.802734375 278.826171875 211.009765625 286.592773438 c 0
 155.943359375 300.0390625 93.2451171875 351.170898438 70.822265625 400.893554688 c 0
 53.0263671875 440.358398438 51.68359375 455.57421875 62.96875 493.237304688 c 0
 79.6728515625 548.990234375 128.577148438 597.055664062 189.922851562 618.301757812 c 0
 215.567382812 627.185546875 238.55078125 640.75 241.111328125 648.404296875 c 0
 247.529296875 667.737304688 184.91015625 666.38671875 135.098632812 646.153320312 c 0
 90.826171875 628.162109375 65.150390625 631.969726562 65.150390625 656.62109375 c 0
 65.150390625 685.06640625 131.306640625 721.9140625 182.361328125 721.9140625 c 0
 229.294921875 721.9140625 230.561523438 723.090820312 234.276367188 766.706054688 c 0
 236.97265625 798.319335938 231.00390625 819.481445312 214.0625 839.124023438 c 0
 190.404296875 866.576171875 190.477539062 867.053710938 213.331054688 883.76953125 c 0
 228.237304688 894.688476562 250.96875 900.108398438 273.681640625 900.063476562 c 2
210.859375 530.98046875 m 0
 199.663085938 530.916015625 185.131835938 521.404296875 166.654296875 502.915039062 c 0
 128.32421875 464.586914062 128.91796875 453.826171875 171.44921875 411.296875 c 0
 229.1171875 353.627929688 246.466796875 363.423828125 241.833984375 450.8515625 c 0
 238.96875 505.005859375 229.525390625 531.0703125 210.859375 530.98046875 c 0
347.556640625 283.036132812 m 1
 355.262695312 226.731445312 l 2
 359.500976562 195.846679688 362.970703125 160.678710938 362.970703125 148.494140625 c 0
 362.970703125 122.969726562 373.958007812 120.971679688 414.595703125 139.48828125 c 0
 430.564453125 146.765625 450.64453125 165.73046875 459.094726562 181.517578125 c 0
 472.422851562 206.418945312 471.1875 214.53515625 450.224609375 242.73828125 c 0
 434.184570312 264.322265625 412.88671875 276.563476562 386.8203125 279.095703125 c 2
 347.556640625 283.036132812 l 1
EndSplineSet
Validated: 33
EndChar

StartChar: exclam
Encoding: 33 33 29
Width: 401
VWidth: 0
Flags: HW
LayerCount: 2
Fore
SplineSet
228.799804688 872.6796875 m 4
 249.919921875 873.559570312 271.919921875 867.400390625 283.359375 853.3203125 c 4
 300.958984375 832.200195312 299.200195312 795.239257812 264 467 c 4
 249.919921875 335.879882812 237.599609375 277.799804688 220.879882812 254.919921875 c 4
 190.958984375 214.439453125 177.759765625 210.919921875 146.958984375 233.799804688 c 4
 124.958984375 249.639648438 122.3203125 265.479492188 124.958984375 352.599609375 c 4
 130.240234375 504.83984375 165.440429688 819.879882812 180.399414062 848.0390625 c 4
 188.3203125 863 207.6796875 871.799804688 228.799804688 872.6796875 c 4
182.159179688 137 m 4
 199.759765625 135.239257812 215.599609375 125.559570312 230.559570312 109.720703125 c 4
 266.640625 71 263.120117188 28.759765625 222.640625 -2.919921875 c 4
 177.759765625 -38.1201171875 146.958984375 -36.3603515625 108.240234375 2.359375 c 4
 61.599609375 49 66.8798828125 93 124.079101562 122.919921875 c 4
 145.200195312 134.359375 164.559570312 138.759765625 182.159179688 137 c 4
EndSplineSet
Validated: 33
EndChar

StartChar: a
Encoding: 97 97 30
Width: 491
VWidth: 0
Flags: HW
LayerCount: 2
Fore
SplineSet
199.709960938 661.439453125 m 0
 204.190429688 661.439453125 209.310546875 660.799804688 213.791015625 658.879882812 c 0
 253.470703125 644.799804688 294.430664062 568.639648438 382.75 344 c 0
 474.270507812 111.6796875 480.030273438 87.359375 455.0703125 57.2802734375 c 0
 426.270507812 22.7197265625 395.549804688 46.3994140625 352.030273438 133.439453125 c 2
 315.549804688 207.0390625 l 1
 229.150390625 203.83984375 l 2
 181.791015625 201.919921875 139.549804688 199.359375 136.350585938 197.439453125 c 0
 133.150390625 195.51953125 124.831054688 165.439453125 118.430664062 131.51953125 c 0
 101.150390625 44.48046875 83.8701171875 6.080078125 60.8310546875 6.080078125 c 0
 50.5908203125 6.080078125 36.5107421875 12.48046875 29.470703125 20.7998046875 c 0
 13.470703125 40.6396484375 26.91015625 127.6796875 83.8701171875 361.280273438 c 0
 107.549804688 457.919921875 129.310546875 556.48046875 133.150390625 580.16015625 c 0
 140.831054688 631.359375 167.709960938 663.359375 199.709960938 661.439453125 c 0
206.75 477.759765625 m 0
 202.91015625 477.759765625 192.030273438 443.19921875 182.430664062 401.599609375 c 0
 172.831054688 360 163.23046875 319.6796875 160.030273438 312.639648438 c 0
 155.549804688 302.399414062 166.430664062 300.48046875 212.510742188 306.239257812 c 0
 243.870117188 310.080078125 271.390625 314.559570312 272.670898438 315.19921875 c 0
 277.150390625 319.0390625 213.150390625 477.759765625 206.75 477.759765625 c 0
EndSplineSet
Validated: 33
EndChar

StartChar: b
Encoding: 98 98 31
Width: 478
VWidth: 0
Flags: HW
LayerCount: 2
Fore
SplineSet
145.328125 657.959960938 m 4
 228.528320312 663.079101562 320.047851562 605.479492188 320.047851562 526.759765625 c 4
 320.047851562 495.399414062 291.887695312 429.479492188 273.328125 417.959960938 c 4
 267.567382812 414.759765625 297.0078125 395.559570312 337.328125 375.71875 c 4
 428.208007812 331.559570312 457.6484375 291.87890625 457.6484375 210.599609375 c 4
 457.6484375 149.799804688 427.567382812 102.439453125 361.6484375 57 c 4
 287.407226562 5.7998046875 224.688476562 -7.640625 145.967773438 10.9189453125 c 4
 81.9677734375 26.279296875 66.607421875 74.279296875 34.607421875 369.959960938 c 4
 11.5673828125 582.439453125 12.2080078125 587.559570312 68.5283203125 630.439453125 c 4
 90.927734375 647.71875 117.807617188 656.0390625 145.328125 657.959960938 c 4
147.248046875 563.87890625 m 4
 126.767578125 564.51953125 108.208007812 562.599609375 106.288085938 560.0390625 c 4
 104.368164062 557.479492188 106.927734375 526.759765625 112.047851562 490.279296875 c 6
 121.6484375 424.359375 l 5
 161.328125 457 l 6
 183.087890625 474.918945312 206.127929688 498.599609375 211.248046875 508.19921875 c 4
 225.967773438 535.079101562 193.967773438 562.599609375 147.248046875 563.87890625 c 4
140.848632812 317.479492188 m 5
 142.127929688 266.918945312 l 6
 142.767578125 239.399414062 145.967773438 188.19921875 149.807617188 153.639648438 c 6
 156.848632812 90.9189453125 l 5
 199.087890625 97.3193359375 l 6
 222.767578125 100.51953125 252.848632812 110.119140625 266.927734375 117.16015625 c 4
 281.0078125 124.19921875 306.607421875 142.759765625 324.528320312 158.119140625 c 4
 361.0078125 190.119140625 368.047851562 235.559570312 340.528320312 259.87890625 c 4
 304.688476562 291.239257812 241.328125 316.19921875 191.407226562 316.83984375 c 6
 140.848632812 317.479492188 l 5
EndSplineSet
Validated: 33
EndChar

StartChar: c
Encoding: 99 99 32
Width: 536
VWidth: 0
Flags: HW
LayerCount: 2
Fore
SplineSet
241.419921875 8.240234375 m 4
 152.459960938 26.16015625 75.66015625 88.8798828125 55.8203125 161.200195312 c 4
 41.740234375 211.759765625 43.0205078125 237.360351562 60.9404296875 323.759765625 c 4
 82.7001953125 426.799804688 127.500976562 510.639648438 203.66015625 590.639648438 c 4
 257.419921875 646.959960938 276.620117188 659.759765625 302.219726562 659.759765625 c 4
 323.98046875 659.759765625 337.419921875 653.360351562 345.100585938 639.279296875 c 4
 358.540039062 613.6796875 354.700195312 606.639648438 291.340820312 540.720703125 c 4
 201.100585938 446.639648438 163.340820312 372.400390625 152.459960938 268.080078125 c 4
 144.780273438 195.120117188 155.66015625 170.799804688 212.620117188 142 c 4
 267.020507812 114.479492188 327.180664062 119.599609375 382.219726562 157.360351562 c 4
 445.580078125 200.240234375 489.740234375 189.360351562 489.740234375 131.759765625 c 4
 489.740234375 58.7998046875 346.379882812 -12.8798828125 241.419921875 8.240234375 c 4
EndSplineSet
Validated: 33
EndChar

StartChar: d
Encoding: 100 100 33
Width: 608
VWidth: 0
Flags: HW
LayerCount: 2
Fore
SplineSet
144.21875 655.360351562 m 4
 154.458984375 655.360351562 166.619140625 654.080078125 182.619140625 652.799804688 c 4
 220.37890625 649.599609375 282.458984375 637.439453125 320.21875 625.919921875 c 4
 379.73828125 608 397.659179688 597.119140625 450.138671875 544 c 4
 540.37890625 452.479492188 571.73828125 348.799804688 541.659179688 240.639648438 c 4
 521.819335938 168.959960938 397.659179688 53.759765625 305.499023438 21.119140625 c 4
 244.05859375 -0.6396484375 155.73828125 -7.0400390625 135.8984375 8.3193359375 c 4
 114.779296875 24.3193359375 96.859375 140.799804688 72.5390625 415.360351562 c 6
 55.2587890625 611.200195312 l 5
 84.05859375 634.879882812 l 6
 103.8984375 650.879882812 114.138671875 656 144.21875 655.360351562 c 4
169.819335938 538.240234375 m 4
 162.138671875 537.599609375 158.298828125 535.6796875 160.21875 533.119140625 c 4
 169.819335938 517.759765625 198.619140625 193.919921875 195.418945312 143.360351562 c 4
 193.499023438 117.119140625 192.859375 95.3603515625 194.779296875 95.3603515625 c 4
 196.05859375 95.3603515625 218.458984375 106.240234375 244.05859375 119.6796875 c 4
 309.338867188 153.599609375 354.779296875 188.799804688 393.1796875 236.799804688 c 4
 423.258789062 275.200195312 425.819335938 282.879882812 421.979492188 333.439453125 c 4
 414.298828125 439.040039062 322.138671875 525.439453125 203.098632812 537.599609375 c 4
 189.01953125 538.879882812 177.499023438 538.879882812 169.819335938 538.240234375 c 4
EndSplineSet
Validated: 33
EndChar

StartChar: e
Encoding: 101 101 34
Width: 504
VWidth: 0
Flags: HW
LayerCount: 2
Fore
SplineSet
58.41796875 27.1591796875 m 0
 36.658203125 55.3193359375 30.8974609375 111 20.658203125 420.119140625 c 0
 13.6181640625 639.639648438 15.5380859375 642.19921875 203.057617188 655 c 0
 324.017578125 663.319335938 367.538085938 655 377.778320312 623 c 0
 396.337890625 564.119140625 348.978515625 539.799804688 213.938476562 539.799804688 c 2
 116.658203125 539.799804688 l 1
 121.778320312 512.918945312 l 2
 124.337890625 498.19921875 130.09765625 455.958984375 133.297851562 418.83984375 c 2
 139.697265625 351.639648438 l 1
 181.938476562 359.958984375 l 2
 262.578125 375.319335938 329.778320312 370.83984375 352.177734375 348.439453125 c 0
 368.177734375 332.439453125 370.73828125 324.119140625 362.41796875 308.119140625 c 0
 346.41796875 278.0390625 319.538085938 267.159179688 224.818359375 255 c 2
 137.778320312 244.119140625 l 1
 137.778320312 178.83984375 l 2
 137.778320312 143 139.057617188 114.19921875 140.337890625 114.19921875 c 0
 141.618164062 114.19921875 177.458007812 123.799804688 219.697265625 134.6796875 c 0
 324.017578125 162.19921875 436.658203125 162.19921875 464.177734375 134.6796875 c 0
 512.818359375 86.0390625 475.697265625 48.279296875 371.377929688 39.3193359375 c 0
 329.778320312 35.4794921875 261.938476562 25.87890625 220.978515625 17.55859375 c 0
 114.09765625 -4.8408203125 82.09765625 -3.560546875 58.41796875 27.1591796875 c 0
EndSplineSet
Validated: 33
EndChar

StartChar: f
Encoding: 102 102 35
Width: 473
VWidth: 0
Flags: HW
LayerCount: 2
Fore
SplineSet
108.841796875 24.2001953125 m 0
 88.361328125 55.5595703125 77.4814453125 119.559570312 53.80078125 352.520507812 c 0
 34.6015625 541.3203125 39.08203125 595.079101562 74.28125 618.120117188 c 0
 126.76171875 652.040039062 365.481445312 669.959960938 403.2421875 642.439453125 c 0
 416.041992188 632.83984375 421.80078125 617.479492188 419.2421875 595.719726562 c 0
 414.76171875 554.759765625 369.9609375 538.120117188 267.561523438 536.83984375 c 0
 156.201171875 535.559570312 144.041992188 529.799804688 151.08203125 482.439453125 c 0
 154.28125 460.6796875 160.041992188 420.360351562 163.881835938 393.479492188 c 2
 170.28125 344.200195312 l 1
 278.44140625 347.399414062 l 2
 375.721679688 350.599609375 388.521484375 348.6796875 409.000976562 328.200195312 c 0
 437.161132812 300.040039062 437.80078125 278.919921875 409.641601562 250.759765625 c 0
 391.08203125 232.200195312 373.161132812 229 284.841796875 229 c 2
 181.80078125 229 l 1
 186.921875 143.879882812 l 2
 192.041992188 53.6396484375 178.6015625 7.5595703125 144.681640625 1.16015625 c 0
 134.44140625 -0.7607421875 118.44140625 9.4794921875 108.841796875 24.2001953125 c 0
EndSplineSet
Validated: 33
EndChar

StartChar: g
Encoding: 103 103 36
Width: 585
VWidth: 0
Flags: HW
LayerCount: 2
Fore
SplineSet
157.6328125 27.0791015625 m 0
 59.712890625 72.51953125 18.75390625 157.639648438 25.79296875 297.16015625 c 0
 29.6328125 365.639648438 36.033203125 391.239257812 63.5537109375 447.559570312 c 0
 101.3125 523.71875 178.11328125 606.918945312 240.833007812 638.918945312 c 0
 318.913085938 678.599609375 415.553710938 660.6796875 446.2734375 600.51953125 c 0
 466.75390625 560.83984375 465.47265625 533.319335938 442.43359375 521.16015625 c 0
 416.193359375 507.079101562 416.833007812 507.079101562 382.2734375 541 c 0
 332.353515625 589.639648438 289.47265625 577.479492188 209.47265625 491.71875 c 0
 143.553710938 421.319335938 119.233398438 363.71875 118.59375 277.319335938 c 0
 117.953125 192.83984375 135.233398438 149.959960938 178.11328125 123.079101562 c 0
 232.512695312 89.7998046875 272.833007812 96.19921875 330.43359375 148.0390625 c 0
 381.6328125 194.119140625 455.233398438 299.71875 428.993164062 289.479492188 c 0
 421.3125 286.279296875 389.953125 281.16015625 359.873046875 277.319335938 c 0
 295.233398438 269 262.59375 281.799804688 262.59375 315.71875 c 0
 262.59375 360.51953125 315.712890625 384.19921875 441.79296875 397 c 0
 499.393554688 402.759765625 508.993164062 400.83984375 534.59375 381 c 0
 559.553710938 361.16015625 562.75390625 354.119140625 558.2734375 320.19921875 c 0
 547.393554688 238.279296875 417.47265625 68.6796875 330.43359375 21.9599609375 c 0
 284.353515625 -2.3603515625 217.153320312 -0.4404296875 157.6328125 27.0791015625 c 0
EndSplineSet
Validated: 33
EndChar

StartChar: h
Encoding: 104 104 37
Width: 749
VWidth: 0
Flags: HW
LayerCount: 2
Fore
SplineSet
577.66015625 33.359375 m 4
 567.419921875 49.359375 553.33984375 98.6396484375 546.30078125 144.080078125 c 6
 533.5 226 l 5
 485.5 220.879882812 l 6
 459.260742188 218.319335938 391.419921875 212.559570312 335.100585938 208.719726562 c 6
 232.700195312 201.6796875 l 5
 232.700195312 146 l 6
 232.700195312 16.080078125 179.580078125 -27.4404296875 137.98046875 67.2802734375 c 4
 114.940429688 119.759765625 68.2197265625 437.200195312 68.2197265625 542.799804688 c 4
 68.2197265625 607.440429688 88.060546875 632.400390625 130.940429688 621.51953125 c 4
 166.780273438 612.559570312 181.5 576.080078125 201.33984375 438.479492188 c 4
 213.5 354 220.540039062 327.759765625 233.33984375 330.959960938 c 4
 242.30078125 332.879882812 310.140625 338 383.100585938 341.83984375 c 6
 516.219726562 348.240234375 l 5
 511.100585938 378.959960938 l 6
 508.540039062 395.600585938 496.379882812 455.120117188 484.219726562 512.080078125 c 4
 459.900390625 624.719726562 465.66015625 652.240234375 513.66015625 659.280273438 c 4
 555.260742188 665.6796875 591.100585938 620.879882812 617.98046875 528.719726562 c 4
 671.100585938 346.959960938 699.260742188 60.8798828125 667.260742188 22.4794921875 c 4
 644.219726562 -5.0400390625 599.419921875 0.7197265625 577.66015625 33.359375 c 4
EndSplineSet
Validated: 33
EndChar

StartChar: i
Encoding: 105 105 38
Width: 270
VWidth: 0
Flags: HW
LayerCount: 2
Fore
SplineSet
119.166992188 19.10546875 m 0
 96.654296875 41.6181640625 90.4208984375 61.8134765625 84.98828125 129.83984375 c 0
 81.3330078125 175.602539062 73.2373046875 274.673828125 67 350 c 0
 60.7578125 425.328125 55.65234375 520.375 55.65234375 561.21484375 c 0
 55.65234375 629.831054688 57.83203125 636.4609375 84.2587890625 648.502929688 c 0
 123.677734375 666.471679688 153.166015625 635.55859375 166.998046875 561.76171875 c 0
 184.862304688 466.47265625 204.0234375 206.4609375 200.0625 113.1015625 c 0
 196.8125 36.4521484375 192.934570312 22.18359375 171.501953125 7.9931640625 c 0
 148.834960938 -7.0234375 144.334960938 -6.06640625 119.166992188 19.10546875 c 0
EndSplineSet
Validated: 33
EndChar

StartChar: j
Encoding: 106 106 39
Width: 545
VWidth: 0
Flags: HW
LayerCount: 2
Fore
SplineSet
198.823242188 12.400390625 m 0
 142.502929688 29.6796875 82.34375 98.7998046875 61.22265625 170.479492188 c 0
 47.1435546875 219.120117188 46.5029296875 235.760742188 57.3828125 249.200195312 c 0
 84.2626953125 281.200195312 112.422851562 267.760742188 154.0234375 203.120117188 c 0
 186.663085938 152.560546875 202.0234375 138.479492188 234.0234375 132.719726562 c 0
 343.462890625 112.240234375 374.823242188 210.799804688 356.90234375 528.240234375 c 0
 351.143554688 634.479492188 366.502929688 669.040039062 413.86328125 653.6796875 c 0
 468.90234375 636.400390625 502.18359375 498.799804688 493.86328125 324.080078125 c 0
 489.3828125 224.240234375 482.983398438 198.639648438 450.983398438 134 c 0
 396.583007812 23.2802734375 305.703125 -20.2392578125 198.823242188 12.400390625 c 0
EndSplineSet
Validated: 33
EndChar

StartChar: k
Encoding: 107 107 40
Width: 692
VWidth: 0
Flags: HW
LayerCount: 2
Fore
SplineSet
381.83984375 108.400390625 m 0
 298.639648438 173.040039062 226.3203125 226.16015625 221.83984375 226.16015625 c 0
 217.360351562 226.16015625 213.520507812 185.83984375 213.520507812 136.560546875 c 0
 213.520507812 61.6796875 210.3203125 43.119140625 191.120117188 23.919921875 c 0
 173.200195312 6 164.240234375 4.080078125 145.6796875 13.6796875 c 0
 108.560546875 33.51953125 100.240234375 73.2001953125 81.6796875 347.759765625 c 2
 63.759765625 610.16015625 l 1
 90 631.279296875 l 2
 113.040039062 649.83984375 118.799804688 650.479492188 139.279296875 637.040039062 c 0
 170.639648438 616.560546875 187.919921875 564.080078125 197.520507812 457.83984375 c 2
 205.200195312 370.16015625 l 1
 330 493.040039062 l 2
 454.799804688 615.919921875 500.240234375 644.719726562 537.360351562 621.6796875 c 0
 581.520507812 594.16015625 565.520507812 563.439453125 442 438 c 0
 375.439453125 370.799804688 323.599609375 313.83984375 326.16015625 311.919921875 c 0
 328.720703125 310 369.040039062 282.479492188 415.759765625 251.119140625 c 0
 542.479492188 166 628.240234375 84.7197265625 628.240234375 47.599609375 c 0
 628.240234375 7.919921875 609.040039062 -9.3603515625 566.799804688 -9.3603515625 c 0
 540.560546875 -9.3603515625 497.6796875 18.16015625 381.83984375 108.400390625 c 0
EndSplineSet
Validated: 33
EndChar

StartChar: l
Encoding: 108 108 41
Width: 551
VWidth: 0
Flags: HW
LayerCount: 2
Fore
SplineSet
65.822265625 4.080078125 m 0
 43.421875 47.6005859375 44.0625 593.51953125 66.462890625 615.919921875 c 0
 74.7822265625 624.240234375 90.142578125 631.280273438 99.7421875 631.280273438 c 0
 140.702148438 631.280273438 143.90234375 611.440429688 147.102539062 345.83984375 c 2
 150.302734375 91.759765625 l 1
 186.142578125 98.1591796875 l 2
 205.982421875 101.359375 257.181640625 110.319335938 299.421875 118 c 0
 408.862304688 137.83984375 458.142578125 135.919921875 481.822265625 112.240234375 c 0
 492.702148438 101.359375 501.662109375 84.080078125 501.662109375 73.83984375 c 0
 501.662109375 48.240234375 456.221679688 14.3193359375 422.942382812 14.3193359375 c 0
 408.221679688 14.3193359375 337.822265625 5.359375 266.782226562 -5.5205078125 c 0
 92.0625 -31.759765625 84.3818359375 -31.1201171875 65.822265625 4.080078125 c 0
EndSplineSet
Validated: 33
EndChar

StartChar: m
Encoding: 109 109 42
Width: 812
VWidth: 0
Flags: HW
LayerCount: 2
Fore
SplineSet
89.798828125 29.6796875 m 0
 75.7177734375 43.759765625 73.798828125 464.239257812 87.8779296875 500.71875 c 0
 101.318359375 536.559570312 130.758789062 549.359375 166.598632812 534.639648438 c 0
 194.118164062 523.119140625 297.158203125 408.559570312 361.158203125 317.6796875 c 0
 377.158203125 295.279296875 392.517578125 276.71875 395.078125 276.71875 c 0
 397.638671875 276.71875 412.358398438 301.6796875 427.078125 331.759765625 c 0
 478.91796875 438 560.198242188 566 582.598632812 576.239257812 c 0
 613.958984375 590.959960938 651.078125 571.759765625 667.078125 532.71875 c 0
 674.118164062 515.439453125 693.958984375 405.359375 710.598632812 287.599609375 c 0
 743.23828125 59.759765625 742.598632812 36.0791015625 700.998046875 22.6396484375 c 0
 651.078125 6.6396484375 622.91796875 72.5595703125 595.3984375 271.599609375 c 0
 588.998046875 318.959960938 580.038085938 361.19921875 576.198242188 365.6796875 c 0
 572.358398438 370.16015625 547.3984375 330.479492188 520.517578125 278 c 0
 433.478515625 109.0390625 384.198242188 102 283.078125 241.51953125 c 0
 263.23828125 269.0390625 228.677734375 313.19921875 206.91796875 340.71875 c 2
 167.23828125 390.639648438 l 1
 160.198242188 221.0390625 l 2
 156.358398438 127.599609375 149.318359375 43.759765625 144.198242188 34.7998046875 c 0
 133.958984375 15.599609375 106.438476562 13.0390625 89.798828125 29.6796875 c 0
EndSplineSet
Validated: 33
EndChar

StartChar: n
Encoding: 110 110 43
Width: 803
VWidth: 0
Flags: HW
LayerCount: 2
Fore
SplineSet
601.303710938 21.5205078125 m 0
 581.463867188 33.6796875 502.103515625 103.439453125 425.303710938 176.399414062 c 0
 348.50390625 249.360351562 262.103515625 329.360351562 234.583984375 352.399414062 c 2
 184.0234375 394.639648438 l 1
 189.14453125 226.3203125 l 2
 194.903320312 42.6396484375 187.86328125 10 142.423828125 10 c 0
 107.86328125 10 92.50390625 55.439453125 92.50390625 158.479492188 c 0
 92.50390625 202 87.3837890625 301.83984375 80.984375 379.919921875 c 0
 74.583984375 458 72.0234375 532.239257812 75.2236328125 545.040039062 c 0
 78.423828125 557.83984375 95.0634765625 575.120117188 112.984375 582.16015625 c 0
 150.103515625 597.520507812 196.82421875 579.599609375 232.0234375 536.079101562 c 0
 242.903320312 522.639648438 294.744140625 474 345.944335938 429.200195312 c 0
 397.14453125 384.399414062 473.303710938 314.639648438 514.903320312 274.959960938 c 2
 590.423828125 202.639648438 l 1
 584.0234375 246.799804688 l 2
 560.34375 417.040039062 552.6640625 561.040039062 565.463867188 592.399414062 c 0
 585.303710938 639.759765625 618.583984375 648.079101562 649.944335938 611.599609375 c 0
 678.103515625 578.959960938 678.744140625 573.200195312 703.703125 346 c 0
 736.984375 36.8798828125 737.624023438 59.279296875 705.624023438 27.279296875 c 0
 671.703125 -6.6396484375 649.303710938 -7.9208984375 601.303710938 21.5205078125 c 0
EndSplineSet
Validated: 33
EndChar

StartChar: o
Encoding: 111 111 44
Width: 764
VWidth: 0
Flags: HW
LayerCount: 2
Fore
SplineSet
351.658203125 658.479492188 m 0
 460.458007812 658.479492188 560.938476562 596.399414062 642.21875 478 c 0
 677.418945312 426.799804688 687.018554688 399.279296875 692.137695312 344.239257812 c 0
 699.818359375 257.19921875 664.618164062 156.079101562 607.018554688 98.4794921875 c 0
 535.337890625 26.7998046875 366.377929688 -16.0810546875 265.8984375 12.0791015625 c 0
 197.418945312 31.279296875 112.297851562 120.87890625 89.2587890625 198.958984375 c 0
 48.2978515625 337.83984375 75.818359375 462.639648438 169.258789062 561.83984375 c 0
 237.098632812 634.159179688 283.818359375 658.479492188 351.658203125 658.479492188 c 0
352.938476562 527.918945312 m 0
 300.458007812 531.119140625 250.538085938 515.119140625 222.377929688 483.119140625 c 0
 160.938476562 414.639648438 146.858398438 293.0390625 192.297851562 218.159179688 c 0
 243.498046875 133.0390625 318.377929688 108.71875 427.177734375 141.359375 c 0
 521.258789062 169.51953125 579.498046875 264.87890625 555.177734375 350 c 0
 538.538085938 406.958984375 454.698242188 501.6796875 405.418945312 517.6796875 c 0
 388.137695312 523.439453125 370.21875 526.639648438 352.938476562 527.918945312 c 0
EndSplineSet
Validated: 33
EndChar

StartChar: p
Encoding: 112 112 45
Width: 542
VWidth: 0
Flags: HW
LayerCount: 2
Fore
SplineSet
226.060546875 661.83984375 m 0
 363.661132812 669.51953125 501.900390625 562.639648438 491.020507812 428.879882812 c 0
 481.419921875 311.760742188 344.4609375 204.879882812 224.780273438 220.879882812 c 0
 190.861328125 225.360351562 188.30078125 224.080078125 192.140625 204.879882812 c 0
 219.020507812 70.4794921875 197.900390625 -17.2001953125 145.419921875 12.240234375 c 0
 120.4609375 26.3193359375 91.6611328125 133.83984375 69.2607421875 298.959960938 c 0
 34.701171875 549.200195312 43.0205078125 592.080078125 132.620117188 636.879882812 c 0
 162.701171875 651.600585938 194.060546875 659.919921875 226.060546875 661.83984375 c 0
199.8203125 551.760742188 m 0
 189.580078125 551.120117188 179.340820312 549.200195312 169.100585938 546.639648438 c 0
 148.620117188 540.879882812 146.701171875 536.400390625 151.180664062 505.040039062 c 0
 154.380859375 485.200195312 162.060546875 432.719726562 168.4609375 387.919921875 c 0
 181.260742188 296.400390625 175.500976562 298.959960938 267.661132812 338 c 0
 316.30078125 358.479492188 359.180664062 397.51953125 368.780273438 430.16015625 c 0
 377.740234375 460.879882812 340.620117188 512.719726562 293.260742188 533.83984375 c 0
 261.260742188 548.560546875 230.541015625 554.319335938 199.8203125 551.760742188 c 0
EndSplineSet
Validated: 33
EndChar

StartChar: q
Encoding: 113 113 46
Width: 611
VWidth: 0
Flags: HW
LayerCount: 2
Fore
SplineSet
249.930664062 611.600585938 m 2
 249.930664062 611.600585938 l 2
 294.73046875 613.520507812 353.611328125 602 380.491210938 582.80078125 c 0
 425.930664062 550.16015625 494.411132812 450.9609375 511.69140625 394 c 0
 535.37109375 314 525.771484375 203.920898438 489.291015625 135.440429688 c 0
 480.331054688 118.16015625 482.250976562 111.12109375 503.37109375 91.2802734375 c 0
 554.571289062 43.2802734375 571.2109375 -16.87890625 537.291015625 -34.7998046875 c 0
 514.890625 -46.9599609375 516.811523438 -46.9599609375 492.491210938 -33.51953125 c 0
 481.611328125 -27.759765625 458.571289062 -9.83984375 441.930664062 6.16015625 c 0
 411.8515625 34.3203125 410.571289062 34.9609375 381.130859375 19.6005859375 c 0
 335.69140625 -4.0791015625 246.090820312 -0.2392578125 192.971679688 26.640625 c 0
 144.331054688 50.9609375 82.2509765625 130.9609375 65.611328125 189.83984375 c 0
 50.2509765625 244.879882812 53.451171875 340.879882812 73.9306640625 405.520507812 c 0
 95.69140625 476.560546875 174.411132812 590.48046875 210.890625 604.560546875 c 0
 221.130859375 608.400390625 235.2109375 610.9609375 249.930664062 611.600585938 c 2
278.090820312 514.9609375 m 0
 226.250976562 514.9609375 205.771484375 498.3203125 171.8515625 429.83984375 c 0
 144.331054688 373.520507812 139.2109375 352.400390625 139.2109375 294.16015625 c 0
 139.2109375 235.280273438 143.05078125 218.640625 166.090820312 182.80078125 c 0
 181.451171875 159.760742188 208.331054688 132.879882812 225.611328125 122 c 0
 257.611328125 102.16015625 324.811523438 95.7607421875 334.411132812 111.12109375 c 0
 337.611328125 115.600585938 331.8515625 130.9609375 320.971679688 144.400390625 c 0
 288.331054688 186 280.651367188 214.80078125 297.291015625 238.48046875 c 0
 316.491210938 266 332.491210938 265.360351562 369.611328125 234 c 0
 386.250976562 219.920898438 402.890625 210.9609375 406.73046875 214.80078125 c 0
 410.571289062 218.640625 415.05078125 249.360351562 416.971679688 283.920898438 c 0
 420.171875 333.83984375 416.331054688 355.600585938 400.331054688 388.879882812 c 0
 370.250976562 450.9609375 308.171875 514.9609375 278.090820312 514.9609375 c 0
EndSplineSet
Validated: 33
EndChar

StartChar: r
Encoding: 114 114 47
Width: 644
VWidth: 0
Flags: HW
LayerCount: 2
Fore
SplineSet
236.928710938 658 m 4
 377.088867188 658 480.12890625 577.359375 480.76953125 468.559570312 c 4
 480.76953125 414.16015625 467.969726562 391.120117188 400.76953125 322 c 4
 370.048828125 290.639648438 347.649414062 263.120117188 350.208984375 260.559570312 c 4
 352.76953125 258 391.809570312 234.3203125 437.249023438 208.079101562 c 4
 545.409179688 144.719726562 562.689453125 131.919921875 578.689453125 101.83984375 c 4
 589.569335938 80.7197265625 588.928710938 71.759765625 573.569335938 48.7197265625 c 4
 547.969726562 9.6796875 503.169921875 19.279296875 389.888671875 87.1201171875 c 4
 279.169921875 153.0390625 264.44921875 160.719726562 226.689453125 169.6796875 c 6
 196.609375 176.719726562 l 5
 196.609375 113.359375 l 6
 196.609375 73.6796875 190.208984375 41.0390625 179.329101562 25.6796875 c 4
 158.849609375 -3.7607421875 150.529296875 -4.400390625 127.489257812 21.19921875 c 4
 105.728515625 45.51953125 91.009765625 114.639648438 76.9287109375 264.399414062 c 4
 58.369140625 463.439453125 53.2490234375 575.439453125 62.208984375 586.959960938 c 4
 66.689453125 592.719726562 90.369140625 611.279296875 114.689453125 627.919921875 c 4
 152.44921875 653.51953125 170.369140625 658 236.928710938 658 c 4
160.76953125 551.759765625 m 5
 168.44921875 471.120117188 l 6
 178.048828125 365.51953125 185.728515625 307.919921875 192.12890625 307.919921875 c 4
 194.689453125 307.919921875 210.689453125 314.959960938 227.329101562 323.279296875 c 4
 280.44921875 350.799804688 351.489257812 436.559570312 347.649414062 468.559570312 c 4
 342.529296875 510.16015625 298.369140625 537.6796875 224.76953125 545.359375 c 6
 160.76953125 551.759765625 l 5
EndSplineSet
Validated: 33
EndChar

StartChar: s
Encoding: 115 115 48
Width: 620
VWidth: 0
Flags: HW
LayerCount: 2
Fore
SplineSet
214.923828125 21.5205078125 m 2
 118.923828125 65.0400390625 67.083984375 125.200195312 67.083984375 191.120117188 c 0
 67.083984375 241.040039062 98.4443359375 260.239257812 127.884765625 228.239257812 c 0
 192.524414062 158.479492188 208.524414062 145.040039062 249.484375 129.6796875 c 0
 291.724609375 113.6796875 297.484375 113.6796875 340.364257812 129.6796875 c 0
 414.604492188 157.83984375 438.923828125 182.16015625 438.923828125 228.879882812 c 0
 438.923828125 258.959960938 431.244140625 278.16015625 407.564453125 305.040039062 c 0
 373.004882812 344.719726562 349.32421875 354.3203125 227.083984375 379.279296875 c 0
 140.684570312 396.559570312 84.3642578125 423.439453125 67.083984375 456.079101562 c 0
 61.32421875 466.3203125 56.8447265625 495.759765625 56.8447265625 520.719726562 c 0
 56.8447265625 568.079101562 82.4443359375 602.639648438 137.484375 630.799804688 c 0
 181.64453125 653.200195312 282.763671875 664.079101562 341.004882812 651.919921875 c 0
 419.724609375 635.279296875 462.604492188 582.16015625 431.884765625 538.639648438 c 0
 418.444335938 519.439453125 409.484375 517.520507812 378.124023438 522.639648438 c 0
 291.083984375 537.360351562 215.564453125 539.919921875 186.763671875 529.040039062 c 0
 141.963867188 511.759765625 163.724609375 500.239257812 266.124023438 488.079101562 c 0
 413.32421875 470.16015625 488.844726562 427.279296875 538.124023438 330 c 0
 588.684570312 231.439453125 560.524414062 118.799804688 472.844726562 63.1201171875 c 0
 417.8046875 27.919921875 337.8046875 1.0400390625 289.8046875 1.6796875 c 0
 272.524414062 1.6796875 238.604492188 10.6396484375 214.923828125 21.5205078125 c 2
 214.923828125 21.5205078125 l 2
EndSplineSet
Validated: 33
EndChar

StartChar: t
Encoding: 116 116 49
Width: 701
VWidth: 0
Flags: HW
LayerCount: 2
Fore
SplineSet
331.396484375 29.359375 m 2
 321.157226562 54.9599609375 298.1171875 353.19921875 298.1171875 464.559570312 c 2
 298.1171875 527.919921875 l 1
 195.076171875 520.239257812 l 2
 122.756835938 515.120117188 82.4365234375 516.399414062 60.0361328125 525.359375 c 0
 6.9169921875 547.120117188 4.9970703125 588.719726562 55.556640625 611.759765625 c 0
 90.7568359375 627.759765625 343.556640625 655.919921875 482.436523438 659.120117188 c 0
 574.596679688 661.6796875 592.516601562 659.120117188 612.356445312 641.19921875 c 0
 641.157226562 614.959960938 641.157226562 578.48046875 613.63671875 553.51953125 c 0
 593.157226562 534.959960938 556.036132812 529.19921875 444.676757812 526.639648438 c 2
 401.157226562 526 l 1
 414.596679688 300.719726562 l 2
 429.95703125 39.599609375 424.836914062 4.3994140625 372.997070312 4.3994140625 c 0
 349.95703125 4.3994140625 338.436523438 11.439453125 331.396484375 28.7197265625 c 2
 331.396484375 29.359375 l 2
EndSplineSet
Validated: 33
EndChar

StartChar: u
Encoding: 117 117 50
Width: 665
VWidth: 0
Flags: HW
LayerCount: 2
Fore
SplineSet
308.02734375 17.0400390625 m 0
 199.8671875 46.48046875 124.34765625 141.83984375 83.3876953125 301.200195312 c 0
 46.9072265625 443.280273438 56.5068359375 613.51953125 101.948242188 630.80078125 c 0
 139.70703125 645.51953125 153.788085938 609.6796875 162.107421875 475.919921875 c 0
 171.067382812 326.80078125 206.907226562 228.879882812 272.1875 171.280273438 c 0
 348.34765625 104.719726562 404.666992188 114.3203125 447.547851562 202 c 0
 472.506835938 253.200195312 474.427734375 269.83984375 474.427734375 442 c 0
 474.427734375 612.240234375 476.34765625 628.879882812 496.827148438 643.600585938 c 0
 525.627929688 664.719726562 532.666992188 664.080078125 558.907226562 637.83984375 c 0
 595.387695312 601.359375 607.547851562 530.3203125 603.067382812 370.959960938 c 0
 599.8671875 246.80078125 594.748046875 213.51953125 572.987304688 166.16015625 c 0
 540.34765625 93.83984375 475.067382812 26.640625 423.8671875 12.5595703125 c 0
 375.227539062 -0.8798828125 374.587890625 -0.8798828125 308.02734375 17.0400390625 c 0
EndSplineSet
Validated: 33
EndChar

StartChar: v
Encoding: 118 118 51
Width: 747
VWidth: 0
Flags: HW
LayerCount: 2
Fore
SplineSet
350.766601562 22.16015625 m 0
 297.645507812 55.4404296875 273.965820312 84.240234375 144.685546875 279.440429688 c 0
 23.0859375 463.120117188 -1.8740234375 522.639648438 30.7666015625 555.280273438 c 0
 71.7255859375 596.240234375 83.24609375 585.360351562 325.805664062 238.479492188 c 2
 384.045898438 155.280273438 l 1
 462.766601562 366.479492188 l 2
 506.286132812 482.319335938 553.005859375 592.400390625 565.805664062 610.959960938 c 0
 606.125976562 667.919921875 673.325195312 650 673.325195312 582.16015625 c 0
 673.325195312 547.600585938 515.24609375 115.600585938 481.325195312 58 c 0
 464.685546875 29.2001953125 419.885742188 -0.8798828125 395.56640625 -0.8798828125 c 0
 391.0859375 -0.8798828125 370.606445312 10 350.766601562 22.16015625 c 0
EndSplineSet
Validated: 33
EndChar

StartChar: w
Encoding: 119 119 52
Width: 779
VWidth: 0
Flags: HW
LayerCount: 2
Fore
SplineSet
177.514648438 12.6396484375 m 4
 155.754882812 21.599609375 139.754882812 65.759765625 77.6748046875 295.520507812 c 4
 13.6748046875 531.040039062 12.39453125 550.879882812 55.275390625 557.280273438 c 4
 65.5146484375 559.200195312 83.435546875 550.239257812 94.955078125 538.080078125 c 4
 116.71484375 514.399414062 160.235351562 390.879882812 196.71484375 248.16015625 c 6
 218.474609375 162.399414062 l 5
 253.03515625 222.559570312 l 6
 315.754882812 332 369.514648438 331.360351562 462.314453125 220 c 4
 493.03515625 182.879882812 523.115234375 150.879882812 529.514648438 148.3203125 c 4
 542.955078125 143.200195312 548.71484375 170.080078125 563.435546875 335.83984375 c 4
 576.875 483.680664062 580.71484375 505.439453125 603.115234375 529.120117188 c 4
 624.875 552.16015625 626.154296875 553.439453125 650.474609375 540 c 4
 682.474609375 522.719726562 687.594726562 475.360351562 674.154296875 323.680664062 c 4
 653.674804688 99.0400390625 638.955078125 44.6396484375 590.314453125 19.6806640625 c 4
 541.674804688 -5.2802734375 509.03515625 10.080078125 420.71484375 99.6806640625 c 6
 341.354492188 180.959960938 l 5
 305.514648438 112.48046875 l 6
 258.154296875 22.2392578125 222.314453125 -5.2802734375 177.514648438 12.6396484375 c 4
EndSplineSet
Validated: 33
EndChar

StartChar: x
Encoding: 120 120 53
Width: 719
VWidth: 0
Flags: HW
LayerCount: 2
Fore
SplineSet
451.185546875 103.119140625 m 6
 343.665039062 206.799804688 l 5
 295.025390625 147.919921875 l 6
 213.10546875 48.7197265625 170.225585938 12.240234375 135.665039062 12.240234375 c 4
 99.185546875 12.240234375 75.5048828125 31.439453125 75.5048828125 60.8798828125 c 4
 75.5048828125 71.759765625 110.705078125 124.879882812 153.5859375 179.279296875 c 4
 196.46484375 233.6796875 236.78515625 283.599609375 242.544921875 290.639648438 c 4
 248.9453125 299.599609375 222.065429688 337.360351562 165.10546875 399.439453125 c 4
 66.544921875 506.959960938 48.625 548.560546875 86.3857421875 579.279296875 c 4
 122.225585938 608.080078125 148.46484375 595.919921875 245.10546875 505.6796875 c 4
 293.10546875 460.879882812 334.705078125 424.400390625 337.905273438 424.400390625 c 4
 341.10546875 424.400390625 381.42578125 471.759765625 427.504882812 530 c 4
 473.5859375 588.240234375 522.225585938 642 535.665039062 649.040039062 c 4
 570.865234375 668.240234375 615.665039062 653.51953125 623.985351562 620.240234375 c 4
 632.9453125 584.400390625 619.504882812 560.080078125 520.3046875 434 c 6
 439.025390625 330.319335938 l 5
 530.544921875 229.83984375 l 6
 634.865234375 115.919921875 655.344726562 83.279296875 650.225585938 38.4794921875 c 4
 647.025390625 10.9599609375 640.625 5.83984375 602.865234375 2.6396484375 c 4
 561.905273438 -0.560546875 551.665039062 6.4794921875 451.185546875 103.119140625 c 6
EndSplineSet
Validated: 33
EndChar

StartChar: y
Encoding: 121 121 54
Width: 732
VWidth: 0
Flags: HW
LayerCount: 2
Fore
SplineSet
354.107421875 14.48046875 m 0
 334.267578125 30.48046875 330.427734375 47.759765625 325.947265625 141.200195312 c 0
 321.467773438 242.959960938 318.907226562 250.640625 290.107421875 276.240234375 c 0
 273.467773438 290.959960938 208.1875 364.559570312 144.828125 438.80078125 c 0
 25.787109375 577.6796875 9.1474609375 612.879882812 50.7470703125 635.280273438 c 0
 85.3076171875 653.83984375 124.34765625 625.6796875 248.5078125 494.48046875 c 2
 361.787109375 374.80078125 l 1
 456.5078125 503.440429688 l 2
 554.427734375 635.919921875 583.227539062 661.51953125 628.02734375 655.120117188 c 0
 648.5078125 651.919921875 654.907226562 643.600585938 657.467773438 615.440429688 c 0
 660.66796875 584.719726562 645.307617188 557.83984375 554.427734375 431.120117188 c 2
 447.546875 282 l 1
 446.907226562 168.080078125 l 2
 446.267578125 49.0400390625 435.38671875 11.2802734375 396.34765625 1.0400390625 c 0
 385.467773438 -1.51953125 366.907226562 4.240234375 354.107421875 14.48046875 c 0
EndSplineSet
Validated: 33
EndChar

StartChar: z
Encoding: 122 122 55
Width: 768
VWidth: 0
Flags: HW
LayerCount: 2
Fore
SplineSet
164.923828125 10.9599609375 m 0
 156.603515625 15.4404296875 149.563476562 35.2802734375 149.563476562 53.83984375 c 0
 149.563476562 79.4404296875 161.723632812 99.2802734375 197.563476562 136.399414062 c 0
 279.483398438 220.240234375 494.5234375 516.559570312 479.803710938 526.16015625 c 0
 472.763671875 530.640625 393.404296875 534.48046875 303.803710938 534.48046875 c 0
 132.283203125 534.48046875 93.8837890625 541.51953125 75.3232421875 576.080078125 c 0
 66.36328125 592.080078125 68.283203125 602.3203125 83.6435546875 620.879882812 c 0
 100.923828125 642 118.204101562 646.48046875 230.84375 655.440429688 c 0
 301.244140625 661.19921875 413.883789062 662.48046875 481.723632812 658 c 0
 592.443359375 650.959960938 607.163085938 647.759765625 630.84375 624.080078125 c 0
 651.323242188 603.599609375 656.443359375 590.16015625 651.962890625 563.280273438 c 0
 641.723632812 499.280273438 565.563476562 387.919921875 397.244140625 190.16015625 c 2
 349.244140625 133.83984375 l 1
 446.5234375 141.51953125 l 2
 618.68359375 154.959960938 698.043945312 131.280273438 698.043945312 67.2802734375 c 0
 698.043945312 16.080078125 669.883789062 9.6796875 415.163085938 5.83984375 c 0
 285.883789062 3.919921875 173.244140625 6.48046875 164.923828125 10.9599609375 c 0
EndSplineSet
Validated: 33
EndChar

StartChar: Omacron
Encoding: 256 332 57
Width: 728
VWidth: 0
Flags: HW
LayerCount: 2
Fore
SplineSet
415.899414062 832.08984375 m 0
 534.858398438 829.228515625 551.013671875 826.85546875 563.206054688 810.1484375 c 0
 582.19140625 784.146484375 580.28515625 759.873046875 557.545898438 737.140625 c 0
 536.873046875 716.46484375 539.450195312 716.532226562 268 725 c 0
 166.725585938 728.158203125 132.368164062 739.874023438 132.368164062 770.998046875 c 0
 132.368164062 814.698242188 233.655273438 836.471679688 415.899414062 832.08984375 c 0
352.106445312 632.0859375 m 0
 441.95703125 635.014648438 527.548828125 602.079101562 578.553710938 540.689453125 c 0
 700.827148438 393.524414062 697.047851562 222.5390625 568.765625 100.1796875 c 0
 537.15625 70.029296875 492.666992188 37.193359375 469.930664062 27.1748046875 c 0
 413.76171875 2.435546875 323.537109375 -4.8232421875 267.42578125 10.90234375 c 0
 215.553710938 25.4375 165.015625 61.0625 128.609375 108.794921875 c 0
 50.0703125 211.762695312 60.904296875 406.151367188 152.551757812 536.802734375 c 0
 191.72265625 592.645507812 197.833984375 597.143554688 262 617 c 0
 291.748046875 626.19921875 322.158203125 631.173828125 352.106445312 632.0859375 c 0
336.185546875 528.76953125 m 0
 303.143554688 528.2421875 270.793945312 522.764648438 250.088867188 512.37890625 c 0
 184.426757812 479.436523438 142.119140625 350.22265625 163.874023438 248.783203125 c 0
 189.442382812 129.559570312 312.76953125 74.6171875 430.65625 130.015625 c 0
 508.583984375 166.63671875 568.1015625 270.017578125 554.141601562 344.431640625 c 0
 541.110351562 413.887695312 483.009765625 491.4140625 426.056640625 515.211914062 c 0
 402.916015625 524.8671875 369.227539062 529.2265625 336.185546875 528.76953125 c 0
EndSplineSet
Validated: 33
EndChar

StartChar: omacron
Encoding: 257 333 58
Width: 728
VWidth: 0
Flags: HW
LayerCount: 2
Fore
SplineSet
415.899414062 832.08984375 m 4
 534.858398438 829.228515625 551.013671875 826.85546875 563.206054688 810.1484375 c 4
 582.19140625 784.146484375 580.28515625 759.873046875 557.545898438 737.140625 c 4
 536.873046875 716.46484375 539.450195312 716.532226562 268 725 c 4
 166.725585938 728.158203125 132.368164062 739.874023438 132.368164062 770.998046875 c 4
 132.368164062 814.698242188 233.655273438 836.471679688 415.899414062 832.08984375 c 4
352.106445312 632.0859375 m 0
 441.95703125 635.014648438 527.548828125 602.079101562 578.553710938 540.689453125 c 0
 700.827148438 393.524414062 697.047851562 222.5390625 568.765625 100.1796875 c 0
 537.15625 70.029296875 492.666992188 37.193359375 469.930664062 27.1748046875 c 0
 413.76171875 2.435546875 323.537109375 -4.8232421875 267.42578125 10.90234375 c 0
 215.553710938 25.4375 165.015625 61.0625 128.609375 108.794921875 c 0
 50.0703125 211.762695312 60.904296875 406.151367188 152.551757812 536.802734375 c 0
 191.72265625 592.645507812 197.833984375 597.143554688 262 617 c 0
 291.748046875 626.19921875 322.158203125 631.173828125 352.106445312 632.0859375 c 0
336.185546875 528.76953125 m 0
 303.143554688 528.2421875 270.793945312 522.764648438 250.088867188 512.37890625 c 0
 184.426757812 479.436523438 142.119140625 350.22265625 163.874023438 248.783203125 c 0
 189.442382812 129.559570312 312.76953125 74.6171875 430.65625 130.015625 c 0
 508.583984375 166.63671875 568.1015625 270.017578125 554.141601562 344.431640625 c 0
 541.110351562 413.887695312 483.009765625 491.4140625 426.056640625 515.211914062 c 0
 402.916015625 524.8671875 369.227539062 529.2265625 336.185546875 528.76953125 c 0
EndSplineSet
Validated: 33
EndChar

StartChar: sterling
Encoding: 163 163 59
Width: 855
VWidth: 0
Flags: HW
LayerCount: 2
Fore
SplineSet
540.715820312 -71.8994140625 m 2
 518.713867188 -57.392578125 490.59765625 -31.0849609375 478.23828125 -13.439453125 c 0
 450.020507812 26.8505859375 376 58.4169921875 309.745117188 58.4169921875 c 0
 243.61328125 58.4169921875 177.379882812 30.0224609375 114.288085938 -25.37109375 c 0
 2.2373046875 -123.752929688 8.154296875 -38.2470703125 123.5390625 108.333007812 c 0
 231.818359375 245.887695312 303.091796875 393.837890625 279.48046875 432.041992188 c 0
 267.453125 451.500976562 204.884765625 433.524414062 142.469726562 392.705078125 c 0
 80.7705078125 352.341796875 74.4208984375 350.955078125 74.4208984375 377.834960938 c 0
 74.4208984375 410.041992188 169.427734375 484.079101562 223.866210938 494.291992188 c 0
 267.181640625 502.41796875 274.088867188 509.229492188 274.088867188 543.817382812 c 0
 274.088867188 565.874023438 258.223632812 602.775390625 238.833984375 625.819335938 c 0
 165.169921875 713.364257812 154.825195312 803.286132812 210.770507812 869.771484375 c 0
 253.958984375 921.098632812 322.68359375 938.107421875 393.051757812 914.883789062 c 0
 432.614257812 901.826171875 450.853515625 882.198242188 483.80859375 817.203125 c 0
 524.982421875 736.000976562 530.1640625 732.303710938 577.157226562 750.592773438 c 0
 616.053710938 765.729492188 608.256835938 719.150390625 567.41796875 692.390625 c 0
 520.090820312 661.3828125 485.014648438 682.209960938 444.854492188 765.169921875 c 0
 408.065429688 841.165039062 369.146484375 861.345703125 297.516601562 841.568359375 c 0
 214.40234375 818.619140625 214.334960938 769.662109375 297.249023438 659.935546875 c 0
 322.883789062 626.01953125 357.420898438 570.249023438 374 536 c 0
 396.1171875 490.310546875 420.305664062 465.90625 464.836914062 444.348632812 c 0
 542.122070312 406.935546875 551.299804688 407.413085938 585.287109375 450.62109375 c 0
 617.272460938 491.28125 652.010742188 496.918945312 664.823242188 463.52734375 c 0
 670.456054688 448.852539062 655.669921875 422.900390625 623.1640625 390.393554688 c 0
 577.868164062 345.096679688 566.942382812 340.788085938 515.021484375 347.752929688 c 0
 483.251953125 352.014648438 445.060546875 366.544921875 430.14453125 380.041015625 c 0
 399.806640625 407.498046875 404.927734375 415.065429688 366.900390625 286.60546875 c 0
 354.127929688 243.462890625 340.608398438 201.004882812 336.848632812 192.25390625 c 0
 332.614257812 182.3828125 355.000976562 173.528320312 395.833007812 168.923828125 c 0
 468.415039062 160.743164062 530.830078125 112.91015625 559.62109375 43.400390625 c 0
 569.603515625 19.3017578125 593.70703125 -2.8642578125 619.833984375 -11.97265625 c 0
 678.575195312 -32.44921875 695.879882812 -31.171875 722.671875 -4.3818359375 c 0
 753.015625 25.9619140625 790.76171875 10.2490234375 784.936523438 -30.306640625 c 0
 775.40234375 -96.716796875 618.784179688 -123.391601562 540.697265625 -71.9052734375 c 2
 540.715820312 -71.8994140625 l 2
EndSplineSet
Validated: 33
EndChar

StartChar: Euro
Encoding: 164 8364 60
Width: 823
VWidth: 0
Flags: HW
LayerCount: 2
Fore
SplineSet
425 914 m 0
 440 912 455 905 468 892 c 0
 486 875 488 864 479 848 c 0
 473 836 471 801 475 769 c 2
 482 711 l 1
 540 717 l 2
 572 721 604 726 612 728 c 0
 620 731 640 704 660 665 c 0
 679 628 714 577 739 552 c 2
 784 507 l 1
 756 500 l 2
 718 491 646 538 627 585 c 0
 612 622 598 626 521 613 c 0
 482 607 479 603 479 570 c 0
 479 538 484 532 521 521 c 0
 570 506 576 508 559 539 c 0
 543 570 544 586 562 586 c 0
 570 586 588 564 602 536 c 0
 628 485 646 405 633 405 c 0
 629 405 594 418 556 434 c 0
 518 450 485 462 483 462 c 0
 477 462 479 376 486 339 c 0
 493 305 496 303 549 303 c 0
 645 303 694 259 694 176 c 0
 694 131 627 65 553 37 c 0
 516 23 502 11 502 -4 c 0
 502 -31 475 -84 452 -103 c 0
 438 -114 431 -112 413 -92 c 0
 400 -79 384 -53 376 -35 c 0
 368 -15 351 1 333 5 c 0
 258 23 154 99 169 124 c 0
 172 129 196 121 222 106 c 0
 248 91 292 74 318 70 c 2
 366 63 l 1
 366 143 l 1
 366 224 l 1
 316 224 l 2
 260 224 178 250 148 277 c 0
 124 299 111 359 122 394 c 0
 135 434 206 505 245 517 c 0
 265 523 300 531 323 535 c 0
 358 541 366 547 366 569 c 0
 366 593 359 597 301 607 c 0
 240 618 235 617 219 594 c 0
 210 580 184 550 161 527 c 0
 129 495 110 485 81 485 c 2
 43 485 l 1
 91 527 l 2
 118 551 154 599 173 639 c 2
 207 710 l 1
 288 703 l 1
 369 696 l 1
 362 794 l 2
 356 882 358 893 377 903 c 0
 394 912 410 916 425 914 c 0
366 485 m 1
 335 478 l 2
 254 459 185 397 185 343 c 0
 185 318 248 294 312 293 c 2
 366 292 l 1
 366 388 l 1
 366 485 l 1
490 235 m 1
 490 164 l 2
 490 125 494 88 498 84 c 0
 511 71 592 158 592 184 c 0
 592 218 571 235 528 235 c 2
 490 235 l 1
EndSplineSet
Validated: 33
EndChar

StartChar: cent
Encoding: 162 162 61
Width: 823
VWidth: 0
Flags: HW
LayerCount: 2
Fore
SplineSet
425 914 m 0
 440 912 455 905 468 892 c 0
 486 875 488 864 479 848 c 0
 473 836 471 801 475 769 c 2
 482 711 l 1
 540 717 l 2
 572 721 604 726 612 728 c 0
 620 731 640 704 660 665 c 0
 679 628 714 577 739 552 c 2
 784 507 l 1
 756 500 l 2
 718 491 646 538 627 585 c 0
 612 622 598 626 521 613 c 0
 482 607 479 603 479 570 c 0
 479 538 484 532 521 521 c 0
 570 506 576 508 559 539 c 0
 543 570 544 586 562 586 c 0
 570 586 588 564 602 536 c 0
 628 485 646 405 633 405 c 0
 629 405 594 418 556 434 c 0
 518 450 485 462 483 462 c 0
 477 462 479 376 486 339 c 0
 493 305 496 303 549 303 c 0
 645 303 694 259 694 176 c 0
 694 131 627 65 553 37 c 0
 516 23 502 11 502 -4 c 0
 502 -31 475 -84 452 -103 c 0
 438 -114 431 -112 413 -92 c 0
 400 -79 384 -53 376 -35 c 0
 368 -15 351 1 333 5 c 0
 258 23 154 99 169 124 c 0
 172 129 196 121 222 106 c 0
 248 91 292 74 318 70 c 2
 366 63 l 1
 366 143 l 1
 366 224 l 1
 316 224 l 2
 260 224 178 250 148 277 c 0
 124 299 111 359 122 394 c 0
 135 434 206 505 245 517 c 0
 265 523 300 531 323 535 c 0
 358 541 366 547 366 569 c 0
 366 593 359 597 301 607 c 0
 240 618 235 617 219 594 c 0
 210 580 184 550 161 527 c 0
 129 495 110 485 81 485 c 2
 43 485 l 1
 91 527 l 2
 118 551 154 599 173 639 c 2
 207 710 l 1
 288 703 l 1
 369 696 l 1
 362 794 l 2
 356 882 358 893 377 903 c 0
 394 912 410 916 425 914 c 0
366 485 m 1
 335 478 l 2
 254 459 185 397 185 343 c 0
 185 318 248 294 312 293 c 2
 366 292 l 1
 366 388 l 1
 366 485 l 1
490 235 m 1
 490 164 l 2
 490 125 494 88 498 84 c 0
 511 71 592 158 592 184 c 0
 592 218 571 235 528 235 c 2
 490 235 l 1
EndSplineSet
Validated: 33
EndChar

StartChar: yen
Encoding: 165 165 62
Width: 731
VWidth: 0
Flags: HW
LayerCount: 2
Fore
SplineSet
314.732421875 -83.421875 m 2
 269.481445312 -28.8974609375 257.244140625 37.09765625 262.0390625 200.733398438 c 2
 266.8359375 364.484375 l 1
 221.978515625 373.768554688 l 2
 195.029296875 379.357421875 167.610351562 377.122070312 153.297851562 368.178710938 c 0
 135.944335938 357.342773438 125.538085938 357.249023438 114.987304688 367.868164062 c 0
 104.436523438 378.42578125 111.397460938 390.100585938 140.615234375 410.916992188 c 0
 171.752929688 433.086914062 191.099609375 437.52734375 227.069335938 430.7890625 c 0
 272.025390625 422.34375 273.409179688 423.305664062 273.409179688 462.995117188 c 0
 273.409179688 498.58203125 268.841796875 503.891601562 238.194335938 503.891601562 c 0
 218.825195312 503.891601562 183.484375 496.842773438 159.655273438 488.2109375 c 0
 97.8232421875 465.854492188 90.1220703125 484.888671875 142.784179688 529.905273438 c 0
 172.087890625 554.962890625 202.982421875 568.721679688 230.688476562 569.06640625 c 0
 271.969726562 569.6875 273.409179688 571.55078125 273.409179688 624.411132812 c 0
 273.409179688 669.365234375 262.184570312 694.159179688 210.971679688 762.336914062 c 0
 170.563476562 816.12890625 128.810546875 855.18359375 92.6298828125 873.028320312 c 0
 61.8828125 888.181640625 40.0498046875 905.982421875 44.1123046875 912.555664062 c 0
 68.7529296875 952.421875 229.059570312 883.958007812 277.295898438 812.98046875 c 0
 298.708007812 781.473632812 313.3671875 770.130859375 319.615234375 780.240234375 c 0
 325.215820312 789.307617188 344.365234375 792.661132812 365.869140625 788.375976562 c 0
 394.211914062 782.724609375 406.935546875 787.754882812 421.76953125 810.359375 c 0
 453.178710938 858.297851562 569.372070312 914.866210938 615.578125 904.715820312 c 0
 661.221679688 894.686523438 656.6171875 877.484375 605.161132812 865.78125 c 0
 564.602539062 856.559570312 505.994140625 807.37890625 453.405273438 738.427734375 c 0
 427.323242188 704.232421875 418 676.737304688 418 634.004882812 c 2
 418 576 l 1
 476.862304688 580.688476562 l 2
 528.328125 584.787109375 540.848632812 580.377929688 576.521484375 544.5703125 c 0
 598.9609375 522.12109375 614.8671875 496.408203125 611.870117188 487.40625 c 0
 602.060546875 457.939453125 565.630859375 462.348632812 533.661132812 496.815429688 c 0
 507.942382812 524.54296875 494.744140625 529.110351562 460.15625 522.18359375 c 0
 422.525390625 514.668945312 418 508.893554688 418 468.583984375 c 2
 418 423.415039062 l 1
 474.11328125 431.829101562 l 2
 522.920898438 439.157226562 535.119140625 435.7109375 567.815429688 405.405273438 c 0
 614.08203125 362.528320312 598.0546875 331.766601562 542.611328125 357.029296875 c 0
 524 365.505859375 487.51171875 372.4609375 461.521484375 372.4609375 c 2
 414.270507812 372.4609375 l 1
 421.533203125 191.72265625 l 2
 428.55078125 17.197265625 427.6875 9.0615234375 396.553710938 -44.8818359375 c 0
 363.282226562 -102.524414062 339.821289062 -113.543945312 314.728515625 -83.3076171875 c 2
 314.732421875 -83.421875 l 2
EndSplineSet
Validated: 33
EndChar

StartChar: at
Encoding: 64 64 63
Width: 744
VWidth: 0
Flags: HW
LayerCount: 2
Fore
SplineSet
378.79296875 657.029296875 m 0
 461.793945312 657.018554688 476.484375 654.541992188 510.469726562 635.07421875 c 0
 531.515625 623.0234375 557.165039062 599.600585938 567.399414062 583.034179688 c 0
 589.690429688 546.967773438 598.354492188 453.568359375 584.890625 394.4296875 c 2
 575.764648438 354.33984375 l 1
 592.930664062 376.612304688 l 2
 624.40625 417.287109375 628.611328125 421.155273438 641.384765625 421.155273438 c 0
 682.896484375 421.155273438 665.186523438 343.189453125 612.376953125 293.608398438 c 0
 577.7890625 261.137695312 522.912109375 241.606445312 500.2578125 253.737304688 c 0
 486.020507812 261.356445312 484.439453125 269.1640625 489.501953125 307.298828125 c 2
 495.3671875 351.94921875 l 1
 465.81640625 333.595703125 l 2
 384.162109375 283.125976562 339.545898438 270.701171875 299.701171875 287.205078125 c 0
 214.02734375 322.693359375 257.0703125 457.09375 373.03515625 516.115234375 c 0
 396.80078125 528.22265625 432.923828125 541.005859375 453.213867188 544.580078125 c 0
 490.051757812 551.076171875 490.005859375 551.16015625 467.879882812 563.26953125 c 0
 455.305664062 570.14453125 418.765625 575.435546875 383.35546875 575.546875 c 0
 308.056640625 575.827148438 266.146484375 556.998046875 212.243164062 498.520507812 c 0
 164.130859375 446.325195312 146.98046875 411.509765625 141.081054688 354.350585938 c 0
 136.920898438 314.029296875 140.421875 298.34765625 165.634765625 243.643554688 c 0
 211.165039062 144.865234375 268.447265625 107.377929688 399 91 c 0
 476.15234375 81.328125 494.498046875 72.859375 494.498046875 46.783203125 c 0
 494.498046875 -1.3544921875 363.774414062 -14.3662109375 269.498046875 24.4033203125 c 0
 182.698242188 60.095703125 146.912109375 94.0556640625 101.751953125 183.455078125 c 0
 82.47265625 221.623046875 62.9287109375 272.883789062 58.294921875 297.3125 c 0
 36.234375 413.635742188 117.346679688 563.873046875 238.42578125 630.955078125 c 0
 281.943359375 655.137695312 292.155273438 657.029296875 378.79296875 657.029296875 c 0
477.983398438 474.18359375 m 0
 454.091796875 473.060546875 425.653320312 468.267578125 407.583984375 460.719726562 c 0
 368.374023438 444.338867188 337.34375 416.975585938 319.69140625 383.041992188 c 0
 295.67578125 336.876953125 330.4453125 326.904296875 394.981445312 361.419921875 c 0
 438.185546875 384.529296875 521.224609375 453.432617188 521.224609375 466.15234375 c 0
 521.224609375 472.921875 501.876953125 475.234375 477.983398438 474.18359375 c 0
EndSplineSet
Validated: 33
EndChar

StartChar: quotedblleft
Encoding: 258 8220 64
Width: 536
VWidth: 0
Flags: HW
LayerCount: 2
Fore
SplineSet
407.525390625 979.196289062 m 0
 431.373046875 978.450195312 446.971679688 966.638671875 456.90625 942.657226562 c 0
 475.141601562 898.635742188 446.368164062 836.122070312 407.880859375 836.122070312 c 0
 379.234375 836.122070312 378.0703125 820.224609375 402.576171875 762.112304688 c 0
 415.4453125 731.6015625 423.91796875 701.413085938 421.431640625 694.9375 c 0
 414.013671875 675.62109375 393.046875 672.51953125 371.463867188 687.638671875 c 0
 341.26171875 708.79296875 304.938476562 777.220703125 297.807617188 826.466796875 c 0
 287.502929688 897.619140625 324.169921875 963.825195312 380.7734375 976.25390625 c 0
 390.647460938 978.51171875 399.578125 979.423828125 407.525390625 979.196289062 c 0
137.4140625 961.635742188 m 0
 180.439453125 961.635742188 206 938.607421875 206 900 c 0
 206 868.9375 167.272460938 826.461914062 138.943359375 826.461914062 c 0
 113.09375 826.461914062 113.138671875 798.938476562 139.064453125 748.09375 c 0
 175.091796875 677.47265625 146.915039062 636.494140625 98.169921875 688.579101562 c 0
 54.048828125 735.724609375 39.431640625 775.702148438 43.841796875 836.71484375 c 0
 49.4169921875 913.762695312 85.232421875 961.635742188 137.4140625 961.635742188 c 0
EndSplineSet
Validated: 33
EndChar

StartChar: quotedblright
Encoding: 259 8221 65
Width: 528
VWidth: 0
Flags: HW
LayerCount: 2
Fore
SplineSet
319.548828125 1004.87695312 m 2
 319.556640625 1004.87695312 l 2
 342.598632812 1008.98242188 378.458007812 988.978515625 406.478515625 941.166015625 c 0
 441.643554688 881.165039062 464.9765625 774.817382812 451.450195312 736.01171875 c 0
 425.873046875 662.642578125 363.88671875 645.962890625 318.227539062 700.227539062 c 0
 284.982421875 739.728515625 284.817382812 781.78125 317.735351562 814.713867188 c 0
 345.329101562 842.3046875 344.560546875 853.133789062 310 924 c 0
 286.3046875 972.583984375 296.5078125 1000.78320312 319.548828125 1004.87695312 c 2
57.5751953125 979.971679688 m 2
 57.5810546875 979.973632812 l 2
 67.0419921875 981.354492188 79.490234375 979.623046875 94.57421875 974.290039062 c 0
 181.515625 943.486328125 241.020507812 791.546875 198.420898438 709.171875 c 0
 190.1953125 693.255859375 174.927734375 675.6171875 164.450195312 670.002929688 c 0
 135.59765625 654.5625 78.9404296875 657.814453125 64.109375 675.6875 c 0
 42.8369140625 701.317382812 48.357421875 753.392578125 76.3193359375 790.051757812 c 0
 104.955078125 827.596679688 102.26171875 845.982421875 59.99609375 901.393554688 c 0
 27.388671875 944.141601562 29.193359375 975.831054688 57.5751953125 979.971679688 c 2
EndSplineSet
Validated: 33
EndChar

StartChar: quoteright
Encoding: 260 8217 66
Width: 260
VWidth: 0
Flags: HW
LayerCount: 2
Fore
SplineSet
95.287109375 678.916992188 m 0
 90.7294921875 687.427734375 87 741.470703125 87 799 c 0
 87 894.157226562 88.494140625 905.09765625 103.59765625 920.197265625 c 0
 118.520507812 935.118164062 121.954101562 935.62890625 137.62109375 925.265625 c 0
 157.416992188 912.178710938 164.954101562 869.546875 166.263671875 763.276367188 c 0
 166.831054688 717.03515625 163.559570312 694.021484375 154.59375 681.21875 c 0
 139.153320312 659.173828125 106.530273438 657.905273438 95.287109375 678.916992188 c 0
EndSplineSet
Validated: 33
EndChar

StartChar: copyright
Encoding: 169 169 67
Width: 780
VWidth: 0
Flags: HW
LayerCount: 2
Fore
SplineSet
428.462890625 710.549804688 m 4
 483.8828125 711.420898438 535.912109375 703.46484375 571.393554688 685.114257812 c 4
 600.478515625 670.073242188 657.140625 604.65625 679.975585938 559.705078125 c 4
 707.483398438 505.553710938 719.583007812 432.03515625 713.629882812 354.713867188 c 4
 704.284179688 233.326171875 642.275390625 146.458007812 523.287109375 87.857421875 c 4
 477.58984375 65.359375 459.623046875 61.087890625 404.411132812 59.7470703125 c 4
 368.626953125 58.8662109375 325.635742188 61.5283203125 308.893554688 65.6845703125 c 4
 235.266601562 83.9580078125 149.72265625 143.979492188 111.918945312 203.86328125 c 4
 86.4716796875 244.174804688 59.544921875 335.247070312 59.755859375 380.447265625 c 4
 60.1103515625 456.408203125 121.987304688 584.408203125 185.166015625 639.876953125 c 4
 234.466796875 683.165039062 336.096679688 709.017578125 428.462890625 710.549804688 c 4
342.151367188 639.482421875 m 6
 342.151367188 639.518554688 l 6
 251.602539062 635.911132812 192.643554688 594.463867188 147.94921875 505.397460938 c 4
 123.416015625 456.505859375 120.418945312 443.455078125 120.629882812 385.629882812 c 4
 120.83203125 331.720703125 124.498046875 313.905273438 142.108398438 280.213867188 c 4
 175.203125 216.895507812 243.603515625 168.467773438 327.205078125 149.162109375 c 4
 384.712890625 135.87109375 430.69921875 141.123046875 480.923828125 166.573242188 c 4
 575.431640625 214.462890625 611.849609375 268.760742188 617.419921875 370.178710938 c 4
 622.633789062 465.114257812 605.896484375 516.5390625 551.794921875 572.001953125 c 4
 503.837890625 621.169921875 475.782226562 632.22265625 382.931640625 638.715820312 c 4
 368.655273438 639.673828125 355.087890625 640.056640625 342.151367188 639.482421875 c 6
386 560 m 4
 440.74609375 559.986328125 488.4375 523.375 475.974609375 490.895507812 c 4
 471.874023438 480.2265625 464.66796875 478.560546875 441.529296875 482.888671875 c 4
 370.939453125 496.08984375 350.545898438 492.176757812 322.75 460.022460938 c 4
 290.451171875 422.659179688 282.58203125 388.524414062 298.995117188 356.786132812 c 4
 313.556640625 328.626953125 338.827148438 310.741210938 373.923828125 303.73046875 c 4
 394.321289062 299.651367188 407.303710938 303.810546875 437.66796875 323.922851562 c 4
 482.4375 353.58203125 493.708984375 354.983398438 505.668945312 332.637695312 c 4
 531.158203125 285.01171875 460.537109375 219.668945312 383.426757812 219.501953125 c 4
 372.037109375 219.477539062 343.830078125 228.85546875 320.671875 240.385742188 c 4
 272.663085938 264.309570312 252.77734375 286.373046875 233.370117188 337.19140625 c 4
 196.151367188 434.645507812 282.045898438 560 386 560 c 4
EndSplineSet
Validated: 33
EndChar

StartChar: degree
Encoding: 176 176 68
Width: 430
VWidth: 0
Flags: HW
LayerCount: 2
Fore
SplineSet
218.0859375 872.172851562 m 6
 218.088867188 872.228515625 l 6
 240.44140625 871.365234375 263.62890625 865.385742188 286.520507812 853.693359375 c 4
 360.466796875 815.908203125 358.982421875 694.291015625 284 650 c 4
 249.240234375 629.408203125 174.98828125 630.291992188 134.205078125 651.771484375 c 4
 95.1806640625 672.321289062 66.005859375 723.166992188 74.0126953125 756.479492188 c 4
 91.962890625 831.15234375 151.026367188 874.764648438 218.0859375 872.172851562 c 6
200.69140625 799.278320312 m 4
 184.686523438 800.981445312 169.081054688 798.854492188 160.302734375 792.189453125 c 4
 134.091796875 772.323242188 135.219726562 736.190429688 162.47265625 722.040039062 c 4
 190.958007812 707.26953125 214.05078125 706.407226562 238.114257812 719.294921875 c 4
 258.981445312 730.463867188 262.185546875 767.965820312 243.604492188 783.377929688 c 4
 233.131835938 792.059570312 216.704101562 797.505859375 200.69140625 799.278320312 c 4
EndSplineSet
Validated: 33
EndChar

StartChar: underscore
Encoding: 95 95 69
Width: 736
VWidth: 0
Flags: HW
LayerCount: 2
Fore
SplineSet
100 11 m 0
 33.630859375 25.1953125 20.8203125 58.2158203125 70.072265625 88.1689453125 c 0
 100.704101562 106.793945312 119.243164062 108.834960938 445.505859375 129.474609375 c 0
 615.143554688 140.213867188 670.358398438 133.069335938 689.118164062 98.0263671875 c 0
 703.077148438 71.9453125 693.376953125 33.8681640625 669.529296875 21.1064453125 c 0
 644.5078125 7.72265625 155.92578125 -0.953125 100 11 c 0
EndSplineSet
Validated: 33
EndChar

StartChar: equal
Encoding: 61 61 70
Width: 768
VWidth: 0
Flags: HW
LayerCount: 2
Fore
SplineSet
231.609375 604.243164062 m 2
 231.610351562 604.17578125 l 2
 265.934570312 604.17578125 309.931640625 603.581054688 366.842773438 602.690429688 c 0
 502.2578125 600.4921875 623.127929688 593.333984375 635.465820312 586.739257812 c 0
 691.912109375 556.530273438 693.79296875 488.981445312 638.846679688 463.940429688 c 0
 598.813476562 445.702148438 373.709960938 447.395507812 231 467 c 0
 172.213867188 475.061523438 111.329101562 488.874023438 95.767578125 497.546875 c 0
 60.2421875 517.359375 59.58203125 551.64453125 94.07421875 582.73828125 c 0
 112.50390625 599.372070312 128.63671875 604.344726562 231.609375 604.243164062 c 2
479.203125 338.076171875 m 0
 525.729492188 338.2421875 565.19921875 337.203125 588.956054688 334.530273438 c 0
 644.322265625 328.172851562 669.96484375 318.623046875 686.426757812 298.305664062 c 0
 734.525390625 238.90625 693.354492188 171.241210938 611.366210938 175.043945312 c 0
 585.431640625 176.26171875 457.362304688 180.717773438 326.932617188 184.875 c 0
 98.5771484375 192.153320312 89.01171875 193.51953125 66.2919921875 221.559570312 c 0
 37.390625 257.254882812 51.8193359375 293.223632812 102.82421875 312.73828125 c 0
 136.49609375 325.630859375 339.625976562 337.482421875 479.203125 338.076171875 c 0
EndSplineSet
Validated: 33
EndChar

StartChar: greater
Encoding: 62 62 71
Width: 516
VWidth: 0
Flags: HW
LayerCount: 2
Fore
SplineSet
75.9736328125 8.4501953125 m 0
 70.1298828125 14.2939453125 65.458984375 25.26953125 65.626953125 32.833984375 c 0
 66.044921875 54.615234375 125.762695312 131.609375 223.6328125 236.663085938 c 2
 314.024414062 333.69140625 l 1
 195.729492188 460.57421875 l 2
 130.666015625 530.360351562 74.802734375 594.53125 71.5869140625 603.17578125 c 0
 65.19921875 620.330078125 92.365234375 653.959960938 112.588867188 653.959960938 c 0
 156.845703125 653.959960938 381.408203125 444.036132812 411 375 c 0
 421.368164062 350.799804688 425.74609375 327.864257812 421.93359375 317.634765625 c 0
 414.98046875 298.971679688 174.455078125 49.888671875 132.364257812 17.759765625 c 0
 102.727539062 -4.86328125 91.1962890625 -6.7666015625 75.9736328125 8.4501953125 c 0
EndSplineSet
Validated: 33
EndChar

StartChar: less
Encoding: 60 60 72
Width: 592
VWidth: 0
Flags: HW
LayerCount: 2
Fore
SplineSet
311.5703125 44.8076171875 m 0
 256.065429688 90.8466796875 64.3896484375 297.36328125 64.3896484375 311.125976562 c 0
 64.3896484375 312.592773438 70.1103515625 327.09375 77.1083984375 343.552734375 c 0
 99.7080078125 396.681640625 339.73046875 614.252929688 416.061523438 650.799804688 c 0
 466.372070312 674.888671875 509.65625 647.069335938 494.780273438 600.190429688 c 0
 491.784179688 590.71875 468.551757812 568.08203125 443.17578125 549.8828125 c 0
 417.799804688 531.694335938 343.918945312 474.587890625 279 423 c 0
 162.2734375 330.240234375 161.170898438 329.029296875 179.841796875 313.911132812 c 0
 190.235351562 305.5078125 252.323242188 247.984375 317.836914062 186.090820312 c 0
 412.373046875 96.78125 436.954101562 68.71484375 436.954101562 50.0908203125 c 0
 436.954101562 -8.818359375 379.151367188 -11.2529296875 311.5703125 44.8076171875 c 0
EndSplineSet
Validated: 33
EndChar

StartChar: semicolon
Encoding: 59 59 73
Width: 388
VWidth: 0
Flags: HW
LayerCount: 2
Fore
SplineSet
188.645507812 509.2109375 m 0
 261.352539062 508.733398438 314.137695312 406.13671875 255 347 c 0
 228.477539062 320.482421875 150.888671875 323.372070312 122.291992188 351.966796875 c 0
 80.5244140625 393.732421875 100.037109375 479.25 156.603515625 502.680664062 c 0
 167.533203125 507.290039062 178.26171875 509.279296875 188.645507812 509.2109375 c 0
179.712890625 189.350585938 m 0
 216.345703125 189.350585938 258.590820312 153.705078125 268.467773438 114.349609375 c 0
 281.258789062 63.380859375 241.864257812 -38.9189453125 187.794921875 -95.34765625 c 0
 135.48046875 -149.938476562 111.133789062 -158.55078125 87.9794921875 -130.650390625 c 0
 76.751953125 -117.122070312 83.240234375 -100.413085938 121.440429688 -44.1650390625 c 0
 173.5703125 32.591796875 175.787109375 38.353515625 153.341796875 38.353515625 c 0
 129.989257812 38.353515625 87.412109375 89.01171875 87.412109375 116.758789062 c 0
 87.412109375 148.319335938 139.639648438 189.350585938 179.712890625 189.350585938 c 0
EndSplineSet
Validated: 33
EndChar

StartChar: colon
Encoding: 58 58 74
Width: 380
VWidth: 0
Flags: HW
LayerCount: 2
Fore
SplineSet
188.864257812 630.469726562 m 0
 231.958007812 636.146484375 271.67578125 607.9765625 271.67578125 552.813476562 c 0
 271.67578125 486.76171875 238.423828125 447.233398438 182.658203125 447.233398438 c 0
 150.2265625 447.233398438 129.797851562 456.428710938 114.890625 477.703125 c 0
 87.8017578125 516.399414062 87.8564453125 542.770507812 115.408203125 582.114257812 c 0
 135.895507812 611.366210938 163 627.0703125 188.864257812 630.469726562 c 0
168.115234375 241.099609375 m 0
 196.587890625 242.90625 227.489257812 232.412109375 253.1171875 206.80078125 c 0
 280.284179688 179.6171875 286.079101562 163.466796875 279.053710938 134.680664062 c 0
 261.48828125 62.712890625 183.204101562 20.1015625 127.7890625 52.1904296875 c 0
 89.208984375 74.5322265625 80.357421875 91.4306640625 80.1005859375 142.376953125 c 0
 79.833984375 200.88671875 120.66015625 238.186523438 168.115234375 241.099609375 c 0
EndSplineSet
Validated: 33
EndChar

StartChar: zero
Encoding: 48 48 75
Width: 634
VWidth: 0
Flags: HW
LayerCount: 2
Fore
SplineSet
358.249023438 655.143554688 m 0
 393.537109375 654.403320312 428.299804688 647.096679688 450.135742188 633.522460938 c 0
 546.556640625 573.612304688 592.037109375 351.818359375 539.954101562 195.310546875 c 0
 488.348632812 40.232421875 330.9375 -43.453125 215.38671875 22.638671875 c 0
 159.948242188 54.3505859375 122.674804688 105.578125 104.794921875 174.65625 c 0
 85.453125 249.41796875 85.517578125 272.405273438 105.291992188 368.221679688 c 0
 131.641601562 495.909179688 193.231445312 601.076171875 262.930664062 637.431640625 c 0
 287.088867188 650.036132812 322.951171875 655.852539062 358.249023438 655.143554688 c 0
342.60546875 539.419921875 m 0
 334.645507812 539.23046875 326.026367188 538.143554688 316.70703125 536.487304688 c 0
 244.612304688 522.961914062 210.825195312 473.512695312 184.240234375 342.309570312 c 0
 169.108398438 267.6640625 169.165039062 256.458007812 183.743164062 206.298828125 c 0
 204.959960938 133.311523438 237.20703125 108.032226562 302.401367188 113.305664062 c 0
 335.33203125 115.962890625 358.323242188 124.684570312 375.966796875 141.166992188 c 0
 431.8984375 193.41796875 456.52734375 290.544921875 440 394 c 0
 422.823242188 501.525390625 398.379882812 540.602539062 342.60546875 539.419921875 c 0
EndSplineSet
Validated: 33
EndChar

StartChar: one
Encoding: 49 49 76
Width: 424
VWidth: 0
Flags: HW
LayerCount: 2
Fore
SplineSet
226.633789062 21.212890625 m 0
 210.5546875 37.296875 208.208007812 61.4072265625 201.932617188 274.98828125 c 2
 195 511 l 1
 159.4375 482.833984375 l 2
 139.875976562 467.348632812 113.110351562 454.66796875 99.953125 454.66796875 c 0
 44.8740234375 454.66796875 56.744140625 500.287109375 133.048828125 581.858398438 c 0
 201.8828125 655.440429688 235.500976562 675.868164062 263.290039062 660.995117188 c 0
 273.821289062 655.360351562 286.330078125 640.518554688 291.087890625 627.994140625 c 0
 304.922851562 591.608398438 307.258789062 79.3232421875 293.728515625 49.0546875 c 0
 276.6640625 10.8837890625 248.607421875 -0.759765625 226.633789062 21.212890625 c 0
EndSplineSet
Validated: 33
EndChar

StartChar: two
Encoding: 50 50 77
Width: 668
VWidth: 0
Flags: HW
LayerCount: 2
Fore
SplineSet
101.952148438 -14.548828125 m 0
 71.3388671875 3.3505859375 81.6181640625 40.6455078125 137.602539062 114.80859375 c 0
 314.756835938 349.495117188 319.80078125 357.165039062 330.848632812 408.678710938 c 0
 345.497070312 476.987304688 344.8828125 503.236328125 328.095703125 526.194335938 c 0
 298.255859375 567.001953125 197.495117188 501.724609375 175.13671875 427.102539062 c 0
 164.555664062 391.784179688 159.295898438 386.672851562 136.296875 389.34765625 c 0
 102.4375 393.274414062 96.6767578125 425.66796875 119.298828125 484.903320312 c 0
 159.626953125 590.498046875 285.341796875 660.404296875 367.551757812 622.946289062 c 0
 414.931640625 601.364257812 437.581054688 550.041992188 436.609375 466.489257812 c 0
 435.536132812 373.567382812 416.526367188 319.1953125 353.049804688 227.388671875 c 2
 303 155 l 1
 397.333984375 155 l 2
 449.216796875 155 504.383789062 151.439453125 519.926757812 147.098632812 c 0
 556.794921875 136.783203125 583.626953125 95.75390625 575.271484375 62.4658203125 c 0
 564.982421875 21.47265625 534.873046875 11.5595703125 463.388671875 25.6201171875 c 0
 388.009765625 40.447265625 260.859375 22.42578125 130.342773438 -21.6181640625 c 0
 124.666015625 -23.5693359375 111.889648438 -20.3994140625 101.952148438 -14.548828125 c 0
EndSplineSet
Validated: 33
EndChar

StartChar: three
Encoding: 51 51 78
Width: 676
VWidth: 0
Flags: HW
LayerCount: 2
Fore
SplineSet
220.55859375 17.83203125 m 0
 124.794921875 31.8759765625 67.7021484375 78.888671875 91.7783203125 123.875976562 c 0
 100.974609375 141.051757812 109.743164062 141.913085938 219.393554688 136.354492188 c 0
 325.1796875 131 341.673828125 132.383789062 381.84375 150.171875 c 0
 414.966796875 164.829101562 431.586914062 179.817382812 445.984375 208.037109375 c 0
 464.638671875 244.604492188 464.727539062 246.749023438 448.20703125 261.709960938 c 0
 419.546875 287.645507812 343.630859375 308.791015625 297.739257812 303.618164062 c 0
 250.444335938 298.286132812 216.471679688 315.211914062 216.471679688 344.12109375 c 0
 216.471679688 354.55859375 241.916992188 381.908203125 277.9921875 410.256835938 c 0
 349.1484375 466.17578125 392.356445312 518.588867188 387.666992188 543.298828125 c 0
 385.208007812 556.25390625 373.686523438 561.336914062 341.467773438 563.627929688 c 0
 277.125 568.2109375 241.970703125 558.61328125 188.5 521.826171875 c 0
 112.620117188 469.630859375 86.5244140625 482.786132812 122.342773438 555.180664062 c 0
 154.8828125 620.948242188 211.610351562 653.38671875 317.56640625 666.80859375 c 0
 382.6640625 675.044921875 439.8046875 658.323242188 470.302734375 622.076171875 c 0
 517.318359375 566.201171875 514.5625 506.0078125 461.821289062 436.916015625 c 2
 429.418945312 394.465820312 l 1
 471.372070312 378.447265625 l 2
 544.668945312 350.45703125 594.20703125 271.150390625 578.057617188 207.65625 c 0
 565.877929688 159.76953125 508.801757812 80.515625 471 59 c 0
 404.208984375 20.982421875 307.517578125 5.09375 220.55859375 17.83203125 c 0
EndSplineSet
Validated: 33
EndChar

StartChar: four
Encoding: 52 52 79
Width: 724
VWidth: 0
Flags: HW
LayerCount: 2
Fore
SplineSet
371 22.111328125 m 2
 354.348632812 34.27734375 350.178710938 53.5 345.805664062 138.2265625 c 2
 340.5625 239.749023438 l 1
 252.833007812 245.91796875 l 2
 204.579101562 249.306640625 150.009765625 255.499023438 131.568359375 259.64453125 c 0
 74.1025390625 272.56640625 69.6748046875 288.606445312 75.08203125 464.255859375 c 0
 80.1533203125 629.15625 86.46875 657.7578125 117.75390625 657.7578125 c 0
 155.890625 657.7578125 164.946289062 629.069335938 168.7421875 496.201171875 c 2
 172.375 368.76171875 l 1
 257.798828125 368.76171875 l 1
 343.22265625 368.76171875 l 1
 347.538085938 497.966796875 l 2
 351.29296875 610.685546875 354.51171875 629.846679688 372.806640625 648.139648438 c 0
 393.65234375 668.985351562 393.920898438 669.009765625 418.77734375 648.87109375 c 0
 442.40234375 629.732421875 443.98046875 621.53515625 447.391601562 499.814453125 c 2
 451 371 l 1
 526.266601562 363.953125 l 2
 612.631835938 355.859375 645.043945312 334.6328125 645.043945312 286.166015625 c 0
 645.043945312 245.561523438 621.052734375 234.59765625 532.188476562 234.59765625 c 2
 459.259765625 234.59765625 l 1
 458.528320312 185.572265625 l 2
 457.553710938 103.797851562 442.607421875 36.0625 422.422851562 21.2998046875 c 0
 398.89453125 4.111328125 395.454101562 4.16015625 370.885742188 22.03125 c 2
 371 22.111328125 l 2
EndSplineSet
Validated: 33
EndChar

StartChar: five
Encoding: 53 53 80
Width: 672
VWidth: 0
Flags: HW
LayerCount: 2
Fore
SplineSet
223.9765625 18.0390625 m 0
 176.637695312 39.3671875 126.42578125 86.5380859375 126.42578125 109.673828125 c 0
 126.42578125 151.912109375 178.525390625 166.442382812 221.659179688 136.229492188 c 0
 259.185546875 109.944335938 322.844726562 114.159179688 378.181640625 146.599609375 c 0
 467.9296875 199.1953125 486.21484375 239.360351562 437.264648438 276.375976562 c 0
 410.913085938 296.295898438 393.638671875 299.240234375 312.616210938 297.6015625 c 0
 260.8828125 296.578125 201.521484375 294.119140625 180.700195312 292.173828125 c 0
 144.938476562 288.845703125 142.120117188 291.149414062 129.772460938 332.005859375 c 0
 111.780273438 391.68359375 70.509765625 553.365234375 64.30859375 588.470703125 c 0
 55.2861328125 639.55078125 86.8681640625 648.41796875 306.021484375 656.31640625 c 0
 494.391601562 663.1015625 502.986328125 662.512695312 530.931640625 640.518554688 c 0
 565.896484375 613.015625 568.391601562 576.01171875 537.186523438 547.754882812 c 0
 516.84375 529.321289062 496.408203125 527.09375 347.643554688 527.09375 c 0
 204.52734375 527.09375 181.581054688 524.7890625 185.69140625 510.834960938 c 0
 188.326171875 501.899414062 196.079101562 471.71875 202.922851562 443.783203125 c 0
 214.672851562 395.81640625 216.8515625 393.552734375 242.0546875 403.13671875 c 0
 289.0390625 421.0078125 403.2890625 414.836914062 467 391 c 0
 559.577148438 356.362304688 602.794921875 292.685546875 587.837890625 212.959960938 c 0
 563.349609375 82.42578125 343.016601562 -35.6162109375 223.9765625 18.0390625 c 0
EndSplineSet
Validated: 33
EndChar

StartChar: six
Encoding: 54 54 81
Width: 620
VWidth: 0
Flags: HW
LayerCount: 2
Fore
SplineSet
358.3984375 658.201171875 m 0
 370.927734375 657.557617188 381.827148438 653.192382812 390.663085938 644.350585938 c 0
 415.249023438 619.765625 405.947265625 590.821289062 365.25 565.678710938 c 0
 322.434570312 539.217773438 239.8046875 454.251953125 218.900390625 415.189453125 c 0
 206.573242188 392.145507812 207.892578125 391.565429688 243.885742188 401.899414062 c 0
 308.696289062 420.48828125 384.563476562 414.54296875 440.20703125 386.482421875 c 0
 576.36328125 317.826171875 579.545898438 106.032226562 445.493164062 30.1064453125 c 0
 387.283203125 -2.85546875 256.44921875 -6.57421875 196.486328125 22.9775390625 c 0
 96.314453125 72.3466796875 36.6689453125 203.771484375 64.416015625 313.959960938 c 0
 106.493164062 481.069335938 270.6796875 662.705078125 358.3984375 658.201171875 c 0
340.122070312 272.270507812 m 0
 267.1015625 276.307617188 153.8828125 242.243164062 166.926757812 205.736328125 c 0
 178.983398438 171.989257812 197.616210938 152.963867188 235.17578125 135.916015625 c 0
 278.380859375 116.3046875 365.590820312 122.986328125 390.376953125 147.768554688 c 0
 412.530273438 169.919921875 414.250976562 229.306640625 393.521484375 254.283203125 c 0
 384.288085938 265.41796875 364.4609375 270.888671875 340.122070312 272.270507812 c 0
EndSplineSet
Validated: 33
EndChar

StartChar: seven
Encoding: 55 55 82
Width: 664
VWidth: 0
Flags: HW
LayerCount: 2
Fore
SplineSet
228.02734375 14.697265625 m 0
 219.565429688 23.1611328125 212.645507812 40.4853515625 212.645507812 53.2021484375 c 0
 212.645507812 65.9208984375 258.897460938 176.12890625 315.428710938 298.104492188 c 0
 371.958984375 420.08203125 418.211914062 521.154296875 418.211914062 522.708007812 c 0
 418.211914062 524.326171875 341.387695312 528.743164062 247.493164062 532.650390625 c 0
 100.456054688 538.779296875 74.5380859375 542.223632812 60.646484375 557.584960938 c 0
 51.7763671875 567.388671875 46.05859375 583.409179688 47.9423828125 593.190429688 c 0
 54.685546875 628.19921875 101.453125 638.079101562 309.939453125 648.536132812 c 0
 537.321289062 659.935546875 562.133789062 655.518554688 577.819335938 600.723632812 c 0
 585.479492188 573.962890625 572.715820312 542.836914062 459 311 c 0
 312.970703125 13.2802734375 276.383789062 -33.6533203125 228.02734375 14.697265625 c 0
EndSplineSet
Validated: 33
EndChar

StartChar: eight
Encoding: 56 56 83
Width: 680
VWidth: 0
Flags: HW
LayerCount: 2
Fore
SplineSet
260.173828125 657.736328125 m 0
 322.88671875 654.803710938 389.520507812 627.422851562 427.598632812 582.171875 c 0
 451.158203125 554.17578125 453.935546875 543.654296875 449.245117188 498.458984375 c 0
 446.291015625 470.009765625 440.678710938 436.321289062 436.731445312 423.6328125 c 0
 431.612304688 407.166992188 433.719726562 400.60546875 444.114257812 400.60546875 c 0
 475.44140625 400.60546875 554.463867188 339.256835938 575 299 c 0
 627.724609375 195.65234375 586.575195312 84.9970703125 476.774414062 34.728515625 c 0
 398.9765625 -0.890625 279.368164062 -8.111328125 221.759765625 19.328125 c 0
 172.76171875 42.6650390625 151.025390625 65.6474609375 129.9140625 116.176757812 c 0
 104.329101562 177.407226562 109.34375 237.140625 144.178710938 285.227539062 c 0
 160.719726562 308.061523438 179.676757812 330.108398438 186.221679688 334.15234375 c 0
 193.515625 338.669921875 182.174804688 348.622070312 156.942382812 359.930664062 c 0
 102.654296875 384.234375 79.3173828125 421.295898438 80.2373046875 481.8046875 c 0
 81.166015625 543.5234375 113.9140625 607.741210938 158.568359375 635.338867188 c 0
 186.334960938 652.506835938 222.546875 659.431640625 260.173828125 657.736328125 c 0
247.912109375 554.254882812 m 0
 208.728515625 554.248046875 204.188476562 551.403320312 189.852539062 517.083984375 c 0
 171.930664062 474.189453125 178.119140625 463.680664062 228.516601562 451.767578125 c 0
 285.485351562 438.303710938 307.893554688 440.555664062 329.37109375 462.033203125 c 0
 340.647460938 473.310546875 349.892578125 490.776367188 349.892578125 500.825195312 c 0
 349.892578125 526.913085938 297.709960938 554.254882812 247.912109375 554.254882812 c 0
337.879882812 303.747070312 m 0
 311.700195312 304.03515625 291.333984375 289.09765625 249.041015625 246.801757812 c 0
 209.25 207.013671875 208.081054688 176.750976562 244.908203125 142.069335938 c 0
 289.469726562 100.103515625 338.666015625 95.701171875 413.708007812 127.056640625 c 0
 520.0859375 171.50390625 495.052734375 263.708007812 367.034179688 298.734375 c 0
 355.989257812 301.809570312 346.607421875 303.68359375 337.879882812 303.747070312 c 0
EndSplineSet
Validated: 33
EndChar

StartChar: nine
Encoding: 57 57 84
Width: 604
VWidth: 0
Flags: HW
LayerCount: 2
Fore
SplineSet
381.84375 658.203125 m 0
 415.141601562 657.41796875 443.465820312 649.893554688 457.484375 635.870117188 c 0
 493.286132812 600.071289062 502.209960938 104.3203125 468.330078125 33.634765625 c 0
 450.15234375 -4.30078125 422.478515625 -7.400390625 400.62109375 25.95703125 c 0
 389.634765625 42.724609375 380.37890625 86.1005859375 376.817382812 138.098632812 c 2
 371 223 l 1
 283.05859375 223.255859375 l 2
 178.889648438 223.525390625 118.30859375 248.802734375 82.4443359375 306.833007812 c 0
 12.5439453125 419.93359375 102.19921875 574.081054688 276.313476562 640.083984375 c 0
 310.293945312 652.982421875 348.543945312 658.970703125 381.84375 658.203125 c 0
363.331054688 559.811523438 m 0
 359.918945312 560.564453125 355.456054688 559.284179688 349.4453125 557.493164062 c 0
 249.8359375 527.787109375 167.052734375 457.090820312 164.303710938 399.462890625 c 0
 162.766601562 367.30859375 166.791015625 361.857421875 200.5390625 350.137695312 c 0
 248.926757812 333.2734375 266.622070312 332.965820312 325.640625 347.833984375 c 2
 373.77734375 359.862304688 l 1
 373.77734375 462.216796875 l 2
 373.77734375 538.034179688 373.567382812 557.764648438 363.331054688 559.811523438 c 0
EndSplineSet
Validated: 33
EndChar

StartChar: quotedbl
Encoding: 34 34 85
Width: 404
VWidth: 0
Flags: HW
LayerCount: 2
Fore
SplineSet
121.20703125 892.396484375 m 2
 121.208007812 892.481445312 l 2
 124.517578125 892.694335938 128.084960938 892.694335938 132.083007812 891.84375 c 0
 158.020507812 886.868164062 170.942382812 837.018554688 171.516601562 739.379882812 c 0
 171.966796875 666.751953125 169.43359375 650.623046875 155.588867188 638.103515625 c 0
 133.541015625 618.15234375 121.78125 619.395507812 105.060546875 643.268554688 c 0
 94.423828125 658.44921875 91 687.272460938 91 763 c 0
 91 856.123046875 98.03515625 889.590820312 121.20703125 892.396484375 c 2
284.765625 892.396484375 m 0
 293.391601562 891.346679688 301.681640625 885.161132812 307.951171875 873.491210938 c 0
 323.447265625 844.604492188 330.079101562 676.670898438 316.73046875 651.717773438 c 0
 301.149414062 622.612304688 255.373046875 624.901367188 243.795898438 655.352539062 c 0
 231.723632812 687.094726562 233.654296875 818.818359375 246.758789062 857.245117188 c 0
 255.102539062 881.705078125 270.396484375 894.09765625 284.765625 892.396484375 c 0
EndSplineSet
Validated: 33
EndChar

StartChar: numbersign
Encoding: 35 35 86
Width: 836
VWidth: 0
Flags: HW
LayerCount: 2
Fore
SplineSet
509.56640625 734.604492188 m 2
 509.556640625 734.615234375 l 2
 527.776367188 738.565429688 542.252929688 717.647460938 551.502929688 673.086914062 c 0
 560.682617188 628.915039062 563.541992188 624.62890625 580.608398438 629.536132812 c 0
 591.021484375 632.538085938 626.237304688 637.36328125 658.829101562 640.344726562 c 0
 708.5703125 644.900390625 720.802734375 643.327148438 735.444335938 630.075195312 c 0
 757.1640625 610.423828125 757.956054688 580.413085938 737.163085938 561.590820312 c 0
 728.469726562 553.724609375 691.592773438 542.833007812 655.197265625 537.408203125 c 0
 566.96484375 524.286132812 565.6171875 523.16796875 573.017578125 469.352539062 c 2
 579.1171875 424.83984375 l 1
 636.686523438 422.272460938 l 2
 687.021484375 420.021484375 696.268554688 416.84765625 711.268554688 396.69921875 c 0
 724.778320312 378.557617188 726.397460938 370.016601562 718.973632812 356.142578125 c 0
 707.072265625 333.9140625 690.321289062 327.040039062 630.374023438 320.08203125 c 2
 582.435546875 314.512695312 l 1
 585.110351562 243.03515625 l 2
 587.955078125 168.375 580.358398438 141.596679688 551.939453125 126.397460938 c 0
 539.405273438 119.688476562 530.499023438 121.573242188 514.916015625 134.204101562 c 0
 496.77734375 148.891601562 494.029296875 159.729492188 491.267578125 226.9765625 c 2
 488.057617188 303.057617188 l 1
 447.395507812 297.590820312 l 2
 425.009765625 294.587890625 391.85546875 289.928710938 373.776367188 287.216796875 c 2
 340.92578125 282.288085938 l 1
 340.92578125 223.006835938 l 2
 340.92578125 176.758789062 337.392578125 160.607421875 324.875976562 149.28125 c 0
 288.41015625 116.280273438 262.064453125 146.411132812 262.064453125 220.975585938 c 2
 262.064453125 275.012695312 l 1
 214.767578125 275.012695312 l 2
 180.268554688 275.012695312 162.0390625 279.774414062 146.926757812 292.571289062 c 2
 126.166992188 310.109375 l 1
 146.712890625 327.544921875 l 2
 158.029296875 337.127929688 183.724609375 349.407226562 203.74609375 354.83203125 c 0
 223.767578125 360.256835938 245.016601562 366.1171875 251.041992188 367.774414062 c 0
 257.853515625 369.708007812 262.064453125 386.801757812 262.064453125 412.930664062 c 2
 262.064453125 454.984375 l 1
 180.955078125 454.875 l 2
 104.19140625 454.771484375 99.75390625 455.786132812 97.169921875 473.924804688 c 0
 93.5234375 499.541992188 126.735351562 520.490234375 200.001953125 538.877929688 c 2
 257.677734375 553.434570312 l 1
 262.065429688 629.30078125 l 2
 265.200195312 683.616210938 270.208984375 707.592773438 279.614257812 713.514648438 c 0
 314.10546875 735.251953125 327.22265625 716.827148438 335.364257812 635.1875 c 0
 338.44921875 604.23828125 342.716796875 577.1171875 344.88671875 574.943359375 c 0
 347.05859375 572.7890625 376.717773438 577.862304688 410.6953125 586.186523438 c 2
 472.436523438 601.28125 l 1
 472.436523438 652.965820312 l 2
 472.436523438 693.124023438 476.412109375 708.513671875 490.19921875 722.303710938 c 0
 497.067382812 729.158203125 503.493164062 733.361328125 509.56640625 734.604492188 c 2
473.505859375 494.163085938 m 0
 469.27734375 494.162109375 437.758789062 487.908203125 403.418945312 480.143554688 c 2
 340.927734375 466.021484375 l 1
 340.927734375 423.005859375 l 2
 340.927734375 382.920898438 342.26953125 380.25 360.616210938 384.163085938 c 0
 371.463867188 386.483398438 403.088867188 392.736328125 430.811523438 398.078125 c 2
 481.2109375 407.810546875 l 1
 481.2109375 451.041992188 l 2
 481.2109375 474.802734375 477.736328125 494.163085938 473.505859375 494.163085938 c 0
EndSplineSet
Validated: 33
EndChar

StartChar: percent
Encoding: 37 37 87
Width: 740
VWidth: 0
Flags: HW
LayerCount: 2
Fore
SplineSet
574.197265625 742.108398438 m 0
 584.240234375 744.545898438 596.864257812 739.577148438 615.9765625 727.953125 c 0
 650.724609375 706.81640625 652.518554688 685.631835938 619.8984375 680.782226562 c 0
 608.41015625 679.078125 589.60546875 659.776367188 576.412109375 636.314453125 c 2
 553.069335938 594.916992188 l 1
 574.083007812 577.850585938 l 2
 607.21484375 551.022460938 646.8046875 487.057617188 646.8046875 460.293945312 c 0
 646.8046875 388.135742188 597.497070312 375.639648438 565.240234375 439.661132812 c 0
 527.276367188 515.016601562 528.407226562 515.333007812 467.706054688 419.646484375 c 0
 436.979492188 371.212890625 395.599609375 310.801757812 375.822265625 285.504882812 c 0
 356.03515625 260.209960938 328.604492188 224.6015625 314.76953125 206.274414062 c 0
 300.934570312 187.944335938 263.567382812 155.3359375 231.854492188 133.799804688 c 0
 166.7890625 89.609375 150.334960938 81.669921875 141.444335938 90.560546875 c 0
 117.758789062 114.245117188 259.55859375 350.109375 387 499 c 0
 439.556640625 560.405273438 437.659179688 568.03515625 370.407226562 568.03515625 c 0
 334.63671875 568.03515625 309.154296875 589.380859375 317.831054688 612.010742188 c 0
 326.219726562 633.87109375 413.758789062 650.9375 455.288085938 638.791015625 c 0
 487.125 629.495117188 492.173828125 630.942382812 512.901367188 656.120117188 c 0
 525.385742188 671.30078125 541.288085938 696.133789062 548.27734375 711.275390625 c 0
 556.772460938 729.700195312 564.165039062 739.63671875 574.197265625 742.108398438 c 0
143.522460938 527.752929688 m 0
 186.911132812 527.752929688 220.63671875 497.716796875 230.002929688 450.856445312 c 0
 241.379882812 393.963867188 165.942382812 341.349609375 108.146484375 365.852539062 c 0
 72.0029296875 381.177734375 60.1416015625 404.296875 66.0126953125 448.154296875 c 0
 73.390625 503.165039062 97.3994140625 527.752929688 143.522460938 527.752929688 c 0
147.444335938 484.390625 m 0
 135.33984375 484.6328125 123.216796875 478.120117188 117.227539062 462.526367188 c 0
 107.592773438 437.423828125 121.229492188 417.076171875 147.689453125 417.076171875 c 0
 164.09375 417.076171875 174.814453125 424.278320312 179.258789062 438.327148438 c 0
 187.703125 464.921875 167.602539062 483.915039062 147.444335938 484.390625 c 0
543.232421875 302.220703125 m 0
 553.157226562 301.069335938 562.998046875 297.694335938 572.221679688 291.65625 c 0
 607.495117188 268.543945312 617.193359375 236.682617188 604.404296875 186.26171875 c 0
 589.990234375 129.458984375 540.677734375 99.1748046875 486.725585938 114.03125 c 0
 473.389648438 117.704101562 453.640625 132.522460938 442.873046875 146.951171875 c 0
 396.267578125 209.374023438 473.698242188 310.350585938 543.232421875 302.220703125 c 0
519.65234375 243.258789062 m 0
 511.348632812 241.852539062 502.553710938 236.575195312 494.352539062 226.424804688 c 0
 471.723632812 198.475585938 471.4140625 191.499023438 491.643554688 171.26953125 c 0
 514.3515625 148.568359375 534.922851562 151.65625 547.783203125 179.875 c 0
 564.703125 217.008789062 544.583007812 247.490234375 519.65234375 243.258789062 c 0
EndSplineSet
Validated: 33
EndChar

StartChar: ampersand
Encoding: 38 38 88
Width: 748
VWidth: 0
Flags: HW
LayerCount: 2
Fore
SplineSet
340.626953125 662.123046875 m 2
 340.6171875 662.202148438 l 2
 383.217773438 665.083007812 419.934570312 650.12890625 449.876953125 617.529296875 c 0
 482.400390625 582.120117188 486.203125 545.793945312 459.120117188 528.845703125 c 0
 447.172851562 521.368164062 436.596679688 526.252929688 407.294921875 552.72265625 c 0
 364.966796875 590.958984375 345.56640625 593.060546875 289.673828125 565.370117188 c 0
 242.94140625 542.217773438 224.45703125 507.021484375 236.529296875 464.36328125 c 0
 244.329101562 436.8046875 359.4609375 299.75390625 396.842773438 273.572265625 c 0
 422.443359375 255.639648438 426.576171875 260.9140625 451.857421875 344.540039062 c 0
 471.731445312 410.283203125 481.455078125 422.100585938 501.590820312 405.385742188 c 0
 520.587890625 389.622070312 518.0546875 315.716796875 496.640625 259.377929688 c 0
 486.727539062 233.297851562 478.59765625 209.455078125 478.595703125 206.452148438 c 0
 478.592773438 203.444335938 508.91015625 176.103515625 545.93359375 145.717773438 c 0
 582.95703125 115.329101562 620.096679688 80.0205078125 628.456054688 67.2666015625 c 0
 642.263671875 46.2109375 642.393554688 42.8046875 629.5625 29.96484375 c 0
 603.717773438 4.12109375 530.326171875 34.0283203125 428.869140625 111.829101562 c 0
 421.989257812 117.087890625 411.303710938 113.063476562 398.500976562 100.267578125 c 0
 365.502929688 67.271484375 283.912109375 18.9697265625 247.3203125 10.814453125 c 0
 228.302734375 6.5146484375 201.958007812 5.9814453125 188.78515625 9.537109375 c 0
 115.5546875 29.3388671875 81.95703125 75.2197265625 82.2763671875 154.666015625 c 0
 82.529296875 216.231445312 104.76953125 264.349609375 156.325195312 314.6484375 c 2
 197.037109375 354.259765625 l 1
 180.751953125 391.229492188 l 2
 154.314453125 451.508789062 150.715820312 489.97265625 167 539 c 0
 183.43359375 588.4765625 204.661132812 611.556640625 257.774414062 637.6953125 c 0
 287.353515625 652.244140625 315.06640625 660.419921875 340.626953125 662.123046875 c 2
247.651367188 288.352539062 m 1
 217.393554688 266.125976562 l 2
 173.254882812 233.561523438 154.303710938 199.809570312 154.236328125 154.005859375 c 0
 154.12890625 83.859375 199.265625 62.1416015625 269.4375 98.55078125 c 0
 287.830078125 108.094726562 315.918945312 127.342773438 331.82421875 141.352539062 c 2
 360.65234375 166.768554688 l 1
 304.20703125 227.615234375 l 1
 247.651367188 288.352539062 l 1
EndSplineSet
Validated: 33
EndChar

StartChar: quotesingle
Encoding: 39 39 89
Width: 260
VWidth: 0
Flags: HW
LayerCount: 2
Fore
SplineSet
92.15234375 666.599609375 m 0
 87.1396484375 675.9609375 83.037109375 735.408203125 83.037109375 798.690429688 c 0
 83.037109375 903.364257812 84.6806640625 915.3984375 101.293945312 932.0078125 c 0
 117.708984375 948.420898438 121.486328125 948.982421875 138.719726562 937.583007812 c 0
 160.495117188 923.1875 168.786132812 876.291992188 170.2265625 759.39453125 c 0
 170.850585938 708.529296875 167.251953125 683.21484375 157.389648438 669.131835938 c 0
 140.405273438 644.881835938 104.520507812 643.486328125 92.15234375 666.599609375 c 0
EndSplineSet
Validated: 33
EndChar

StartChar: parenleft
Encoding: 40 40 90
Width: 502
VWidth: 0
Flags: HW
LayerCount: 2
Fore
SplineSet
256.3359375 -76.9990234375 m 0
 192.62109375 -38.8056640625 104.303710938 78.9453125 82.59375 154.645507812 c 0
 64.8330078125 216.56640625 65.0556640625 395.717773438 82.990234375 473.426757812 c 0
 98.8154296875 542.014648438 161.733398438 650.993164062 241.359375 747.736328125 c 0
 285.516601562 801.388671875 304.236328125 814.217773438 333.416992188 810.831054688 c 0
 392.163085938 804.015625 388.48046875 753.873046875 323 669 c 0
 205.94140625 517.270507812 168.263671875 369.799804688 209.044921875 222.982421875 c 0
 226.51953125 160.068359375 319.521484375 52.23828125 376.752929688 28.5322265625 c 0
 430.331054688 6.337890625 446.4375 -45.830078125 411.596679688 -84.328125 c 0
 378.219726562 -121.209960938 325.977539062 -118.744140625 256.3359375 -76.9990234375 c 0
EndSplineSet
Validated: 33
EndChar

StartChar: parenright
Encoding: 41 41 91
Width: 523
VWidth: 0
Flags: HW
LayerCount: 2
Fore
SplineSet
119.252929688 -73.99609375 m 4
 91.9794921875 -32.384765625 102.868164062 -5.8359375 186.0234375 89.13671875 c 4
 250.048828125 162.24609375 262.060546875 212.127929688 251.774414062 362.184570312 c 4
 242.571289062 496.739257812 207.290039062 581.739257812 127.646484375 661.3828125 c 4
 83.2509765625 705.779296875 69.375 730.099609375 72.6884765625 757.713867188 c 4
 79.9033203125 817.89453125 113.73046875 827.951171875 188 792 c 4
 277.123046875 748.853515625 323.7578125 698.96875 373.370117188 593.704101562 c 4
 408.883789062 518.35546875 416.823242188 480.681640625 423.099609375 357.6875 c 4
 433.752929688 149.166015625 411.131835938 78.5234375 299.713867188 -27.74609375 c 4
 203.8828125 -119.154296875 156.754882812 -131.234375 119.252929688 -73.99609375 c 4
EndSplineSet
Validated: 33
EndChar

StartChar: asterisk
Encoding: 42 42 92
Width: 476
VWidth: 0
Flags: HW
LayerCount: 2
Fore
SplineSet
97.9736328125 625.5 m 6
 82.7744140625 640.693359375 94.9443359375 669.8203125 133.908203125 711.473632812 c 6
 176.01953125 756.495117188 l 5
 129.274414062 802.508789062 l 6
 83.57421875 847.494140625 72.6181640625 871.58203125 92.322265625 883.760742188 c 4
 109.240234375 894.223632812 142.026367188 880.608398438 173.075195312 850.256835938 c 6
 203 821 l 5
 203.1171875 856.850585938 l 6
 203.290039062 900.883789062 213.653320312 918.7265625 236.51953125 914.381835938 c 4
 249.403320312 911.928710938 255.151367188 900.700195312 258.577148438 871.299804688 c 6
 263.211914062 831.529296875 l 5
 295.130859375 855.1640625 l 6
 328.791992188 880.092773438 355.389648438 885.326171875 365.475585938 869 c 4
 378.129882812 848.532226562 358.9140625 813.924804688 318.936523438 785.21484375 c 6
 277.434570312 755.411132812 l 5
 314.9296875 714.733398438 l 6
 359.297851562 666.599609375 361.583007812 634.9375 321.024414062 630.275390625 c 4
 301.22265625 627.999023438 286.859375 635.98828125 257.533203125 665.61328125 c 4
 215.125 708.446289062 224.732421875 710.341796875 152.328125 644.83984375 c 4
 124.059570312 619.265625 109.391601562 614.046875 97.94921875 625.487304688 c 6
 97.9736328125 625.5 l 6
EndSplineSet
Validated: 33
EndChar

StartChar: plus
Encoding: 43 43 93
Width: 732
VWidth: 0
Flags: HW
LayerCount: 2
Fore
SplineSet
334.47265625 104.849609375 m 2
 314.3515625 121.159179688 309.76171875 139.405273438 304.189453125 225.591796875 c 2
 297.603515625 327.126953125 l 1
 230.623046875 327.385742188 l 2
 110.771484375 327.904296875 39.017578125 355.796875 54.443359375 395.995117188 c 0
 63.673828125 420.005859375 113.282226562 434.583007812 216.411132812 443.553710938 c 2
 302.110351562 451.022460938 l 1
 294.927734375 561.9609375 l 2
 287.381835938 678.41015625 297.001953125 728.240234375 329.040039062 740.569335938 c 0
 372.778320312 757.346679688 410.30859375 651.626953125 410.534179688 510.997070312 c 2
 410.6015625 458.85546875 l 1
 498.9609375 458.85546875 l 2
 628.411132812 458.85546875 680.357421875 423.736328125 647.779296875 358.247070312 c 0
 635.904296875 334.391601562 627.658203125 332.395507812 528.3046875 329.481445312 c 2
 421.577148438 326.34375 l 1
 421.577148438 227.951171875 l 2
 421.577148438 144.194335938 418.310546875 126.29296875 399.615234375 107.606445312 c 0
 372.7421875 80.732421875 364.630859375 80.392578125 334.427734375 104.857421875 c 2
 334.47265625 104.849609375 l 2
EndSplineSet
Validated: 33
EndChar

StartChar: comma
Encoding: 44 44 94
Width: 364
VWidth: 0
Flags: HW
LayerCount: 2
Fore
SplineSet
78.6767578125 -157.192382812 m 0
 53.796875 -132.313476562 64.572265625 -105.98046875 143 0 c 0
 194.759765625 69.9462890625 218.724609375 94.271484375 235.866210938 94.271484375 c 0
 287.09375 94.271484375 275.446289062 -3.7197265625 214.763671875 -83.2802734375 c 0
 183.545898438 -124.208984375 122.502929688 -174.1640625 103.70703125 -174.1640625 c 0
 99.2734375 -174.1640625 88.0107421875 -166.530273438 78.6767578125 -157.192382812 c 0
EndSplineSet
Validated: 33
EndChar

StartChar: hyphen
Encoding: 45 45 95
Width: 804
VWidth: 0
Flags: HW
LayerCount: 2
Fore
SplineSet
424.865234375 345.875976562 m 0
 155.3359375 365.4765625 86.6181640625 374.935546875 72.4287109375 394.30859375 c 0
 52.015625 422.173828125 70.5732421875 452.881835938 120.584960938 473.978515625 c 0
 150.479492188 486.592773438 224.765625 491 407 491 c 0
 621.8828125 491 657.2578125 488.100585938 686.260742188 469.223632812 c 0
 725.891601562 443.2421875 731.158203125 388.755859375 697.021484375 357.862304688 c 0
 674.795898438 337.739257812 588.555664062 333.940429688 424.865234375 345.875976562 c 0
EndSplineSet
Validated: 33
EndChar

StartChar: slash
Encoding: 47 47 96
Width: 644
VWidth: 0
Flags: HW
LayerCount: 2
Fore
SplineSet
54.9892578125 74.7216796875 m 2
 40.0517578125 113.653320312 97.9736328125 209.127929688 259 411 c 0
 413.481445312 604.66796875 502.405273438 704.8515625 526.659179688 712.549804688 c 0
 557.5546875 722.342773438 584.73828125 701.087890625 584.73828125 667.10546875 c 0
 584.73828125 632.491210938 571.8046875 613.909179688 434.345703125 451.029296875 c 0
 380.397460938 387.10546875 293.411132812 280.321289062 241.041992188 213.733398438 c 0
 188.671875 147.146484375 136.708007812 85.134765625 125.564453125 75.9326171875 c 0
 99.794921875 54.654296875 62.935546875 54.013671875 54.9892578125 74.7880859375 c 2
 54.9892578125 74.7216796875 l 2
EndSplineSet
Validated: 33
EndChar

StartChar: backslash
Encoding: 92 92 97
Width: 588
VWidth: 0
Flags: HW
LayerCount: 2
Fore
SplineSet
411.6171875 14.408203125 m 0
 389.29296875 30.041015625 365.266601562 64.9404296875 212.733398438 303.2578125 c 0
 38.80078125 575.010742188 17.236328125 626.559570312 67.8369140625 649.615234375 c 0
 85.111328125 657.478515625 97.736328125 657.478515625 112.456054688 649.602539062 c 0
 139.323242188 635.217773438 227.838867188 517.000976562 351 331 c 0
 504.913085938 98.552734375 518.151367188 66.251953125 476.546875 24.6484375 c 0
 446.28125 -5.6181640625 441.326171875 -6.400390625 411.6171875 14.408203125 c 0
EndSplineSet
Validated: 33
EndChar

StartChar: braceleft
Encoding: 123 123 98
Width: 669
VWidth: 0
Flags: HW
LayerCount: 2
Fore
SplineSet
324.80078125 -160.08203125 m 0
 285.551757812 -140.484375 244.569335938 -110.15234375 233.731445312 -92.681640625 c 0
 222.893554688 -75.1982421875 209.186523438 -2.4365234375 203.262695312 69.0390625 c 0
 191.729492188 208.262695312 188.055664062 214.68359375 88.8447265625 269.05078125 c 0
 -3.8974609375 319.870117188 20.576171875 372.809570312 160.379882812 423.78515625 c 2
 246.221679688 455.072265625 l 1
 246.221679688 577.647460938 l 2
 246.221679688 727.66796875 266.254882812 772.924804688 346.954101562 805.213867188 c 0
 425.000976562 836.432617188 481.474609375 834.762695312 512.651367188 800.33984375 c 0
 550.586914062 758.422851562 531.655273438 732.69140625 456.66015625 724.239257812 c 0
 354.456054688 712.719726562 347.216796875 700.9609375 347.216796875 546.594726562 c 0
 347.216796875 418.396484375 345.479492188 410.984375 308.802734375 382.130859375 c 0
 287.67578125 365.499023438 255.227539062 348.1171875 236.696289062 343.458007812 c 2
 203.002929688 335.005859375 l 1
 240.788085938 305.287109375 l 2
 293.03515625 264.1875 318.361328125 195.560546875 318.361328125 95.0771484375 c 0
 318.361328125 -15.39453125 334.293945312 -28.3359375 478.38671875 -34.87890625 c 0
 566.09765625 -38.8671875 596.149414062 -45.990234375 615.533203125 -67.3935546875 c 0
 635.9375 -89.9208984375 637.41015625 -101.270507812 623.811523438 -131.119140625 c 0
 590.315429688 -204.633789062 442.673828125 -218.923828125 324.80078125 -160.08203125 c 0
EndSplineSet
Validated: 33
EndChar

StartChar: braceright
Encoding: 125 125 99
Width: 628
VWidth: 0
Flags: HW
LayerCount: 2
Fore
SplineSet
55.119140625 -179.348632812 m 0
 3.9990234375 -128.231445312 36.0185546875 -82.0283203125 122.563476562 -82.0283203125 c 0
 153.880859375 -82.0283203125 203.555664062 -71.990234375 232.955078125 -59.7060546875 c 0
 286.166992188 -37.48828125 286.36328125 -37.0673828125 276.350585938 33.1572265625 c 0
 248.169921875 230.7421875 248.33203125 255.2265625 278 284 c 0
 306.12109375 311.271484375 305.7734375 312.39453125 255.96875 356.326171875 c 0
 205.412109375 400.912109375 205.3671875 401.069335938 206.766601562 530.592773438 c 0
 208.311523438 672.044921875 198.231445312 689.4609375 101.13671875 713.32421875 c 0
 3.7998046875 737.260742188 25.900390625 824.307617188 129.309570312 824.307617188 c 0
 279.651367188 824.307617188 366.772460938 711.249023438 341.666015625 548.723632812 c 0
 327.076171875 454.2578125 341.104492188 437.99609375 437.064453125 437.99609375 c 0
 526.454101562 437.99609375 579.705078125 407.56640625 579.705078125 356.512695312 c 0
 579.705078125 314.682617188 530.828125 272.951171875 437.44140625 235.051757812 c 0
 377.685546875 210.798828125 370.993164062 203.463867188 378.508789062 170.548828125 c 0
 400.747070312 73.126953125 404.439453125 -38.8505859375 386.819335938 -81.392578125 c 0
 359.857421875 -146.478515625 282.62890625 -188.266601562 173.043945312 -197.065429688 c 0
 98.7802734375 -203.032226562 75.23828125 -199.522460938 55.119140625 -179.348632812 c 0
EndSplineSet
Validated: 33
EndChar

StartChar: asciitilde
Encoding: 126 126 100
Width: 776
VWidth: 0
Flags: HW
LayerCount: 2
Fore
SplineSet
473.668945312 312.100585938 m 0
 451.541992188 320.33203125 409.642578125 350.568359375 380.559570312 379.290039062 c 0
 314.546875 444.483398438 293.888671875 445.5859375 185.361328125 389.712890625 c 0
 125.494140625 358.88671875 94.46484375 348.766601562 66.8896484375 351.075195312 c 0
 -3.7353515625 356.9921875 13.5380859375 382.967773438 129.328125 445 c 0
 289.8046875 530.969726562 342.78125 533.552734375 423.297851562 459.34375 c 0
 463.795898438 422.012695312 475.779296875 416.779296875 529.711914062 412.87890625 c 0
 584.329101562 408.932617188 595.41015625 411.66015625 639.014648438 440.622070312 c 0
 692.819335938 476.26171875 697.350585938 477.380859375 725.91796875 462.102539062 c 0
 752.98046875 447.612304688 752.4296875 390.931640625 724.943359375 361.424804688 c 0
 673.32421875 306.017578125 553.34765625 282.478515625 473.668945312 312.100585938 c 0
EndSplineSet
Validated: 33
EndChar

StartChar: Imacron
Encoding: 261 298 101
Width: 541
VWidth: 0
Flags: HW
LayerCount: 2
Fore
SplineSet
295.248046875 834.670898438 m 0
 380.234375 838.658203125 438.380859375 828.251953125 453.291015625 804.80078125 c 0
 465.8671875 785.024414062 461.100585938 752.49609375 444.323242188 743.881835938 c 0
 435.327148438 739.267578125 351.971679688 732.876953125 259.044921875 729.66015625 c 0
 127.487304688 725.108398438 86.4189453125 726.52734375 73.439453125 736.008789062 c 0
 27.6591796875 769.485351562 85.54296875 809.950195312 201.953125 825.802734375 c 0
 235.637695312 830.396484375 266.919921875 833.401367188 295.248046875 834.670898438 c 0
341.840820312 640.971679688 m 2
 341.84375 641.090820312 l 2
 452.995117188 642.868164062 488.731445312 630.032226562 488.731445312 588.481445312 c 0
 488.731445312 553.259765625 455.9765625 536.8515625 386.139648438 536.857421875 c 2
 325.109375 536.857421875 l 1
 325.109375 326.532226562 l 1
 325.109375 116.209960938 l 1
 391.170898438 116.209960938 l 2
 429.967773438 116.209960938 463.141601562 111.384765625 471.668945312 104.506835938 c 0
 495.416015625 85.373046875 498.311523438 62.419921875 479.873046875 39.6484375 c 0
 465.098632812 21.3955078125 450.391601562 17.3525390625 379.796875 11.9775390625 c 0
 284.416992188 4.6328125 165.37109375 4.0185546875 138.192382812 10.70703125 c 0
 92.7880859375 21.8681640625 81.625 59.9052734375 117.192382812 82.1259765625 c 0
 128.759765625 89.3427734375 162.88671875 97.5341796875 192.98828125 100.391601562 c 0
 223.090820312 103.249023438 248.5390625 106.784179688 249.533203125 108.4765625 c 0
 250.536132812 110.076171875 248.958007812 205.55078125 246.140625 320.66015625 c 2
 241 530 l 1
 151.533203125 528.095703125 l 2
 74.3525390625 526.529296875 59.009765625 528.87890625 39.42578125 544.942382812 c 0
 20.984375 560.064453125 18.552734375 566.731445312 26.84765625 580.489257812 c 0
 32.4619140625 589.809570312 48.208984375 602.826171875 61.7373046875 609.471679688 c 0
 93.5439453125 625.09765625 216.805664062 639.067382812 341.840820312 640.971679688 c 2
EndSplineSet
Validated: 33
EndChar

StartChar: imacron
Encoding: 262 299 102
Width: 541
VWidth: 0
Flags: HW
LayerCount: 2
Fore
SplineSet
295.248046875 834.670898438 m 0
 380.234375 838.658203125 438.380859375 828.251953125 453.291015625 804.80078125 c 0
 465.8671875 785.024414062 461.100585938 752.49609375 444.323242188 743.881835938 c 0
 435.327148438 739.267578125 351.971679688 732.876953125 259.044921875 729.66015625 c 0
 127.487304688 725.108398438 86.4189453125 726.52734375 73.439453125 736.008789062 c 0
 27.6591796875 769.485351562 85.54296875 809.950195312 201.953125 825.802734375 c 0
 235.637695312 830.396484375 266.919921875 833.401367188 295.248046875 834.670898438 c 0
341.840820312 640.971679688 m 2
 341.84375 641.090820312 l 2
 452.995117188 642.868164062 488.731445312 630.032226562 488.731445312 588.481445312 c 0
 488.731445312 553.259765625 455.9765625 536.8515625 386.139648438 536.857421875 c 2
 325.109375 536.857421875 l 1
 325.109375 326.532226562 l 1
 325.109375 116.209960938 l 1
 391.170898438 116.209960938 l 2
 429.967773438 116.209960938 463.141601562 111.384765625 471.668945312 104.506835938 c 0
 495.416015625 85.373046875 498.311523438 62.419921875 479.873046875 39.6484375 c 0
 465.098632812 21.3955078125 450.391601562 17.3525390625 379.796875 11.9775390625 c 0
 284.416992188 4.6328125 165.37109375 4.0185546875 138.192382812 10.70703125 c 0
 92.7880859375 21.8681640625 81.625 59.9052734375 117.192382812 82.1259765625 c 0
 128.759765625 89.3427734375 162.88671875 97.5341796875 192.98828125 100.391601562 c 0
 223.090820312 103.249023438 248.5390625 106.784179688 249.533203125 108.4765625 c 0
 250.536132812 110.076171875 248.958007812 205.55078125 246.140625 320.66015625 c 2
 241 530 l 1
 151.533203125 528.095703125 l 2
 74.3525390625 526.529296875 59.009765625 528.87890625 39.42578125 544.942382812 c 0
 20.984375 560.064453125 18.552734375 566.731445312 26.84765625 580.489257812 c 0
 32.4619140625 589.809570312 48.208984375 602.826171875 61.7373046875 609.471679688 c 0
 93.5439453125 625.09765625 216.805664062 639.067382812 341.840820312 640.971679688 c 2
EndSplineSet
Validated: 33
EndChar

StartChar: Emacron
Encoding: 263 274 103
Width: 517
VWidth: 0
Flags: HW
LayerCount: 2
Fore
SplineSet
304.76953125 890.51171875 m 0
 331.596679688 889.577148438 352.307617188 886.859375 361.231445312 882.088867188 c 0
 393.00390625 865.08203125 399.248046875 830.265625 375.6640625 801.102539062 c 0
 356.969726562 777.993164062 346.427734375 776.287109375 193 773 c 0
 57.6396484375 770.083007812 27.9296875 772.33203125 16.4677734375 786.150390625 c 0
 -5.6630859375 812.81640625 6.8564453125 840.545898438 50.828125 862.026367188 c 0
 88.7001953125 880.525390625 224.291992188 893.330078125 304.76953125 890.51171875 c 0
309.706054688 688.890625 m 2
 309.72265625 689.009765625 l 2
 366.830078125 689.333984375 393.006835938 671.708984375 393.006835938 634.594726562 c 0
 393.006835938 599.145507812 352.294921875 580.806640625 241 566 c 0
 190.458007812 559.251953125 147.586914062 552.256835938 145.708984375 550.279296875 c 0
 143.830078125 548.405273438 148.024414062 504.03515625 155.032226562 451.666992188 c 0
 163.405273438 389.08203125 172.024414062 358.08984375 180.197265625 361.229492188 c 0
 187.03515625 363.874023438 224.93359375 369.534179688 264.375976562 373.76171875 c 0
 328.528320312 380.6328125 338.469726562 379.001953125 359.02734375 358.435546875 c 0
 387.8203125 329.62890625 387.788085938 319.8203125 358.755859375 292.78125 c 0
 344.079101562 279.10546875 312.955078125 268.674804688 274.194335938 264.423828125 c 0
 240.442382812 260.715820312 205.41015625 256.7109375 196.40234375 255.475585938 c 0
 184.236328125 253.866210938 179.282226562 235.831054688 176.859375 185.220703125 c 2
 173.537109375 117.137695312 l 1
 302.296875 116.643554688 l 2
 433.927734375 116.290039062 457.74609375 109.892578125 472.569335938 70.40234375 c 0
 482.236328125 44.6455078125 445.360351562 8.5322265625 406.529296875 5.6396484375 c 0
 357.333984375 1.95703125 182.375976562 2.1298828125 149.778320312 5.8876953125 c 0
 96.74609375 11.9794921875 84.2236328125 47.662109375 75.052734375 219.080078125 c 0
 70.509765625 304.051757812 66.6923828125 422.686523438 66.4951171875 482.728515625 c 0
 66.103515625 587.520507812 67.2216796875 593.030273438 95.7470703125 620.428710938 c 0
 137.658203125 660.6875 159.26171875 669.833007812 242.1328125 682.637695312 c 0
 268.247070312 686.666015625 290.670898438 688.784179688 309.706054688 688.890625 c 2
EndSplineSet
Validated: 33
EndChar

StartChar: emacron
Encoding: 264 275 104
Width: 517
VWidth: 0
Flags: HW
LayerCount: 2
Fore
SplineSet
304.76953125 890.51171875 m 0
 331.596679688 889.577148438 352.307617188 886.859375 361.231445312 882.088867188 c 0
 393.00390625 865.08203125 399.248046875 830.265625 375.6640625 801.102539062 c 0
 356.969726562 777.993164062 346.427734375 776.287109375 193 773 c 0
 57.6396484375 770.083007812 27.9296875 772.33203125 16.4677734375 786.150390625 c 0
 -5.6630859375 812.81640625 6.8564453125 840.545898438 50.828125 862.026367188 c 0
 88.7001953125 880.525390625 224.291992188 893.330078125 304.76953125 890.51171875 c 0
309.706054688 688.890625 m 2
 309.72265625 689.009765625 l 2
 366.830078125 689.333984375 393.006835938 671.708984375 393.006835938 634.594726562 c 0
 393.006835938 599.145507812 352.294921875 580.806640625 241 566 c 0
 190.458007812 559.251953125 147.586914062 552.256835938 145.708984375 550.279296875 c 0
 143.830078125 548.405273438 148.024414062 504.03515625 155.032226562 451.666992188 c 0
 163.405273438 389.08203125 172.024414062 358.08984375 180.197265625 361.229492188 c 0
 187.03515625 363.874023438 224.93359375 369.534179688 264.375976562 373.76171875 c 0
 328.528320312 380.6328125 338.469726562 379.001953125 359.02734375 358.435546875 c 0
 387.8203125 329.62890625 387.788085938 319.8203125 358.755859375 292.78125 c 0
 344.079101562 279.10546875 312.955078125 268.674804688 274.194335938 264.423828125 c 0
 240.442382812 260.715820312 205.41015625 256.7109375 196.40234375 255.475585938 c 0
 184.236328125 253.866210938 179.282226562 235.831054688 176.859375 185.220703125 c 2
 173.537109375 117.137695312 l 1
 302.296875 116.643554688 l 2
 433.927734375 116.290039062 457.74609375 109.892578125 472.569335938 70.40234375 c 0
 482.236328125 44.6455078125 445.360351562 8.5322265625 406.529296875 5.6396484375 c 0
 357.333984375 1.95703125 182.375976562 2.1298828125 149.778320312 5.8876953125 c 0
 96.74609375 11.9794921875 84.2236328125 47.662109375 75.052734375 219.080078125 c 0
 70.509765625 304.051757812 66.6923828125 422.686523438 66.4951171875 482.728515625 c 0
 66.103515625 587.520507812 67.2216796875 593.030273438 95.7470703125 620.428710938 c 0
 137.658203125 660.6875 159.26171875 669.833007812 242.1328125 682.637695312 c 0
 268.247070312 686.666015625 290.670898438 688.784179688 309.706054688 688.890625 c 2
EndSplineSet
Validated: 33
EndChar

StartChar: Amacron
Encoding: 265 256 105
Width: 628
VWidth: 0
Flags: HW
LayerCount: 2
Fore
SplineSet
371.740234375 915.103515625 m 0
 463.8515625 915.114257812 492.047851562 898.685546875 492.047851562 845.297851562 c 0
 492.047851562 800.096679688 465.67578125 788.41796875 342.55078125 779.029296875 c 0
 279.506835938 774.1953125 200.092773438 768.038085938 166.100585938 765.213867188 c 0
 132.108398438 762.389648438 93.197265625 762.364257812 79.5849609375 765.213867188 c 0
 49.3603515625 771.5390625 35.587890625 808.778320312 54.8662109375 832.008789062 c 0
 91.208984375 875.798828125 240.905273438 915.103515625 371.740234375 915.103515625 c 0
271.813476562 660.948242188 m 0
 281.12890625 660.315429688 290.100585938 658.584960938 297.715820312 655.684570312 c 0
 352.071289062 635.01953125 539.9296875 295.165039062 578.6953125 147.372070312 c 0
 625.684570312 -31.7783203125 535.252929688 -26.890625 452.340820312 154.215820312 c 2
 422.887695312 218.379882812 l 1
 314.151367188 218.244140625 l 2
 156.1796875 218.0234375 159.874023438 220.106445312 126.393554688 113.19140625 c 0
 95.7255859375 15.2646484375 64.61328125 -24.62109375 38.826171875 1.1689453125 c 0
 24.0166015625 15.9765625 31.68359375 113.70703125 54.208984375 196.157226562 c 0
 84.734375 307.890625 190.256835938 625.17578125 202.258789062 641.357421875 c 0
 212.40234375 655.020507812 243.872070312 662.73046875 271.813476562 660.948242188 c 0
263.3984375 526.8359375 m 1
 253.14453125 493.436523438 l 2
 247.556640625 475.048828125 233.331054688 436.2734375 221.456054688 407.315429688 c 0
 191.596679688 334.491210938 193.09765625 326.629882812 235 335 c 0
 254.313476562 338.8671875 290.202148438 341.971679688 314.810546875 341.971679688 c 0
 366.86328125 341.971679688 367.008789062 341.193359375 304.02734375 453.994140625 c 2
 263.3984375 526.8359375 l 1
EndSplineSet
Validated: 33
EndChar

StartChar: amacron
Encoding: 266 257 106
Width: 628
VWidth: 0
Flags: HW
LayerCount: 2
Fore
SplineSet
371.740234375 915.103515625 m 0
 463.8515625 915.114257812 492.047851562 898.685546875 492.047851562 845.297851562 c 0
 492.047851562 800.096679688 465.67578125 788.41796875 342.55078125 779.029296875 c 0
 279.506835938 774.1953125 200.092773438 768.038085938 166.100585938 765.213867188 c 0
 132.108398438 762.389648438 93.197265625 762.364257812 79.5849609375 765.213867188 c 0
 49.3603515625 771.5390625 35.587890625 808.778320312 54.8662109375 832.008789062 c 0
 91.208984375 875.798828125 240.905273438 915.103515625 371.740234375 915.103515625 c 0
271.813476562 660.948242188 m 0
 281.12890625 660.315429688 290.100585938 658.584960938 297.715820312 655.684570312 c 0
 352.071289062 635.01953125 539.9296875 295.165039062 578.6953125 147.372070312 c 0
 625.684570312 -31.7783203125 535.252929688 -26.890625 452.340820312 154.215820312 c 2
 422.887695312 218.379882812 l 1
 314.151367188 218.244140625 l 2
 156.1796875 218.0234375 159.874023438 220.106445312 126.393554688 113.19140625 c 0
 95.7255859375 15.2646484375 64.61328125 -24.62109375 38.826171875 1.1689453125 c 0
 24.0166015625 15.9765625 31.68359375 113.70703125 54.208984375 196.157226562 c 0
 84.734375 307.890625 190.256835938 625.17578125 202.258789062 641.357421875 c 0
 212.40234375 655.020507812 243.872070312 662.73046875 271.813476562 660.948242188 c 0
263.3984375 526.8359375 m 1
 253.14453125 493.436523438 l 2
 247.556640625 475.048828125 233.331054688 436.2734375 221.456054688 407.315429688 c 0
 191.596679688 334.491210938 193.09765625 326.629882812 235 335 c 0
 254.313476562 338.8671875 290.202148438 341.971679688 314.810546875 341.971679688 c 0
 366.86328125 341.971679688 367.008789062 341.193359375 304.02734375 453.994140625 c 2
 263.3984375 526.8359375 l 1
EndSplineSet
Validated: 33
EndChar

StartChar: Umacron
Encoding: 267 362 107
Width: 631
VWidth: 0
Flags: HW
LayerCount: 2
Fore
SplineSet
422.454101562 880.013671875 m 0
 528.61328125 877.25390625 563.1171875 864.360351562 577.3984375 833.012695312 c 0
 588.201171875 809.302734375 586.385742188 803.78125 560.80078125 781.768554688 c 0
 529.046875 754.458007812 549.200195312 755.348632812 205 767 c 0
 100.208984375 770.540039062 32.8388671875 777.174804688 25.462890625 784.55859375 c 0
 4.6748046875 805.411132812 19.5771484375 834.142578125 62.1708984375 855.428710938 c 0
 97.9833984375 873.33203125 128.909179688 876.708007812 290.528320312 879.779296875 c 0
 343.755859375 880.716796875 387.067382812 880.951171875 422.454101562 880.013671875 c 0
507.0390625 589.415039062 m 0
 525.482421875 591.546875 545.995117188 572.08203125 565.553710938 532.96484375 c 0
 588.162109375 487.74609375 591.364257812 468.090820312 590.872070312 377.65625 c 0
 590.159179688 254.139648438 566.594726562 182.502929688 499.771484375 100.6015625 c 0
 417.72265625 0.0361328125 308.615234375 -27.3154296875 197.03125 24.640625 c 0
 113.442382812 63.5634765625 58 161.587890625 37 308 c 0
 23.966796875 398.858398438 36.251953125 537.447265625 59.7744140625 565.794921875 c 0
 95.1240234375 608.388671875 121.819335938 549.900390625 113.68359375 447.677734375 c 0
 103.03125 313.823242188 154.745117188 161.420898438 224.89453125 119.983398438 c 0
 265.454101562 96.017578125 328.163085938 98.9013671875 369.057617188 126.641601562 c 0
 388.314453125 139.704101562 419.740234375 179.518554688 440.53125 217.2578125 c 2
 477.602539062 284.491210938 l 1
 477.602539062 426.3515625 l 2
 477.602539062 518.986328125 481.73828125 572.348632812 489.474609375 580.084960938 c 0
 495.043945312 585.665039062 500.893554688 588.711914062 507.0390625 589.415039062 c 0
EndSplineSet
Validated: 33
EndChar

StartChar: umacron
Encoding: 268 363 108
Width: 631
VWidth: 0
Flags: HW
LayerCount: 2
Fore
SplineSet
422.454101562 880.013671875 m 0
 528.61328125 877.25390625 563.1171875 864.360351562 577.3984375 833.012695312 c 0
 588.201171875 809.302734375 586.385742188 803.78125 560.80078125 781.768554688 c 0
 529.046875 754.458007812 549.200195312 755.348632812 205 767 c 0
 100.208984375 770.540039062 32.8388671875 777.174804688 25.462890625 784.55859375 c 0
 4.6748046875 805.411132812 19.5771484375 834.142578125 62.1708984375 855.428710938 c 0
 97.9833984375 873.33203125 128.909179688 876.708007812 290.528320312 879.779296875 c 0
 343.755859375 880.716796875 387.067382812 880.951171875 422.454101562 880.013671875 c 0
507.0390625 589.415039062 m 0
 525.482421875 591.546875 545.995117188 572.08203125 565.553710938 532.96484375 c 0
 588.162109375 487.74609375 591.364257812 468.090820312 590.872070312 377.65625 c 0
 590.159179688 254.139648438 566.594726562 182.502929688 499.771484375 100.6015625 c 0
 417.72265625 0.0361328125 308.615234375 -27.3154296875 197.03125 24.640625 c 0
 113.442382812 63.5634765625 58 161.587890625 37 308 c 0
 23.966796875 398.858398438 36.251953125 537.447265625 59.7744140625 565.794921875 c 0
 95.1240234375 608.388671875 121.819335938 549.900390625 113.68359375 447.677734375 c 0
 103.03125 313.823242188 154.745117188 161.420898438 224.89453125 119.983398438 c 0
 265.454101562 96.017578125 328.163085938 98.9013671875 369.057617188 126.641601562 c 0
 388.314453125 139.704101562 419.740234375 179.518554688 440.53125 217.2578125 c 2
 477.602539062 284.491210938 l 1
 477.602539062 426.3515625 l 2
 477.602539062 518.986328125 481.73828125 572.348632812 489.474609375 580.084960938 c 0
 495.043945312 585.665039062 500.893554688 588.711914062 507.0390625 589.415039062 c 0
EndSplineSet
Validated: 33
EndChar

StartChar: Udieresis
Encoding: 220 220 109
Width: 1024
VWidth: 0
Flags: HW
LayerCount: 2
Fore
SplineSet
206.646484375 886.889648438 m 6
 206.651367188 887.000976562 l 6
 224.97265625 887.0859375 242.389648438 877.958984375 250.772460938 859.547851562 c 4
 260.379882812 838.456054688 259.28515625 827.708007812 245.000976562 805.903320312 c 4
 221.540039062 769.987304688 180.317382812 769.842773438 157.010742188 805.41796875 c 4
 140.75390625 830.2265625 140.75390625 834.130859375 157.010742188 858.940429688 c 4
 169.127929688 877.4296875 188.32421875 886.806640625 206.646484375 886.889648438 c 6
457.958984375 873.233398438 m 6
 457.958984375 873.328125 l 6
 464.078125 873.5703125 470.615234375 872.842773438 477.513671875 871.145507812 c 4
 509.3359375 863.158203125 526.955078125 818.5625 509.350585938 790.42578125 c 4
 493.366210938 764.836914062 449.108398438 763.567382812 427 788 c 4
 393.698242188 824.797851562 415.125976562 871.536132812 457.958984375 873.233398438 c 6
92.0390625 667.600585938 m 0
 119.294921875 673.5625 128.205078125 628.7578125 128.012695312 503.779296875 c 0
 127.755859375 321.111328125 149.5078125 238.260742188 213.49609375 178.012695312 c 0
 258.794921875 135.352539062 321.265625 111.82421875 389.728515625 111.581054688 c 0
 443.232421875 111.375976562 455.427734375 115.209960938 477.970703125 139.533203125 c 0
 519.146484375 183.96484375 529.365234375 233.9140625 531.743164062 401.625976562 c 0
 534.2265625 577.109375 542.67578125 607.290039062 588.022460938 602.05078125 c 0
 609.380859375 599.581054688 622.251953125 587.76953125 637.909179688 555.923828125 c 0
 666.565429688 497.631835938 668.555664062 284.930664062 641.290039062 196.815429688 c 0
 614.59375 110.536132812 565.166992188 41.7626953125 511.057617188 15.568359375 c 0
 458.689453125 -9.7783203125 373.153320312 -12.6396484375 306.122070312 8.5595703125 c 0
 204.221679688 40.7841796875 126.358398438 111.5546875 79 215 c 0
 22.60546875 338.185546875 22.6689453125 627.67578125 79.1279296875 661.973632812 c 0
 83.794921875 664.787109375 88.14453125 666.630859375 92.0390625 667.600585938 c 0
EndSplineSet
Validated: 33
EndChar

StartChar: udieresis
Encoding: 252 252 110
Width: 1024
VWidth: 0
Flags: HW
LayerCount: 2
Fore
SplineSet
206.646484375 886.889648438 m 6
 206.651367188 887.000976562 l 6
 224.97265625 887.0859375 242.389648438 877.958984375 250.772460938 859.547851562 c 4
 260.379882812 838.456054688 259.28515625 827.708007812 245.000976562 805.903320312 c 4
 221.540039062 769.987304688 180.317382812 769.842773438 157.010742188 805.41796875 c 4
 140.75390625 830.2265625 140.75390625 834.130859375 157.010742188 858.940429688 c 4
 169.127929688 877.4296875 188.32421875 886.806640625 206.646484375 886.889648438 c 6
457.958984375 873.233398438 m 6
 457.958984375 873.328125 l 6
 464.078125 873.5703125 470.615234375 872.842773438 477.513671875 871.145507812 c 4
 509.3359375 863.158203125 526.955078125 818.5625 509.350585938 790.42578125 c 4
 493.366210938 764.836914062 449.108398438 763.567382812 427 788 c 4
 393.698242188 824.797851562 415.125976562 871.536132812 457.958984375 873.233398438 c 6
92.0390625 667.600585938 m 0
 119.294921875 673.5625 128.205078125 628.7578125 128.012695312 503.779296875 c 0
 127.755859375 321.111328125 149.5078125 238.260742188 213.49609375 178.012695312 c 0
 258.794921875 135.352539062 321.265625 111.82421875 389.728515625 111.581054688 c 0
 443.232421875 111.375976562 455.427734375 115.209960938 477.970703125 139.533203125 c 0
 519.146484375 183.96484375 529.365234375 233.9140625 531.743164062 401.625976562 c 0
 534.2265625 577.109375 542.67578125 607.290039062 588.022460938 602.05078125 c 0
 609.380859375 599.581054688 622.251953125 587.76953125 637.909179688 555.923828125 c 0
 666.565429688 497.631835938 668.555664062 284.930664062 641.290039062 196.815429688 c 0
 614.59375 110.536132812 565.166992188 41.7626953125 511.057617188 15.568359375 c 0
 458.689453125 -9.7783203125 373.153320312 -12.6396484375 306.122070312 8.5595703125 c 0
 204.221679688 40.7841796875 126.358398438 111.5546875 79 215 c 0
 22.60546875 338.185546875 22.6689453125 627.67578125 79.1279296875 661.973632812 c 0
 83.794921875 664.787109375 88.14453125 666.630859375 92.0390625 667.600585938 c 0
EndSplineSet
Validated: 33
EndChar

StartChar: Eacute
Encoding: 201 201 111
Width: 475
VWidth: 0
Flags: HW
LayerCount: 2
Fore
SplineSet
265.979492188 928.4609375 m 0
 311.807617188 933.052734375 275.881835938 844.33203125 180.982421875 751.850585938 c 0
 127.629882812 699.8515625 90.6318359375 685.640625 70.85546875 709.467773438 c 0
 60.0927734375 722.4375 60.1162109375 729.228515625 70.97265625 749.56640625 c 0
 91.244140625 787.446289062 184.48828125 886.798828125 220.854492188 909.272460938 c 0
 240.41015625 921.364257812 255.403320312 927.356445312 265.979492188 928.4609375 c 0
208.745117188 641.376953125 m 0
 317.370117188 641.4296875 334.66796875 639.108398438 353.142578125 622.395507812 c 0
 364.69140625 611.953125 372.877929688 594.453125 371.307617188 583.5546875 c 0
 366.4765625 550.185546875 327.489257812 539.153320312 214 539 c 0
 118.151367188 538.8671875 108.809570312 537.25390625 113.125976562 521.756835938 c 0
 115.741210938 512.359375 120.798828125 475.193359375 124.321289062 439.161132812 c 0
 130.6015625 374.893554688 131.150390625 373.765625 156.765625 377.700195312 c 0
 280.823242188 396.767578125 347.568359375 388.279296875 359.083984375 351.997070312 c 0
 371.7265625 312.16015625 337.34375 294.123046875 230.678710938 284.595703125 c 0
 177.564453125 279.865234375 132.86328125 275.87890625 131.404296875 275.686523438 c 0
 128.1640625 275.266601562 140.584960938 115.421875 144.200195312 111.06640625 c 0
 145.603515625 109.38671875 197.3828125 112.747070312 259.23828125 118.494140625 c 0
 380.487304688 129.77734375 413.325195312 124.359375 431.626953125 90.1630859375 c 0
 448.188476562 59.2177734375 408.71875 25.197265625 348.002929688 18.0791015625 c 0
 245.100585938 6.03125 132.681640625 3.400390625 102.73046875 12.3759765625 c 0
 58.80078125 25.5537109375 53.349609375 52.8974609375 41.0400390625 324.13671875 c 0
 35.3154296875 450.325195312 28.25390625 565.342773438 25.2763671875 579.689453125 c 0
 20.7021484375 601.739257812 24.916015625 608.525390625 52.580078125 623.55859375 c 0
 79.30859375 638.083007812 107.915039062 641.321289062 208.745117188 641.376953125 c 0
EndSplineSet
Validated: 33
EndChar

StartChar: eacute
Encoding: 233 233 112
Width: 475
VWidth: 0
Flags: HW
LayerCount: 2
Fore
SplineSet
265.979492188 928.4609375 m 0
 311.807617188 933.052734375 275.881835938 844.33203125 180.982421875 751.850585938 c 0
 127.629882812 699.8515625 90.6318359375 685.640625 70.85546875 709.467773438 c 0
 60.0927734375 722.4375 60.1162109375 729.228515625 70.97265625 749.56640625 c 0
 91.244140625 787.446289062 184.48828125 886.798828125 220.854492188 909.272460938 c 0
 240.41015625 921.364257812 255.403320312 927.356445312 265.979492188 928.4609375 c 0
208.745117188 641.376953125 m 0
 317.370117188 641.4296875 334.66796875 639.108398438 353.142578125 622.395507812 c 0
 364.69140625 611.953125 372.877929688 594.453125 371.307617188 583.5546875 c 0
 366.4765625 550.185546875 327.489257812 539.153320312 214 539 c 0
 118.151367188 538.8671875 108.809570312 537.25390625 113.125976562 521.756835938 c 0
 115.741210938 512.359375 120.798828125 475.193359375 124.321289062 439.161132812 c 0
 130.6015625 374.893554688 131.150390625 373.765625 156.765625 377.700195312 c 0
 280.823242188 396.767578125 347.568359375 388.279296875 359.083984375 351.997070312 c 0
 371.7265625 312.16015625 337.34375 294.123046875 230.678710938 284.595703125 c 0
 177.564453125 279.865234375 132.86328125 275.87890625 131.404296875 275.686523438 c 0
 128.1640625 275.266601562 140.584960938 115.421875 144.200195312 111.06640625 c 0
 145.603515625 109.38671875 197.3828125 112.747070312 259.23828125 118.494140625 c 0
 380.487304688 129.77734375 413.325195312 124.359375 431.626953125 90.1630859375 c 0
 448.188476562 59.2177734375 408.71875 25.197265625 348.002929688 18.0791015625 c 0
 245.100585938 6.03125 132.681640625 3.400390625 102.73046875 12.3759765625 c 0
 58.80078125 25.5537109375 53.349609375 52.8974609375 41.0400390625 324.13671875 c 0
 35.3154296875 450.325195312 28.25390625 565.342773438 25.2763671875 579.689453125 c 0
 20.7021484375 601.739257812 24.916015625 608.525390625 52.580078125 623.55859375 c 0
 79.30859375 638.083007812 107.915039062 641.321289062 208.745117188 641.376953125 c 0
EndSplineSet
Validated: 33
EndChar
